<mxfile host="Electron" modified="2024-02-01T14:51:13.668Z" agent="Mozilla/5.0 (Windows NT 10.0; Win64; x64) AppleWebKit/537.36 (KHTML, like Gecko) draw.io/22.1.11 Chrome/114.0.5735.289 Electron/25.9.8 Safari/537.36" etag="U1SuhDLnwrjUmhfCEUQh" version="22.1.11" type="device">
  <diagram id="-jJWy5Gg5FWx3X-cf26i" name="Page-1">
    <mxGraphModel dx="521" dy="613" grid="1" gridSize="10" guides="1" tooltips="1" connect="1" arrows="1" fold="1" page="1" pageScale="1" pageWidth="827" pageHeight="1169" math="0" shadow="0">
      <root>
        <mxCell id="0" />
        <mxCell id="1" parent="0" />
        <mxCell id="kjZds75LGtFHUZbaOxFK-24" value="" style="verticalLabelPosition=bottom;verticalAlign=top;html=1;shadow=0;dashed=0;strokeWidth=1;strokeColor=none;shape=rect;fillColor=#BBFAFC;" parent="1" vertex="1">
          <mxGeometry x="260" y="160" width="380" height="560" as="geometry" />
        </mxCell>
        <mxCell id="kjZds75LGtFHUZbaOxFK-1" value="" style="verticalLabelPosition=bottom;verticalAlign=top;html=1;shadow=0;dashed=0;strokeWidth=1;shape=mxgraph.android.phone2;strokeColor=#c0c0c0;fillColor=#000000;" parent="1" vertex="1">
          <mxGeometry x="250" y="70" width="400" height="740" as="geometry" />
        </mxCell>
        <mxCell id="kjZds75LGtFHUZbaOxFK-2" value="" style="strokeWidth=1;html=1;shadow=0;dashed=0;shape=mxgraph.android.statusBar;align=center;fillColor=#000000;strokeColor=#ffffff;fontColor=#ffffff;fontSize=10;" parent="1" vertex="1">
          <mxGeometry x="260" y="130" width="380" height="30" as="geometry" />
        </mxCell>
        <mxCell id="kjZds75LGtFHUZbaOxFK-3" value="" style="verticalLabelPosition=bottom;verticalAlign=top;html=1;shadow=0;dashed=0;strokeWidth=2;shape=mxgraph.android.navigation_bar_1;fillColor=#1A1A1A;strokeColor=#999999;" parent="1" vertex="1">
          <mxGeometry x="265" y="720" width="370" height="30" as="geometry" />
        </mxCell>
        <mxCell id="nztbjZuF5t4p9Ih5S_0J-8" value="" style="html=1;verticalLabelPosition=bottom;align=center;labelBackgroundColor=#ffffff;verticalAlign=top;strokeWidth=1;strokeColor=none;shadow=0;dashed=0;shape=mxgraph.ios7.icons.home;fontFamily=Helvetica;fontSize=12;fontColor=default;fillColor=#0099cc;" parent="1" vertex="1">
          <mxGeometry x="280" y="230" width="40" height="44.88" as="geometry" />
        </mxCell>
        <mxCell id="nztbjZuF5t4p9Ih5S_0J-12" value="&lt;font style=&quot;font-size: 24px;&quot;&gt;Joueur 1&lt;/font&gt;" style="whiteSpace=wrap;html=1;shadow=0;dashed=0;fontSize=10;align=left;fillColor=#FFFFFF;strokeColor=#FFFFFF;fontColor=#B3B3B3;" parent="1" vertex="1">
          <mxGeometry x="280" y="330" width="140" height="20" as="geometry" />
        </mxCell>
        <mxCell id="nztbjZuF5t4p9Ih5S_0J-14" value="&lt;br&gt;&lt;span style=&quot;color: rgb(0, 0, 0); font-family: Helvetica; font-size: 24px; font-style: normal; font-variant-ligatures: normal; font-variant-caps: normal; font-weight: 400; letter-spacing: normal; orphans: 2; text-align: center; text-indent: 0px; text-transform: none; widows: 2; word-spacing: 0px; -webkit-text-stroke-width: 0px; text-decoration-thickness: initial; text-decoration-style: initial; text-decoration-color: initial; float: none; display: inline !important;&quot;&gt;29/01/2024 &lt;br&gt;10:50&lt;br&gt;&lt;/span&gt;" style="strokeWidth=1;html=1;shadow=0;dashed=0;shape=mxgraph.android.textfield;align=center;strokeColor=#999999;pointerEvents=1;fontSize=24;" parent="1" vertex="1">
          <mxGeometry x="280" y="330" width="126" height="80" as="geometry" />
        </mxCell>
        <mxCell id="nztbjZuF5t4p9Ih5S_0J-16" value="&lt;font style=&quot;font-size: 24px;&quot;&gt;Joueur 2&lt;/font&gt;" style="whiteSpace=wrap;html=1;shadow=0;dashed=0;fontSize=10;align=left;fillColor=#FFFFFF;strokeColor=#FFFFFF;fontColor=#B3B3B3;" parent="1" vertex="1">
          <mxGeometry x="480" y="330" width="140" height="20" as="geometry" />
        </mxCell>
        <mxCell id="nztbjZuF5t4p9Ih5S_0J-17" value="&lt;br&gt;&lt;span style=&quot;color: rgb(0, 0, 0); font-family: Helvetica; font-size: 24px; font-style: normal; font-variant-ligatures: normal; font-variant-caps: normal; font-weight: 400; letter-spacing: normal; orphans: 2; text-align: center; text-indent: 0px; text-transform: none; widows: 2; word-spacing: 0px; -webkit-text-stroke-width: 0px; text-decoration-thickness: initial; text-decoration-style: initial; text-decoration-color: initial; float: none; display: inline !important;&quot;&gt;29/01/2024 &lt;br&gt;09:12&lt;br&gt;&lt;/span&gt;" style="strokeWidth=1;html=1;shadow=0;dashed=0;shape=mxgraph.android.textfield;align=center;strokeColor=#999999;pointerEvents=1;fontSize=24;" parent="1" vertex="1">
          <mxGeometry x="280" y="390" width="126" height="80" as="geometry" />
        </mxCell>
        <mxCell id="nztbjZuF5t4p9Ih5S_0J-18" value="&lt;br&gt;&lt;span style=&quot;color: rgb(0, 0, 0); font-family: Helvetica; font-size: 24px; font-style: normal; font-variant-ligatures: normal; font-variant-caps: normal; font-weight: 400; letter-spacing: normal; orphans: 2; text-align: center; text-indent: 0px; text-transform: none; widows: 2; word-spacing: 0px; -webkit-text-stroke-width: 0px; text-decoration-thickness: initial; text-decoration-style: initial; text-decoration-color: initial; float: none; display: inline !important;&quot;&gt;29/01/2024 &lt;br&gt;09:12&lt;br&gt;&lt;/span&gt;" style="strokeWidth=1;html=1;shadow=0;dashed=0;shape=mxgraph.android.textfield;align=center;strokeColor=#999999;pointerEvents=1;fontSize=24;" parent="1" vertex="1">
          <mxGeometry x="494" y="393" width="126" height="80" as="geometry" />
        </mxCell>
        <mxCell id="nztbjZuF5t4p9Ih5S_0J-19" value="&lt;br&gt;&lt;span style=&quot;color: rgb(0, 0, 0); font-family: Helvetica; font-size: 24px; font-style: normal; font-variant-ligatures: normal; font-variant-caps: normal; font-weight: 400; letter-spacing: normal; orphans: 2; text-align: center; text-indent: 0px; text-transform: none; widows: 2; word-spacing: 0px; -webkit-text-stroke-width: 0px; text-decoration-thickness: initial; text-decoration-style: initial; text-decoration-color: initial; float: none; display: inline !important;&quot;&gt;29/01/2024 &lt;br&gt;10:50&lt;br&gt;&lt;/span&gt;" style="strokeWidth=1;html=1;shadow=0;dashed=0;shape=mxgraph.android.textfield;align=center;strokeColor=#999999;pointerEvents=1;fontSize=24;" parent="1" vertex="1">
          <mxGeometry x="494" y="330" width="126" height="80" as="geometry" />
        </mxCell>
        <mxCell id="nztbjZuF5t4p9Ih5S_0J-20" value="&lt;br&gt;&lt;span style=&quot;color: rgb(0, 0, 0); font-family: Helvetica; font-size: 24px; font-style: normal; font-variant-ligatures: normal; font-variant-caps: normal; font-weight: 400; letter-spacing: normal; orphans: 2; text-align: center; text-indent: 0px; text-transform: none; widows: 2; word-spacing: 0px; -webkit-text-stroke-width: 0px; text-decoration-thickness: initial; text-decoration-style: initial; text-decoration-color: initial; float: none; display: inline !important;&quot;&gt;29/01/2024 &lt;br&gt;08:25&lt;br&gt;&lt;/span&gt;" style="strokeWidth=1;html=1;shadow=0;dashed=0;shape=mxgraph.android.textfield;align=center;strokeColor=#999999;pointerEvents=1;fontSize=24;" parent="1" vertex="1">
          <mxGeometry x="280" y="450" width="126" height="80" as="geometry" />
        </mxCell>
        <mxCell id="kVNVTeWbjlRlYmT39fhd-1" value="" style="shape=image;verticalLabelPosition=bottom;labelBackgroundColor=default;verticalAlign=top;aspect=fixed;imageAspect=0;image=data:image/png,iVBORw0KGgoAAAANSUhEUgAABAAAAACwCAYAAACRmBzlAAAgAElEQVR4Xux9B4AURfZ+dfeEzYnNAZYsoKBizhgx55xFBXM6L/7vxAs/z3wGRBRzPMOZc84BFFHJmc05wKYJ3f/vq9nBdV1gZneBhX11Ny47O9Nd9VV11XvfS4aSJggIAoKAICAICAKCgCAgCAgCgoAgIAgIAts8AsY2P0IZoCAgCAgCgoAgIAgIAoKAICAICAKCgCAgCCghAGQRCAKCgCAgCAgCgoAgIAgIAoKAICAICAL9AAEhAPrBJMsQBQFBQBAQBAQBQUAQEAQEAUFAEBAEBAEhAGQNCAKCgCAgCAgCgoAgIAgIAoKAICAICAL9AAEhAPrBJMsQBQFBQBAQBAQBQUAQEAQEAUFAEBAEBAEhAGQNCAKCgCAgCAgCgoAgIAgIAoKAICAICAL9AAEhAPrBJMsQBQFBQBAQBAQBQUAQEAQEAUFAEBAEBAEhAGQNCAKCgCAgCAgCgoAgIAgIAoKAICAICAL9AAEhAPrBJMsQBQFBQBAQBAQBQUAQEAQEAUFAEBAEBAEhAGQNCAKCgCAgCAgCgoAgIAgIAoKAICAICAL9AAEhAPrBJMsQBQFBQBAQBAQBQUAQEAQEAUFAEBAEBAEhAGQNCAKCgCAgCAgCgoAgIAgIAoKAICAICAL9AAEhAPrBJMsQBQFBQBAQBAQBQUAQEAQEAUFAEBAEBAEhAGQNCAKCgCAgCAgCgoAgIAgIAoKAICAICAL9AAEhAPrBJMsQBQFBQBAQBAQBQUAQEAQEAUFAEBAEBAEhAGQNCAKCgCAgCAgCgoAgIAgIAoKAICAICAL9AAEhAPrBJMsQBQFBQBAQBAQBQUAQEAQEAUFAEBAEBAEhAGQNCAKCgCAgCAgCgoAgIAgIAoKAICAICAL9AAEhAPrBJMsQBQFBQBAQBAQBQUAQEAQEAUFAEBAEBAEhAGQNCAKCgCAgCAgCgoAgIAgIAoKAICAICAL9AAEhAPrBJMsQBQFBQBAQBAQBQUAQEAQEAUFAEBAEBAEhAGQNCAKCgCAgCAgCgoAgIAgIAoKAICAICAL9AAEhAPrBJMsQBQFBQBAQBAQBQUAQEAQEAUFAEBAEBAEhAGQNCAKCgCAgCAgCgoAgIAgIAoKAICAICAL9AAEhAPrBJMsQBQFBQBAQBAQBQUAQEAQEAUFAEBAEBAEhAGQNCAKCgCAgCAgCgoAgIAgIAoKAICAICAL9AAEhAPrBJMsQBQFBQBAQBAQBQUAQEAQEAUFAEBAEBAEhAGQNCAKCgCAgCAgCgoAgIAgIAoKAICAICAL9AAEhAPrBJMsQBQFBQBAQBAQBQUAQEAQEAUFAEBAEBAEhAGQNCAKCgCAgCAgCgoAgIAgIAoKAICAICAL9AAEhAPrBJMsQBQFBQBAQBAQBQUAQEAQEAUFAEBAEBAEhAGQNCAKCgCAgCAgCgoAgIAgIAoKAICAICAL9AAEhAPrBJMsQBQFBQBAQBAQBQUAQEAQEAUFAEBAEBAEhAGQNCAKCgCAgCAgCgoAgIAgIAoKAICAICAL9AAEhAPrBJMsQBQFBQBAQBAQBQUAQEAQEAUFAEBAEBAEhAGQNCAKCgCAgCAgCgoAgIAgIAoKAICAICAL9AAEhAPrBJMsQBQFBQBAQBAQBQUAQEAQEAUFAEBAEBAEhAGQNCAKCgCAgCAgCgoAgIAgIAoKAICAICAL9AAEhAPrBJMsQBQFBQBAQBAQBQUAQEAQEAUFAEBAEBAEhAGQNCAKCgCAgCAgCgoAgIAgIAoKAICAICAL9AAEhAPrBJMsQBQFBQBAQBAQBQUAQEAQEAUFAEBAEBAEhAGQNCAKCgCAgCAgCgoAgIAgIAoKAICAICAL9AAEhAPrBJMsQBQFBQBAQBAQBQUAQEAQEAUFAEBAEBAEhAGQNCAKCgCAgCAgCgoAgIAgIAoKAICAICAL9AAEhAPrBJMsQBQFBQBAQBAQBQUAQEAQEAUFAEBAEBAEhAGQN9DoC86aO8STlNyTEBz0Jbf7mRJ9pxJi25TIt22U6pksZygg4yjENM2AF7UDAcNqUo5qVrZpbVGzjsOylTcYpKtidjn00VbnGpqXFNbvjEnGfOLehYnwBI8ZSQXfQsCzDcCzDdgzHMGzLsYO2YQSCyvZ7TKfFCcQ2Jbjbmmo8nrWDz1/Z2p37y3cEAUFAEBAEBAFBQBAQBAQBQUAQ6KsICAHQV2dmK+qX4yij4v6sDJ/jGelSzijbdAqh42dCx880HJWOfyfajoqB8u3Bvz34PBRxI4i/+zHMVsdxmpRh1JtK1eD9Cls5qw1TLTVsc4ER17Yq6+yKZsMARdBF471X3JWZ6fXGDDON4FBcdBCuk6OUkWErlYqvJGGRJ+L3GKUcN37nCx9xSDD48HU/rt2Cqzc4hqozlVGD/pTjtQKExBIzxrO0qdkqH37l0rataEqkq4KAICAICAKCwCZDYPYM5U5uy8tye12ZMcGAp7s3Ctiq1qx2inOnljZ39xryPUFAEBAEBIHoEBACIDq8Ivq085yyyupyU322KnAZRhoUySY72La6YPvqSmOCCkR0ka3gQ3NvzYrP9rqGOS5jV8dS42xbjUK3R0BTz4CGbeHf0P+VyUWGn9D99T9+WXNU6kNqPf8bfkFvV2vxqSJ8eQne/gFvfJUUp+besaKkbupUoIlW+lpunKvYPdKnnN1wmbEgAkbgs4UgGbJwixjchPfp+Ar91sX98Ta+rv/Ma/PfnKNqvFai08vRydmO5Xzuaggsyb6+omkrmBrpoiAgCAgCgoAg0OsIUPHPc7KHBx33/jh7d3IcI9swNbneveY49coxFpsu4/WFw4vmTNiGZKTuASLfEgQEAUFg0yMgBEAvY1w5bUxCm9mwi+moiY6ptoc6mWIYJt3bF5um86bH1/z5gCtrG3v5tpv1cuWPZ8XbjdZI2zT2g8V+P9x8Z6jPsLprIaB31tQv5EAtlPD50Mw/VYb9BmiFIq8yhrX61X6WoXaHsr4D/p4NJZ2hBb9W8HuOSpiUKAGNMQfkwWeOst9rGRi7cPgR4hHQc3jlCoKAICAICAJbCwLOVGWuSB9c4LXapoDbPwPnfw685Vw96T8JeHy/CWf4i5YK3J59ScXPPbmefFcQEAQEAUFg4wj0jrK28fv0i08U3ZEf64pRu8GdfYptOBNxrKV0GDjd2D8G4NOMOP8n2edsfZZkutuX3JOXZ3iMw+DSfzRM++NhpYfyrbQAQOM6X62WV9W6BqgKd5Yqx6vOlabWWvGqxYxVrWYMgvst5XICyovQ/7hgs0oONqrUYJ3K9FWqPF+JSgnUKzeiAzp5/dfgPj/gVQk3/YG422jcki7+uoXvjTh/1WAlq1JPjqpyZ6h6V4r+vdmKU62GV/lMrwoivsBCBIDX9ikPXonBNWpAoFalB6pVtq9cZforVazd0j6adZEHNuauAnP7ue3YLySZzoeJk0tr2oWXbW59Vz2UntjaEjPadNnjHdvKB/kS0+7D0eOxghxDpIaxBg4Xi4KmNatAFa02JiuGg0gTBDYJAkvuHpYU7/WNVQ7Xs8phOBIe6F45/7iebWU2mIYzz+uxZ6WtLi0zpm47nl6bZELkolslApRxrHj7eMc2/4ABjP3l7OW/on+cQhJD+Ix1KmzbuCkuGPPIgCuXbtVGkq1yciPotDNjvLtIVQ60HMi5jjMCc5eIfZTenj1u2EeZGaoVhrNi01SzsmN8842tUE7uMRByAUFgMyEQ/Y69mTq2Nd6mZFpugWNYF0O4PA/9z+fRZkPZNKA5m/Qud4xG7HDPIvHcPcsqihZO2EqERCr+y28ekhSb5B8bVM7RIDIOx8IZjjF6w2NcYyaq1TEFalHMSLUwdjtV7M1TdVYqlP9U1ehKUs1mnPIZHv2iku6CfOy2/SrGblPxdhOUcJAAUPxJAAxtXaZGtSxQI1qWqHR/tfI4vpCQEJYU2t34+YPXIrFQ4slTi2OGq2UxQ+AiUADyIRv3TgHxkKiaqPyDeOC9/YYbM2Hq+SDJwBdJiCTcPyVYr9JABAxqW417L1bbtSxUha2rdP9IGLTfvhWkx1zkKXjW9Ngv5UwqW72+/ARb4xpmn+fcWZiSFRc8AETHGciWuAfeysSLMZ69tV/gEVAIpTBW43l4E6+n8oyS+UICbK0rpm/3e9V9A1ORfXQint8zofyPhzdPGoTXbscsdzFabO7GWqxjhAypl0AyPLO4snTZ1rK/9+3Zk971FQQoB6x6YFC2xw781VbGuVjrcWutBLUkdpiqdGfqczUk6eAFuUe/9O8hOahj9J2mC3DBgW1FanTLfH3+4np+nPIz2oLB24ZcXraqr4xb+hFCgMp/iVM+GrzpWZjQIyHnFmC+4vAnRHz2QsMGjXASH+5Uhat9DdnjieZA08fDt3KP2V5ARi4hCGwSBHpLoN8knduaLrrikcIYT4tvH4S+X48c8wfgePPQCr3KWwjrcg2UylVQdnVi+TlgTO+Icbe+kjGpGlbQvt3o8rcsKys9wfBMgNn2dGzOe2LRDMChbgUMFyz9aWp+3Gj1TeJual7sGIx3IKzvuVopDzcqziYk75AoEGL71wkJnc4OegakBupUga9IjWmep/Zc87XasWmutsyHiQB+12+6ofTnqp9jt1c/xe2ghZBiT4Eq82SrNVD6SQxoIYNiRzsBExJBcH/8jioA6+0DFf4sX4Xuw/bow/i136mxzT+pDH+V9lxoF1QW4BqPxQaDz6dVlZbA4qdzE2ztjTRLybS8caZpXIuxHIPfkzfxmJZiNu53t/mfzLq6smIT30su3w8RWDV94N4uw/kdHvxD8PjHb1IIDLUYBOFtjY2tz273h76/v29SLOTi2xQCrLAzIisXYXfm33EGHsjzn2T/kxlnqrnx4/Tpqk/4dsU/ZBwI2fh5Znfkj/kuPe5OqX5eHVX7ukqw1xIrKn8zLVfgtuyLKlZsU+BtA4MpvjdvgGEaF8AL8lLmW9qUQ8L6aoBA9arbcG7PmlIyd1PeS64tCPRXBIQA6KWZXzljUI7HDp6LzfFi0JiD6Xr+Xsoh6qOk/bXyeFztK1qJRVuD8/BRJAe8K7OsaEVfVhyp/BcNKMi2XGqi4dhn4SBHeIOKD7vZz4sboz5L2lfNSthFLYkZpt3tO7L8VPjpYk/LOhVqHvgJwbXaEk/ioMqTqaoRKkDvAF6zs4UgAYr4IFjgd107S02se0ftABw9CBsoB7HyXcJ49UXCniAfxqjVIB3WwBLRsdFiT8KAyjwVd7r4xweb4NrfrK35JChq3OnrQhSa8XtXfUgONKjBbSvUPo1fqMPq34FXwKJweEAbHp4f4QnwiCfG91Lm+VVUXrusVNBLS2yzXIZEltcXnKhs58+44figMs02hE3wFRLiet5IojDEgt4XaKwC8V+4hPxf/sUli3t+dbmCIPALArNhtcoOViFW2f4T3h2OPcbks8/13Hm/6S5uXMdcz1zX2B99IADud3uMm9MvKCrb1ryDuouRfG/rR4Du/0YsvRuN63D2DW20ktSbqUeoB7IuUotikYM3wkblf4C/Rh1d97o6p/IJNbx1SdgwAI8w498tfu9TqLojIQAR4rk5Pkbvj6J7Coa43M6NqJZ0Miz1HhJA3Ev5szca5UUaybzwCsUaAZdk/GDZ6sYsK/MtY/J3vRoiSNl2adowd2LKGle9P2imwa+zKS4+ULhqpa8vy+S9gfPmugYxVqPHuCpWVbuttKDpAOO2Nm8wP7/Y190y35ur7/3lPkIA9MJMh1yjqncx7ODvsXMdhp0rllbxmVkXqo+T91e7wII8pXyGGgdLdkjpcb6AAf1mu9l+v+Da4pZe6EKvX4Ib/jKU9otTrsNw4F8AzXY33CSOLvSrvIPUR8kHqA+SD9TWf7r5d1YOechT8d4Nyvuea75ShW0rVVKgUcVAgeeBsdZMUBUgAObGjVNfJe6plsYM1W76XbXkYIPaae0cdVDDhyoOCvxsEA4kAIo8+b/yNOB3eV+69DOUgIQBLfh06ScJwcOFhISJLATMBUABpsydo+ZhDF8n7K4WQ4jpqg+/jOVbdULNS2oPeCUkIW8A5rEV3gSfO6Zxe6Dc9fHgqSu1i8fW3GpnDElusf0nYmzXYRyj660UlGDYU32ZuAfw6h1nAK6FI+reVMNbloZCYwz1shN0bsyrKvlRDt+tefX0vb7Pm5aRkKq8kxBXCg8AlU+X5Q+SD1JfJO2l2pATpDcaw5UOrXtPDfStDnsIPeE49r9yK0uXyHruDYTlGlsaAXqGrZoB9/9g4G8IoTnHdow4evrdnz1ZvTjgBJ1nJ5IWsvzXqCPr3lBnVT6pRiLUTp8BSjVD5vgf7nNrwaXFP0ZyLfnM5kOAla1KavO2N23jXyAAjqQcSNLn3ZRDtTzYG43GmoPrP9DyIglVtEUwDtzU4PheHHNZlXYR6Y2GfDDeBHcgB6lbRtrKLkRAaBzG1KbsYLHtMRGPokryTy5uFfK2+2iTeB9slmf5g2okvIAGQ05OQkiHz6/saido/zTQTlhqSGnt7gPcS98UAqAXgAy5RpmnIVHaFTgnR9IazY2RBADd4mlBPr/yEXVM7Ws6xhytGkrPfb6ga3rhpSsr+tpGQ+W//tHC5JbWwAT09UK4aCPTv4HqBl7E2Y9Qr6cdqd5JPlStjCnUMfVdNbrxH4VD/oSa/yHGb4G2/Hdu9ARgroC3Ug9Xz6afplYgXGJ9Vjla8/PaSrSAXQYPAArynRuFC1rs6TFwaP17aqemH1Sur1Tf24LS31XjmCpdmerVAUerZwacpg8zxit2dW0eUHs1fqnOrXpC7b7mG31IAatSxDc87HfcDxVesnLV1p4UkPHSbsM+CfNwDUiAUUyk+L+049X/IOSVIa8C8SJJ0hPWnyEV15fepvbCQU9vDLTXjYBxY05W0RxhhnthQ5JLrENAJ/9zt02Cpw6tlnkkKx/POEc9l36SDhWi9xHXc0+8ASY0fKyuLLsHoUo/aK8jtGdMw/xndtrqRbKeZTFuCwjQmleWmbM3QhxpAZ7Ac59u/3fmXK0+hRdgV2dmV2coc/pMrH9bnVX1FPL8LAzt/8wHYzsfGJY5rarR98U4KbXb55YMwz9Gpg8aq6zgP0HSHE454NuE3dTMzAv0OmjDHkovyp7IBWmQGS8rn6ZOr3oWiaEbiMESyzL+vabV+0JveYTMmzrGE5tWPyrGbZ6IM2E/bPw5OBe8WNOwzDmVSGfwFZIRvmI2+b6Xks/dW4bYK1zl2QNRDtw5AQQOdAgnF5XQcMjCzKOcRoTOzjKD5hM5GYnfGqfM0wemtC2DgBAAPcSdzGhFXf5oZMX/PZyWjsfijl8Ga/ZjmeeoV9OO0S7uVBSPgrvb5PIH1YjWxTz0GBr3tsLmlmNnft3b7k09HJIqnZEbB6Z3D6S9uxDXggeASuOGT5d/KoO0/JP9X99mz0P9wIaP1JSKGWrntd8je5yP+V39SB7TivwI2HdVLA59D6VuXuOLxL3VXblXwrI/XlcI6G6jgk72+IyqZ3TuACYW0i4BtpYy2rDJB7Dgmc2P6QCYpGBdYrs3QULcnXOFmh87el3+gK4EGB5Sh9e9pc6rfAzWi0W0XrTh2p/BXe2W3LTET7b2Da0SFtOA6T0Wh/zvMf6xVI6WIrxjfuwonXNhOdb23PixOuxifeTPxuZvfBMIgBIhADaGk/y95wgwpAX5Jc6DW/4f8IwOQt0Pgx4/3MtYpeRn/Pw5bntVjXAgEpLdadzrwgRAe1iLEADdAVK+02cRoNU0xmq+yLKsaxniSPLsFcg3D8LIwfNhYy3s9j+x/l11RvVTanTzfHhD6nw6ayEzfWTazvTsJv+nhij/G4Nyi/xdE0AZg0ZqAsBRx0FOMys8WVoWWOEdrI1BzMW0EgYUendGQgh1HgiNY5eX3wcC4JmQ7NbLBECohGUOSlha52HdnQPFdBBE0I4CJ8R4VYKz4mmXZTyYeXHR8r5mnNsikx/lTUvvHTzINgNn45k/Gw/4UHz9V0I9MGZp72cN07ond/LKhVFeXj7eiwgIAdBDMFkuzd8WcywS+/0OYI5jTBQZ8RlZk9X3CTutU5Lojn5xxYPqkPr3ddk5PBirkZzuP8EW47H8a4vr+orl+DkQGvtUDRrhmEEkelEn4ZUJwdhcEDdKvTDgRO3ZQEtwOMleV/Bl+SsgEN+rTq55njH4VP6R8V0txBgX4RdUkDF2xb8H4z2Tlvx3cM0Hsi5GOMGobseZk3QY1rZMXVQ+U7sX8gDBRuPDfaqxiRfhwiUgAOqREbAV9882HWNn9CUffXC1gtx4JfVYNSP7Yi3MbGhsvM+Q1uWa3DgSbux6LjEuOA3cERc0n0+5dHVdD5fUFv06mf7hGXn7GpbxRxz0+5MdD+CMbDNiUE0hXmd7fhe5LegRsBpJFzeE1foGMr7p+5AHALwpxANgi073Nn9zCn2lmblHIZXFHzHY8dgUdOwqia21Zrwq8+aqzxL3US+nHafzmHRHcBUCYJtfRv1+gCvvRI6j2OBUnAnn4PyMYYLje3Iuh0HgBH0ubKhR+adyR6+8M6ue1sl92z1l1kLZ+sQxzRnuYMtHmb3o5t3vJ6z3ATCKpufnWobxOxBA5+LyqdwrSZrSi6rGPUATAG+lTERI5x6/yQcVSXc0AVAGAqB6kxAARs2TwxKbG1uPgTx4JSxAO+EccJHI4lkQG2yBrLoWHqZBslIfQja8Jc8X+7m4qUcyc798JlQK3TzKNmx4kOK8hZGNGDPclpW+QqGzOGaVmo88En/Ju7To1ejuIJ/uTQSEAOgBmhQuKzMHFgaUfS02jTO4KRZ789VT6Weo5wacjGR12euunoz49xNrX1QXVDysY9JNA8HoynkJpVRuyUktndtXXEWXIQYcSViOwZl9jWEY47BJmvRoYJzfG6lH6rj7jSl9dO3+fcmt2hUfCywAgWEuknDNtG31g2WaOwdt5yJswry2wZCCJzLOUm+kHaFq4C3R3RaL+P5DYV24DAwyBQwm44LSz+xCbyAt8Rdw6yrzm6ol1jQ9fidwGPp0HsY4jEw2iYfH4bFBIoLJCTfmDpyCcoWnVD+nzqt6TM8lWhG+NBN5ax7Ju6y0qLtj6CvfK703BwyueSYspqcw2RPmKhaCn2Zxic3ymMEIb5kEC9CxemPfGF6dxyUEQF+Z6f7Rj8qZ+cMCfuN8uAKdgD2tAGuZ3j/r4nyYB2R69hT1AsICGrCeo21CAESLmHx+a0Og6L7s/U3D9Xf0ez96fs2J30ndkXuN+jxp7w3u/1T+GQ54MPL3nAHlf2zzj+1J3nQy5E/hE/yQz/R8OHTycu3zLa3vIlD+eFa83eo+FHIVEl2r3WDFTYRHpyu8AKjo0TjwaOZ52qvKt57w0PWNMOQBEAoB6G0PABo2hmXl7wzF/zrIg0fSU7cS4Y1MYl0CmX2Hpp90taf20IPvIPvcHuPzvjFAklFGvCB1mEjOoLGOHbwMXzoOz3dqsxFnfJK0n/oWVcImwFNuv8bPwtergSvu7x+uKHp06jZSQStioPrQB4UA6MFkkO0yY+xDIFTCXdrYo83wWLMSd1X3ZV+CpGl7/sqllIludlv7LZIBPqD2bvwcyeyQ5MSA5dhGyShv63+36wMlARnOUFRTMAol+67ABgjrv5FGN9nX0o5CzOwp2kIWids34/uuLrtL5fjKiC6zuTwF5fg2GJJrbNuaDKFgMt4roLL9BrIIkwBYFDuyR/Fj3LgnA9uzq54M51mohAfAM7D4P5KXlrIg7JpfNr2w0FYB9EGdi7/n1KAPLww4ST2ReXbEFm1WEzgMZMOUivtBNsynVlwFJfnpoKGmFUwpXtKDJdUnvkp3z0T3muEBx3UwSP49oCvlMXEzWPFsaE1JfsOymP15WvalagFCAzZGCAkB0Cemtd92gus5zt2M+tXmYTA97AqrI5hZIxXrGbGJKgmWCIN73F05V+qyZtG2A6HcXIUcAL8keZUcANFiKJ/vuwg4HylX8cL8S7H3M5FmAb326A04M/NCtQKu3xtqVP4PaPxEh+Xt1DQnXEGHLpCfw/jxcKxtfbC1e8313Znr3Z7R4LUyozAzxuXf17HNgxDLORx7aRo8KzMgT6XDEOBlqOBDMA68nXpYxIkhw70kAXBF2TR1mvYA0JbiXskBwASWFdOzMmzTfQECUKfguoNaYPX/Bp4Kj4CsqIBX40k1L6pja1/Viavx+bmIV78zPtb9Sur5K+t7F8Vt92orphVme4zA2Ui4eyHWxVDIhdZ38eNhLLoAWO+uriy9R02qfDgMwBrIlr/Lubh4pq7ILW2LICAEQDdhZ6K8knvy8ky3cRn+eT60wCwmTHueyiQUWsZId26Z/krNgp+JDY7KMRThFkzAU8gYfduDyBi9pZmwFXcWpnhigkzccQUeyh0QzmB9jQf3kczztVsXXb021kh0XFd6h656wKz7aGuQAOSmWK85vbnZlwhX3L/hPXpLxNHdnlmESQLQktzdRisDsf1j8c3qhNqXmCgQe7izEMTM/5lr/C91TOZSOmPQzk4weB3GdyRr3LMKAfvwfspBEY2PfWQlggOQ+IvuauOadYnaarye9VjOPRnbSCk7JsvJzFk7wGf7s7G+Uw3HHAUy5XiMc09CwMQ/zJnAfBCRkEId51Y8ALq70uV73UVg3nPKk9yQl4nkQyCx7GSUtxwJUhL7kMH1bP4I99Wb8/+gPkbZ1mibEADRIiaf35oQqHykMDvQGvgHzsuzqeQxCe+duVfrfEDrq9zD8ZGU36/hU7h0P6t2Qd4XEuc4d9dAdvoS/3gkMdZ+P/GcklqJs956VoMmAQalJJltMblu2z0AMhay6TsHQmY8GgJtbjkMRs9knK6ezDgTJZZ/8YCNZIQhAuBeEAD0AOg9AkATwK62w0A4XQuud09U6fKs8gxST2WcoT1bWXbwXHhznoSE1UIARDJTv/2MLh/dFmGexnMAACAASURBVDgAf7kCzzd/xtGzjrnQ/pt+qqpCjp0/F9+kLi2fHv6yEADdg7pXvyUEQDfhdJ4b4ymprd/XsBlb6hwQMF0uxkDdB1fSj5In/KY8HW/DDPb7gw2ncjweyfG8KImHNhcb6P+1+GNfQaZT/caWaNzYS3LzhplB43oc9KfgoE8q8haop7GZv4g4Px76kbh6MxEfH/RzKx8P1/ZFwg/1x5yK4kcq8gYVBIP2TVDYT6JLOYXuW/N+h5wJ+8P63/3kfyQdhrYsV38s+TcyDL/DsAM/DqRvMC83glj5sCOxUjJt0F7KtP+Avx3MTepDzBVjGX+I3zHiJGCsKnAY7kNvjtEt8ABQqhhdeAihTQ9tCyEAndcf8DPPHZA7wuM2L8e8nQF8U2n5uRsW05cRBhBt8jQhALbEEy73DCOgQ7dyCgYjM+hfkSD0TOx3rmKENv2z4C/qtdSjogYqRADcDQ+AH9vLvIoHQNQgyhf6LAKI/T7ANJx/wHV6H5K9LMF7O9z/v0zca719pgv3Po1fqFOr/6t2h+cjz0yc+ygFZHyFn481K+97Q6cso+ccHj9pWyMCtKwX35GfCrvQ8ZAJroFsMIZhADSCPZB1kaL8GE3bVARA+T35O9gug2WNj4Osncw+MtyThi0mgaUxTgiAaGbq159l3rB9aweORJL/C0GwnIwnOhfGQ5PGIa4DGouYd+cvxf8nBED3Yd4k3xQCoBuwcuNbend2eqzbuhj/nAIQ81leisLjw1nn60Ry61OWC9qKUBLwUbCNL8BVvQ65AJwm1NR9ABvT7QWXFJd0ozu98hXN4PmC+zm28xeMZx+EM5i0/k9HOAN/RqrkkUElAXAKEgCi8XAvQSmX67MvLnpWx5a7rH9CkDgV576bmbgpSJAwifT6XQ2WieTofnt96e2IMfqUH2nBYfQhyvP9K39KyVcdv1N8X94epmlcj54dis4lfJR8gLo3+3KdsDGSPlBeyfaV6zJGp9X8V/8bDZlMjVt9rdb/Bl+zbbqMrZwxKMdlBy5D3B/WvMpgFQh6ADDXBStERNOEAIgGLfnspkCgaGZ+muVXN2APYLJTF6sA/D3/r9oiFG07CATAlUIARAubfH4rQMCZodxlwYGXIanX9ZALcukFSKMAs/+TNOuq0Xq715ovdZ4clstNBhnQrvx/7Rj2E56g+92MqpWVhsT+bgUrYMNdpNzoag4cYVrGX+A2vzOTYP9vwPE6PJAllaNpYQKAHiPtyZV7HAJQdnd2hnK7pyBc4WKQTXl+5TIY5kXFlCQAw1kokwsBEM1M/fqz5dOzMh3Dg9LRahL0mO2ZaHcBMGYoCJNCNriStT4kBED3Md5U3xQCoBvI6oQi6fnjDRPKsmEchlgXD5PZcVN5K3Wiri+9vsbst4fXvQ3r8f2wHi/QXgFQHr9AIPWNuZetfn9LMeKs/45sLmdAab4ST+sIxsYzydujmecqJgGMtOX5StSfiv+tjq99mV9hyb8Flmn/KXtK6WtUIj3Kvh5xWOeBG0hlmMSjGedB6D5el+HqbiOGe0DQuLbsTi1w6LrCjnoXh9JNORcXzep43eL788Zh0V8FEuI4vJ/KZDXM/s/kNSxfs7HGko4Ubi6qmIl7fQsvDh/yGKlvMW9/LzWKP9hlMuvJbnsNpSHTHce8FILcpYiZzmJuiLvhOfFM+ulCAGx7073Nj0gntGry3AhPoauwX7jqXSnqxvy/IdfJyVGP/aCGD3QOgLHiARA1dvKFvo1A8d15+TDe/d0xzLPQU3c5Sr/dlnudrgLTFWFOxY1nMQ0ALMnLhLmodgTff+cb5BB4wh8w3y2oKSoX5b9vz3ukvXNmjHeXqPJDUTaaZOquXBMvDThOGwdWegsjvYz+HAkAllM9DV4jvUEALPv3kGRPsu8oynuISR8P67RJOZMkL0MU2D8qpkIARDVNv/rwkrvTkuJd8QfahnORqYx98JwnNphJBtcA8yss9w5ZlyNKCIDu47ypvikEQDeQXfjQyMT41qYLLFNdiU1vCFlEKpAPZl6kXYo2VkpqWOsyJKyboY6pe027xqHVgjm7wx/jnjZ4CyQdoUdDyYN5eUYAlnHE+VExZm3Xh5C8g7V+mawv0lbYtlLH4h9d9zrj/eBlq+bQ1RbJ8d7WJINhI7u8uoIkA4mSz5L2UY9nnK1mJ+zSZdhEJPdl7e19kV30aljhmMkVbS3ivd5Stn1z7qVl+o1wK5mWW6AME65KahIWfx49N0jaPA1Fdn7s6PUqs7T8U/kf2bJIH1AkcQYEakg21BuO8UrQce4ouLT4J9xnm3RpDFlMjUuQSf0KDDqLBykP+SfTzxQCIJJFKp/pUwjQcuVpDdwIj5ZrsPe6uRdNLfibejb9tKj7KQRA1JDJF7YSBEruG3iwMoLI/m/sSTdeJvO6Peca/bNzoyxDd/+T4d3IEq9MAIhqR03wxpuNKjxPegz11oABxeV9peLRVjIFfbqb2hiWnX8wFGzspWo3hojQcPQfhAeuQLWgaFpvEgChcnTOgYj3vxIy2j7oR1yzFae+SNwbySsnISv9rusILCEAopmlXz5bfmtWfCDBtTuMaedD1j8Uf0lvhus/kysy9p+J0JtQajfchADoHs6b8ltCAESJLuNHV2cP3A71Qv+KQ/F4W5leWrJZFo3x0FQoN9aYdIQhAFMqHlBUmJF138YD9DYqkP694PJimLA3b3vuZGXtcWDBKEs5LPNzDLN3sswPFTwq6JG4xod7PLx1KWLxb1YToSBjcQWhDs9Gnd+/5k1Z/R6TsXhdTbtZpnUN3j8M2MXRovAhYoXoKkTXrFp3WlT3431JAOyPZEOMw90ZNebRmEHmdTgg3Jp3SemcjmjqgyHOORIHw7V4fzz64Cnx5OlkduzHkpjhOitsR7d2JjPM9ZWihNFPqODwhdpnzRcq31fMeWvFOL43lflA0A6+nn95CRiBbbORvHGbyKDr2CS9skkK3UUCAAkvN5QIqis0JARg21wjW9Oo5iGHS2pt41S4rf4O69lNQWXqwL+BCGR+0uiaEADR4SWf3joQ4Hkd72m7DHv+72EpzeI+/wg89mZmX4gEb1m/GgQT/O3aNEudXP2CPh/T/LWos4lsuY7zPcj2Jw3beTM3o7RUlP+tY+4j7SXjv/euHXggRNh/QIbdnRWBaDS6M+dqlAseEull9Od6iwBwnjvZKq/5CrKduhpC6FGQ0RLZr5/id1CPZZyj3ks5WNVZv8jpQgBENU36ww72hnJ36zi4+J4LPehovJULPUHn9WISyPeTD9KyPOTrdRcXAiB6nDf1N4QAiBJh7fIUKD/dMA0kkoMXP2KeqCQzVv67+J0jLonGeriXIYv8wQ3vI1u+zv1XitdN1lr/Ix2z1kfZvW59nGMqC1Tt7pjBqXiYD+KYWLuTyfGYwCOS5H/hG49qWah+X3KLOrT+Pb5FAuAbEAB/y5+y+gNWTlhxV2am1+s5GUI3S/GNQvI/qxLCBD0naIH/BvVCmZAvmqoAmgBA7P9VpesIgEZc/xW3S92WdVHxjx1BYR+K78sfioPhbORfQJ17Yyj64K5ypetShAviRil6PzAEIgA2m1b/VLimDW1dDnJhjiZs6J7mdgJ+XGMxrve45bKez0petXpbFm5YIcIbY6OEjn0VCQASXXdlX6HLJwoB0K3HTr60BRGYjT0vO1h5I/YATQAwtnnqwBvUU0IAbMFZkVv3JQTKpmejZK51A87Is0CYu8o92eqWvOt19n96A4Qbq+LsAs87Wv7piUfPOJDjLP87B/l2nnRU8I2c1NKSbfl87Evztjn7QoNYaebAA5Vh/wP33YOK9qsgAO7YggRA5cz8YQG/AVnFOYOlnim/koygYvpK6tGK67ijYioEQHQrxpl6gGt12vIRbjcT6FKGVoWoquMixs+iXPhraUcrVgDoXB5aCIDocN4cnxYCIEqU6UJuWMafbRuu8oYZXwlr8cOIdaHraDRx7FQiWbP+gspHdCI5UzkB23FedBnmP7MvKfo5ym716OM6kUtT4EDTVH/BXrlXKEvqYer+rIu1QhxNY16D35fcqg5ZRwAYXyF+8Ib8S1Z9yOuQbKiwK0eiUN8Zhmkfj3jyITZyKLQaMcBvgN48WEZxfQmGuuoLCYD9IHiQABiPckNY1A2I93rJMpw7sidrt/xftfYKDqNwCpyCHA4n4PNDsYG520wPSgHGqyYrHjVsk3R5O1Y1SIB1g0RASPHXIf5M3LAC330B43i60sxctMvk77bJ2P8wcLUzhiS32gGGAFyF97LJoNND5HEhAKJ5POSzfQQBIQD6yERIN/osAqX350+0bWcqzjlt2f00cV+U/7sGVQB2Xtdnnos7gRg/BZZ/VjhK91fT8t8KYnwuLMJPGm73azlJK4pF+e+z09yjjvU1AkAnmjZdZyIE9BwMbBheFhMWvzDgRPV8+kmK5f86K6ZCAES+BD6C8j80Z9kgK+CcCM+eMw1Tbcekf/QIIvHDChBLYod3WRpaCIDIcd5cnxQCIAqk9WaXnXu0csz/h6+Nh8uLwcOQihBjizpvLBu6NGPKmSTnirJp+icVSxy0K2zbvrElEPvs5iwJyFgeX6znaMtyfo8+7xSuaMAcAKxoEE3bDh4AfwABcGj9u/waPABAAARBAFwRIgDQDLjhx7jj1TAwHsfAunAKBo5NxPGQQPkvGES6adEtP9JG7Fhy6Oqyu2CJmM0g/Abc5iXHRFx+FwQAr0sSoKKmcQQ6eBJ+ZX374WAOYujuQMaYeRzIErPCAP/V3viPWgg3IGic9/D+O22xLctqfPVN22ryv/DAhQCIdDXK57YGBIQA2BpmSfq4pRCgG3VJ3ZdXmI75RyTKzCIZfn/2ZJ3oOJwTiKFxrL7DhH8TGj7WNdRxJsKd0fjZcewnLcP98sKKlcUTpmrCXNo2iEBfIgBWTC8s9BiBU1mqGFBvB+XGQ1mWobn07KJi2tFzJTwdQgBEtjAx167ijPxCJNc+DvL6qfjWGLxiiTFd/p9NP1X9GD8WRrS4Li8oBEBkOG/OTwkBEAXaOhN60PwDTrkLoSimNFjJOpsoM+WTZYy20VXuwoqHtCcAE+bgmgHonQ9btnlz1qWrl0d7ve5+fuHN6YmJSbEnwwPhOtNQo2mJZ5ZfKuLRZnId0bIYBMAtamL9O+xOVwSA7qYOpXDKR2PMl4AEOBFvpdPq/1TGGZoEYJb5SBsJgL1AolxT+h+169pZEREA4T6UqbKhpm3tBQllN7DGY6HrD4P+zwCxsI8j+ARkMXaMGvSzCMLQD3T9B2nRhOgmLzBLcCyn0XbMBY5t/DTo0tWYyG2vCQGw7c1pfx6READ9efZl7BtDoPzxsfHBtbU3wMp3FRUpKk7M6v1m6hHtxHhAu/of2PCRVv4zA5VU/n2s+oPXU8GA8b9ltUWrRPnfGNJb99/7AgHAsM7Vjwwc7PYHT0M2rdOwXkcAVS/zurybejA8dCepn1DtiSRWV00IgI2vQecj5SpZkjfEdIwTUMXrFHxjOxrM1piJxheJe+nwim8TdtUV0NYXMiwEwMZx3tyfEAIgCsTLp+cdGFTGVIC2N+LGzQWxo5Dt9Cr1fspB691cNnR5WpYPrn8fXgD3qh3BpGtLs2PMQ0mNv+ZXFL+yuUrlsJRHrDv2dCi4V/PBrnRnwJXnZE1uMMFhNG1Yy1JNABxR/9YGCQD+sebBvPxWn3EhBn4Bfi1g7D2zh76UdlxU4RQkAPZY87UmAJiFOBIPgPCYyGpWZWTEKMubA9PFDvDCGIOERQU4VAbgM7EsYIz/B/B+AGEfzfjZiL8lgCwoxH3yQQIkYMPD+873dtB5Bl4gH2wqEoCHbUV8VqyR4iT4fJ5E07QTDZeVAC8Fr+03gkjI0uZDX7wub63Z2FSTdX1FM9Zqr1Ql2FIEwJdI2pgb35pi2rEDQCel4RlxA+sW22+udVvWmoARaGyoTlkzZuo8XzTrdFN/9jlY0PZr/TTGXBOb2BYIJAYtKxElMBP86L9lIuec5atvC/jrC4PJderKpb7emqdNPa4NXZ+CmHq00Fvtc1Kb/U6aywgk4y2vYxpNLuWqbGj01qCKRtPm2tc21NetnQCYN3WMJympIcGKt7EXuZDkCpKY35cAz6WAx3Dqgi67PibYWp+aWrd2S7lfM1FUdXzbgOagkWoG7Xjsq/FBA3SpAyORaTW6zGBjo8tXN/KCalRt+fU+xco0q+8bmILnvcAwzQwkGfMYltNq22ZVrKdlVcakaiZ67fetctqYhICrLi0YNFNMrAHTsl0ou9voc+KqnOTWmvyTi1u7U1qYyXKtGOOvkEiuxX7rpTccc+QUe/OBuaPLFzPr/6C21WG3fwov1fjjx5i7F7FX/xA0raqBo4asMSZ8vEU8ABw8I1UZlWktVmyaWzlxqNSTgNwEroCFtDVBs9FluBoD7kBjRTBrTecQPiZGPuSIwsRWv50XDBpZPGODpuNDaGFlYtAsTq5c3dAX9rEt/QBsaQKA9y9JzxuGsNwzsM5Pwt5Cl1UvSzp/lryPJq1mx++ywUpFfYkA+OijA1w7LVieuMaxByC3VBIesxjHFfCaAceNfBqBoLLa4KKKZala3UHXmipfU83Y30HO67R/9ua6mD1DuXNV7lDDMU8BvszfNZwYU9n/JmE3hFacDA/ovRRL6W4oX9jmJAB4flQ/NDIh2Nyajmc8yQg68ZZpxAQQa20Z5lo7EGz0W+7GmMbWxqymipbOzzIToMaqlgyYAfOxrybj7MHWYTR5Le/yH0uWlm8rxKYQABE+KSz9lxxYcy0EkMvxlXSyiy+mn6gezLoQtS6jK3fS8ZaM/7+8fJouLcd4OizcVrzuxuH5n8LJq8oi7F5UH6u6N2+EzzB3MkwnCw+0F3H4MUiGtSMSeuwLy3YGre+0wtMaH00sPjsxpGW5JgCOqn+DsfjIHWSsgmL6nmGrpZ07ic0iBRvXrnC635UeFXTRYpbh19KOiqr0IIWR3dd+o64FAUAiAK0VN4cbovEZahD/BkPTQsfQM90fsB70+UcfQQ+bwEHFBW0n0TJUMiSaOPwOoz+UGOUk43PJ6G8KGAHWNoFMob0E8BFlh0gH9bZjOPfkGSWzjcmqV3IC6MoJ3rZ81NkdhZJKQyFkpaM/SehVIsiIRNw3Efdn/4LoWysEtWb0pg7vl2N+yzC0lW6/tWiN4y7tSVjJ5iIA1HxIkTmDsqAo76AP86CTCdmTZAxrUQ4A9m7TVi0YF+pnOmvwtzpM0DLDcv1kOP7Fn6eW1p1yii4/udkbPITiUM4j32VbI9H/IaiqoecKfU1CXxOxfhLRf66ZZrzqMG91eEIwV06Zx2XNawmqeT0lj+hZU5xa4aKY3hutuFipivjiwPjJ8E5aD5k0FULYZZgzn+Nsj/kaBwKzEA9FKp8XjDcG/WCt00qUy6zAulzeFrC/dweMxQXXFjNR2BZpWxsBQEJp37Vz0tpa/MPdln8ktq08R5nJeEbw/DswuxjYD/BTGUxOWo/Y7dD6Mu1qO2guV0iCHfC6ilBmtnVTAU5hvC5nSKI/6BsUNNUwzP1QrG8yyHh2jXjsl/FY66ieq5rxNyRqdRqxTqocx1wRUMYiKxhcmHd5SS3XWfEDeSPwnB+F9bKbYRuZIJGw3zpteNZLMN6Pg0HrnYIrisq2JHFGN/mV82e5XaMDRm89b0vLi+1htbAnTP0l7uw35yae8VW+6nyXKzAG5fXGIhfRQLjc41wykrAuXBpXZVQCq3LgsxR5W75rDsStjGb/J5lXOiP/AmCOcEejkH2gF0A4zBHnKrnxjiFyNu7fiPdW4u1V+HgVPsD9DRkB7ZU4m+a2eTwrN+X6Yx+rHkpPNINxA6EgDYF33jBgwb4P4NqDnIH1p83ALdiLGvG8MFlwHdwUVwK3BbFKLRlgZlV+XPadMwyuzhD6DzZtc0+c6XjWjBiMDTYCpxJemqjU5LxdqkqXdQ794zOwNG2Ye1h26y/pz3v4wC1NiLHnrF0a6OpcYzWT0chY1MNb/PrrGcV+Y0JkYRtbkgBgPPqQ9OUjEboKl3/nRKx1CuIeKqYfJx+gSxQzRJdJrTfUOhMA+OyPOLvugYHhjfTUYH1X3/2urjjQG2GflO8ssyk71rQKwZIVQKbLskwnEw9TBp6xJFrZIYfGoD9ctzyDWyFstmLfbIHkugbPeAWesSIXvFODruBqMzZYlH1ORVNvrQcHhETZ/BXDlWWf4dgOLf9D0CcXMf4apUBpKPwKZf8YBrCxZOGdCQBc68/1dvKjozMafiOvrWxyOStXrQxA0ebfIjZiLZ0+NDPW3TIcJruhUNiH4iHMRUZS7IsqHq8YeOrCgcFpwvOPPGFOIzCuwGsJiPMFcYHmlWm1tWthEIwLKPdeyF12CG49EvtrCvpAVYByzEKM/22vL+bLAVcubewtnLfUdYQAiBD51dMKdnWZzj+wEg+FkmWwxilj/19PPTLqLOgdb0mr/3G1ryCB3V1qWOsy/onk1ZcQ7v4WTpwXYRcj+ljZAwW74gngwb4PhLBMPAhefBHPABRgQ/HfZrk7Gy49p6lnkNgwmlh8dqCwdaUuA3h0Harw8cLYtCArtNGC3kUHcXvHwyQivC/LADLvwJsph2s2MdJGAoCu/9eW3qlDAbRkAkFYH9gOdPuuWni30hKkA14Q3+KRHZJrIA9ogkA/H7wYBCrswfgc+hl+n3kCwMhqzw1YCLhJIeGgfVe843oppQehAKytOyIjNwck0Ggo/WPQie0hBI+GgFWIeUto7yn6E+pLWNKgq4L+X2jDJAHRQAIGf1+M3s1D3+agw3O7U65wUxMAYGRuwnNViSHsCMYVQpfaFWtyKBJTJmL9aKKF48U8YErxzi/jRB5GKpcIyzDVz6btfItyml99mV1StjmIAB7gCe5AjmMHtkOftQcJ4GfmTCo+8A7BAuHztW6uQv3nCDRBhjAZCMe1GM8CzBFLgH4NKmduQdYeFcYpz0dEZFROy0jwu91jzYC1E5Z7FrYnt5bPe6Ohn5psMexFcYb32/dTl5d0xLVyWmF2wAzsiRHuB7KD2cHofpmsn5N2co0xNPidFkI/PlOBJ+lzWCxfdtveL7Nrl9ZsCUva1kAAEPiVjxYmewNtsL64dsC+vQOUmlF4nolxBgRBeMO071Maa/ymH358sh1zvNOM6xTh9zl482t86FtXXGBprwqJ7f202oIModoP5+Q43BNkpWIilwS89DOAzun/d3x+8Qb3qUoskKUYws+QcL9z2Qo1Vu3DkYjlNDwkuXgfz74eHC6rWDLnZzxQDzUFAq8Mv7K8qjeWeTTXKJqZnwaL0ji4w45FjzLQs19S4kdzoS4+i60B3mZmfdC2F4C4mVOQVYR94BdCEyQjlH3rIKC4N76+fTvOxDi8x+glAKyCePmAFwmTT5Rtvtzicn8zdPJyEtURtXYS5pJQTLWRGcGX+JzzILTb9zauwzb2AdLzD4Zhf42+f+P1eRenXbF0TW9aLWvuHpbkN1tH2aaxN5AYj4eAVsoCAAHyFcdz6JzU6w8KQMg4EXpGIJcY1djflgE1hPE530EYKAVNtQf+egJew9BPD7/fvv5I9heDZH8EuD6eW4XqBiBr4DGRZnntXRyXOQ77dypWbK8RAFBkcE+nAT3+yWUHZuVgzRfDiIOnanfLMAbTUBHB3ET+EQcESRDrxmN+VVuauGRD3nVbigDgmddqxewMVvAkLLgjMD0DMR/uBleyLuf8RPpZuoJVq0mRdsOtCwKgEpM9C8tjCVaKLtHVuWFO1uIZXewynK/yLivl/hpx00m32wIFOKRHwnNrO+zpI3BYDoZQAAIAZJUBz1Nya1Q6uWKxwdAKhYb/atmB65c/sLwNht2AZMN8Oc4KrO252DdmQSadl1ddUteTs5VeZqmZa3ZQRvB03JF5sgZRnqHy/1Xinuo5WP6/SthDEfNIxI2OBACu48Om/iEG8GNIXv91w7j4fDYHg84KyMCzN0ZgVt1TkOu31G54TvD8qx1wxcG4aBbw0/pNWBbhXYhbCDu9B9AYU4zvLcEh9SPewzlpwHPROQVj2gffT9AxTyGmGfQBjU/qS3zx3w9VFn8G40fX+kXEq2HLfrB3hMQtO4ZNfncmjCutrbsSa/93WDpZbdCZ30As3PScS1C6Lros+V11trBtlfpd6W3quJpXws8CFYJbkGPnQVjJantrgKvvLhjq8trXIY/B6dhVyC6GlN1OjQTAU4jpYWWDaHMbDIRL4J+Kb1bH1L0adbcZUjEza5J6K3UiOG3qEJE1EgBM/nedJgC+jOxL3fwULSBVSFa4CGTFMu9QlQKCmF4HuT5UcXTUClx2hseyHs/ohvcGD9PirPwcLdw56gBsPuNwPQjSBtkQEjRdztcGhhLe5ChAIHmhsRBq9Ge49kdBx5oTjbV50xIAxmwcgh9jdGkQFHcG2TEEBx29LNaRLRuZLi3wYmOG54exGBPxumGbrwZb7fmbyspMkmZkam6u47L2hmS5P6xsYzFPtEAwf0S0c8X+k8igRWoJMPgGVvT34Kv2VcGFG37+HSTwLEt0HwbB9TyIuLsCN/rh9ZrwSdyx7GA1dri2X4Jk/3R+efEytdswd3lx21iQLRAM7In4DJNoMmQmRKatv/HwhaVQ/Qg25zVE17xRWz5g6eYO4ejrBAAtmf6AZ1zANiZAMNkFz+5orLMcaHnw9gkp1JFsYVSyNF0W8iwrwc+5cIX82AmYH+ZkrFoG5bJHoTM8G8trGnbEupgItQ8eZPo5oLeOJoAikgzbyQoq91j7K/CzHOOE9VaTaF2NkyEDbyvL/HfuRau/iwSH3vpM2cPZGUGfpckJ9HUn9DGFgnpvXR/X4V5AC95iwPecMoMv5pSVFjdkDkxusgNUMI80HecwPGLcayLZZyigNgDPb8AsPN/S4rzzTGNx2cYEVwr/RwHT0wAAIABJREFUKWlrxxjuwEW418m4RnoPxsg+gOiBRwIS6EKR+VQFzTcWVq9e1FNXWoYqGHHOCIjmB4JgmIDlQvIpCxhGgk14SHw+yAvg/HCgzBlV+H4uOl2AnzROdG5k2Jjl+N/5A5K/bGxsSGhqU8iKjszzIIBxMZ5dvdsQNoM1j/PbeBL3WISAv6MxzonQCdFPo6s+dvv+PIswVyDlzI9h17g/v7p41voUyS1BAID8GGC5rQORMBuKKYkwgx6CFo1G7yUfjNDVs5CMbgeFJN0RYdAFARCSJ8AV8bDqquGBh7elWoWN+H/geh6PJGcXk22bya7hPluRXNodG+QYzOVA3CQF93Npdgr/6wZ5H1q/nDeSAQbycCgQGEH7w1h3zLdpUZB+4bHqHCCt1XsaQeMsdOtQ3CCbezGV/y+h/DPh3zfwAGC57kiUf163kwcAN/YAOr1eBZoEJr5WDEDexPQ+3RTw/NzZi6ns7uwM5bV2wzl5CPDcF3LYcEAYp3mTyPdl9oGvenxnOZ4p8DoGPdjWl9BgDY7Um/0x7mnwaOrSQySihdcHPhSRENEH+rlFu1A6bdAoxwz+C504noudLvJ35V6pXkg7UTVbPSdfmWn+nKondC6ALH8Fx8pQlbcDQeOfBZcX0yrYK630voLjsGEysc+OG7pgmSdHl+JjGADJgGjawNbV2gPg2G4QAD/HjUFIxUXq3ZRD9MYSaSMBMB51iK8rvUPt3Q0CgHOqrflQ7mnRp6sjSwK2GrHrSgLWuAYgLCFV5yZY7R2kFseOwDrIVLuumaUuqZihtm9mYQC1ChvHg4gVfLTgkmIK2xE3527lLYnN2wlb3kk45A/Fg8lkhLoqQfgi7B9DT5iFmYddIzZjurcF0V9iEIMQkqRgo8pENuYB/hpoCr8hrxn4UA9l4idscm+ZynytxMhYEkkJw01KAMAdE9s1wzY46d7wmDneeitFlSICrcYzQK21aOiCz3NgrUoJ1KvUYJ2OP2Ud6g4NaTpUOT72MejaZ9pU8+dDJ9dFbPWKZMJofQh6vLvA0nMsDm9Y40DShFj7dXPFNRSeK7rHrUHfW80YPVcezEsSSkpyjnL8ZYg56dB/qkzMNWHiADfUU24FN8SLV5Wvz1pWBs8kx1LXQ8s7En3v+Wa0PgBChtvVcIu7BWN+BXHZeyk7eBbeJQGSFh47nyM+uywLxGeF6zMxsAbjLFfpAcwVxtpO+NO7YQW+94DL7X4866IVeuPbXK2vEgDsV0GwqiDo2AcBqGMhaOxGYgzyzK/cfNtg2WIpTu5JtMAw83IrsOYOFoeypal4PjL8lSoNz4gHudnCDUsUnlGqBOvlXVzwaSPBP7s73gDaCPXksMTShub9EX97NtbBBLxHQfxXzwDXPkvlktBdi/KqfKbDJVXT/HUqI1Cl4tHfdUagkBcTm74OxzU3bqwq8+aokc2LtJcc9jXe/juErd2QXT7sXWPq5okxp1KcmNU4waWca9CBfTfp8xYKK5sNYfZORHfNMUxrAsI6TgMqOwIY7pPrcOZzxrrbxJqJzkhKM7SQe2OHMwC5AJzv8KUHAi7j9Q0Ri6sfSs91+bwH4bA4FvffB3vubzLy8j7hueVP7m06wzo67XZ8KhnnEElxzm/H9ccNHH0oh5LzJq79WE5s0SzjfCje3Wgr7ixMiY2197Ud+1SgsS+ujJrvDOX7pfH8oDxTj2eE5X39UAq9sKwkYU8K45Rg07M31NoJs3Xrj2NbGDNSr788X4ka0zxf5z5Ao7XwFniqvARvpv1BBv0V7+2OV2+SQb9GJfSQzIeMUYtx0vLUE1Jm44g7JKSNmX7Df8/gS8pXdvWFzUkAMNTs7Jzc/BjHOgqPx+n0OMMc6DOP88TS1U8gb9XPSPjXVbb/9Q24CwJg49iEVgjJ1VJMyr+bGlsf2+4PXeclYWigEbDGgNQ/AN+BhdoYiy/m0rOks/bM8xOJ9bSRiWNqxprls+WHE6Qb+j0rb/AVi3M0LVCLPf5Xz3i439xDmSNltmEaz5uW+U7WsFVFkYR1kHxY9cCgbLdjT8Q1kBfMgVVde/TpBH+fJ+2tDYOM/efv0bTOBEAk321/Hovg//Cg160ezphUBEtbqJXeO3iQbQVOwiycjL0NnpcIM+uwL5IAqvBkqipXhpYdKYvwEaK8SDk5zQ/8IJN4Wbgk3MIHUbsstzxmCNbTGNjNbMj48xQNnPT4xdp73GM6/8ycUrwkknH01c8IAbCRmaGkgeR/5yIm529YPYO5sXyStL/6T+5V6vv4nXptXqlA/r7kNnVQwwe8JpcfFEjjpjXuuCe2m7SoVxIeld6XfyEsNX/FpA/kON5POVhn7uSm07ExgcqCuO3U4pgR6y3psb6BJ0KxoTv+0LblUWNT7UpHttYdoGAXRMze8iZ8IDN9lWrnpu9Vnn/d/hC6vxYm4U+l/Xio//KNdlqXFC/epVCKpI505Nc/SQJQUKCQzc2XgmtI4U7SLwql/A4FAc7XpeX3d5sA4IZb/mj2oGCbNREMJln9PdBBWtD0IuB9eBCwHOO82NGKGxIFvnA/2EfOpQuHgwcbWYIW/ms1CVDYtkKNbl6ghrcuUcmBxnXlDLGpIh+SKoXS/T4Ujf/6zdivN+YaukkJgA4rhWOm295KhNh8nbA7xjxGC3AhJYexfEjAYDdhnGv0mAp9K9WYpnlqdMt8LXDG4nBkg3CJygzqExyAD8b41n4y4MraHsdrMd4yub6+EAsESr9xLG6zG170ztClIzlXVMiWxgxXP8Vvr5jUksQRiRquGc4V15YHSSvjMAaGF1L4GNf8oyawKLSTyGk/gziQBTjJX7Ss4MtrWxOWdhXDW3Rf/llQhP5CCzwtwzz0fCCvequxPxTgw6UwsXe8AEF7IfYRuF0624ctZFQIVoEYm5Owo36GV3kG6meGY46HsJIJZXRE62JdrpNzRaUP32dyzQ9xvTtyWpxPjc2YE6AvEgDLZgxJ9ji+PS3HOA7zTmFxEDYB5lDQ+xSSmakiT4FaAO8jJmSjd1YdMKZi0wKy0gesDQgqcU6LSoSAQ+EQSRfhHfWdGoGfJJ1+kW9UHXZ9uGAaT8R5rU9So7BkcM8qeyC3ALc6BvN3KtbdTphDbfXkXlSFfXxB3Cj0c7RiqByJ0rAABpdXLXBxTVAIy28rxnpYgP3zJySUW6Wf33AfuZa1Oy+E+hpUpjmz6hntWZYcQGQTwgDQ93/aac6rBadsnlwSdP23/OosmIqYGX8In3mOl/1sj77o8WOnnzco0BQ4cflqzP+7wJdhDrBuq1G0bPO+fK6Ye+i7hPF6rylBBR3uMyQYeS5xLxmLfWXvxi/VYJwDVBrw3bW46jumE7yrKVD27fArdTjFulZ188hEf8KacXB/Pwb3PRL3gTUtpFCH9zeuuZ+xJ8+PG60TBJOMbnQlIcYPe1u7HOFuTxCY5avAuluMc3mO2g5zzP2Oxo72DboeTr5fIJHtE3GxxvtJ55bQ03E99tbfwlrx4OAsfyBwOPoHC6VWvMkO635yz6X8Qo/CZTgvy3F+UFmhAuAHPl7sZ9x/KavkQ6knscQ9aWjrcv1eeP1xT6N8xGTIzE90aP17umJTjq+MWCJe07w1xnQ92xTwXQIC4A94U8ctthox2oDQW82L9cBnpgNxSrkd3shYB8C9N+/FPsfgXu3EERfhV4GgfcOgy0u0YNq5bQ4CwN3qfaE5u9XvVBnbw0x+PDa5o7FQdCI6YlCK+X07ZaJ6If0k7ZEbjfLP8VBuOBU5uI6ue0NXtthYY9Lp2GCLfk7bF/OjLlP9M2tykY7hDTeeMbn+2lzb9B2A8/k4yF27Y19HKE2IzA0bnkhSUVZYGjNUFUH2rYTSyueqAbImSV3uL5RL+exwLVDOi4G9hEaQHDzn+b5i/YyPaFmiS3GGZQhgxOTCK7Bu3kQCwf/6m9SPG/KIJMFyccagkcoKnIG8LCcC56HopIdnD/ffT5L2Uy8OOFF9F7+zPnOibUzSfV7VYxF9zQWMeUYQa2jbrI72EkD7V2Z5yU8qZ7xVEqgZg3y3p2OMx3MvxkURMhFyOFsZU6h+iN8R+stwLZPUukGkUP7Cc8lA3hjMXQKefxIAQ/DM89nfDucjja8dnjMtdz8/4CRdES0NxppJlY+o/Rs/0fjiNq8gnc2NeZesmhPRgProh4QA2MjElN6bg4RG1l+xwZ+Nj3qoiNybfZk+FKiE8aCOgUWPB8v6yoxEMve0ilxUMROvB8Hs6UpyVABeRMakm7PXU8s+kut2/EzJtNxLHdP8f5j0HCq2N+X9UZf685tdl0eJ9vp99fOhbQEObZirzuFGmhbA7hKpG1PHMfaUANAZbLMHI14pcC52uWNhYR2IHQohsBD2sfFT6JiLuqrzIUjz31SquBFHss64cdL6Mqh1ld7c6Kmwa9NsrYjxICF5jQOJFQ2+xnp4wvAG3s2+oLwa/+5SCNvUBADx5yZNhYFJZb7Gi2589EAhHl01ziUVSVpmuImzHBUVzPZ61BwILP/OW4iJm274nFk9CQegq6nptXdCFgK4HarD8KJ7ss6OvcaVCEFzqPoRiu88sMU8yFk+k4JoOGnW+p4NCuYFviItrO/Z+LUOJ6FQqg9xHHxYD8Wgqd5yAs5TkAPm5E4uXecuoIWvjNwpcP3/C+DL5Tp+N/lQJEDaXxMNvdFIHk1Aqa/BbSt1n6j7gXBgEB2tgibHRwvvNyBrPkieoOMuqSR0TrxEAiEVFl+uweNqX1b7Nn6uBRg0Jn17AhU07svLLKFLekR5D3o6tr5EAGgS8JHsdLqWQ1A8EyCTBGTySL1+6HHGZ+FHWMKp+C/HM0KvGHqfbWjfIub0uqCCs0vTd2r3Nd/AgjlPeweE9kR43ijknbDsJwxX8O0NPf8d8V45Y1COx3HOQ+K583EdxFoaLgrdNRBaKXhRUOQ6oDBLy/+GBHKeexRiB0MQo6LIZK4jsOboKcKx3pd9ia4xTSstz8Yzqp7VQjr6Pt9W9r9BTr2UeVnVLybcni6MDXy/+O68fMNjIH8OygDDPbzck60+TdpXE15U+nqjbdeyUJfQ5Z6Gxhh+lp9lotk0Wre5HkiQf5J0gL43CVJauTqfCS7s8ZkQaLmfnIDnjaR8yHLtrMQxOBPZbh9Nb/dSW7f+Wq0jcK/TcFDuAkZDe3NwTyExz32N4yT5RKWayj9JnQ2uP9yIVnYq1uNQ5Yj5ecY1/YA1WdO+lzA3kFoAofyxgKvtuYJJ1RtN6si+Vs4cnBm0/UcjDvs8jId5R2K5D9dB0Ge5ty8S91azQYws9w7R721oL6TAzzORniU7Yv3xOaEiRayIMxWe19KO1srYSTUvgOyfDtK2mATAavTlNrfT9rzf8F4NW8LVeE+XnnsVn5+FzPO91dinQxre1x4dHeUXzjndsbkO6A3UG43XZwJnnqVcLFgCTHr2p7wpRa90df1NTQDg3jej/MebvqAfoRXmuVgvB6IfWVgGFsfPs/b1tCMRNnq4nu9olX+OiRbhoZh/VrSgd8jGGj/HZ3QUSC2dUs4xXvMY5g2ZHZTB8sez4q1W9y7+IPJIKHUggGROlNiw0k/dYQkU1B8h3y2CNykV1WJPnrZWk+iNRB7lXHlsvy4hngvD10jsHbvhOd9p7Q+aFAiRfvqsrsJj/CrCZB6xW+zvu5KDOI+r0gft6LYCk0DqHo/v5BAHEkyUyd5NORQky2Ha87UFukN32g4geUkIRtIK0P/D6t9Vo2DAoiyLZ+sdy23/o7E5bnZyTMsoX1BdhL3qGOoyNHxwX1yFPelr5CT4PGkf7Fej152R67sf5WCS4nm416jmhWoHGGFJRA9rXaqNgZ8m74tQ6DPVHJxp3B+uRp62wzDvmgBw1NswgtwAT99vIxlPX/2MEAAbmBmtoGUOPBGxZRSw4bZjGLMSd1W35l6HjXcv/c3kYAMOtR+1kLYYSlokD+76brknDsjfld4OQe1bPriMSUESEudfTovxQk+Ul/D9+isBsKkePgoJB+NgpgcABWtMfsQhACw/WJYzaKwdDE6GAIQ4aiODa4fWW1ZeoBL8ETLZUsCjgkWLDxs3dG5cfIWssoYmn7gBrm/t8SBgnondsK72a/xUe0rQOthu1W3Bofo13Lrv97e63y28ZmVDVyTApiQAQkpOpvo8cR8okQdpKzKfp2gOc1oseLgcXvcOLDXv6gOdDH27i95TGOtDuemlS7ujYNKFD0DvjOf/AryOBj7pYU8FlsWiwEmvoPmwenKuOsYecp54YIQt6KEwE87Xr0kNHnK0gO4NAoPCBfcUWkihbNOdjy6zLyC52kOZRvZ8Y/J3usIEs5CXVn91Kebvz4zR47XvQWLSmZkX6HVE/CgkrY9AieS5YH8uL79PK2a/cpXDl3l9Kmkvpx6rPkqZANJj0EYzLlPYonA5qfJhtSMEFc4b+v4tXre41/rfzr6+9zIYb2h8fYUAoEJTcX9WhrI8RwWDNsqh6kSKsdrzB0L9T1D8qVDTErkKpBKtvGGPLQqf9PyxNLEZSm3GOeGr417ANUhFjHvU4XVv69rtDD3R1lgkNcLXvkRc+Qyfst4feOnq+vWRgMSTydZaXK2nIX/Dlej7aNzHIJlMIfZ9xN9+kryf9hwLhev80sIkbDh7PNckGciO/aRiSOFrSMsyTaqTRCOpRo8nurueV/mYOqvqqXCY3CL0+9ZYw/NCd2JcI1n7nT9T8nAuXNPMCzHuScAoj2N+NPNcLRxToOez1hn7aO/Dufl9ya0QRpFP9hcyVnsY8QygEv5K2jHwjJigE/RubI8kyXZk3ZvqAliv6A2CS7ah7+9h97l9rT/mq6dql/rPzSjM9BqBozAlF8Jraid69XCNcV4XxIzSOXm+SdxNWylJ6ITXH2ePe1s7oaznMuRN9+v1x4HwrByOuT2o/gPsb29ryxutmXqQTOCK/sTHup7bkCdKu+fJACQ0PAy3uhA33A0rP473owL1HjwaeX4sjBsZ6mcn4lh7AOoAa26pobC/8PoLPyOFrSvVIN9q3V+eQbQok+hhO6nmRXVl2T3aDRgNYVnGrXCl+y/YmatwIeSIUl5abm/Ou169jFLGxIJrYkNncyTr44Sal9RVZXdrzMLnCL/H9fAcsrA/ilJ3RTiHAtwNOlRqiOTanT/D6/+5+CZ1CWSa0NSoZXj9EYrOi11db1MTAEgpcztmahEknbPRj+NIhHFeaYijB+4bSML9Oc5fztHGyPbu4NHVd3YCiXVV2V36HAtZ29VbiEG/YeBlRbPImFQ/lJ7Q7PPubynjPPyNhEVqeG8mSUoybVbCLiBJd9SGHXpMhZ/jzoaqrvbJ9Y2Dch4V//Frv9fKM0k/Pv8hz1ckSjbVc8GA81BDVcr8zjl3mFQSoVxXYMpPwxC0fKPDr0Dkvpx2rD6DiPHG9pvewpge0XzWDmz4sN2r03kf2N6EbtUgBAZJSdWpGFM+pGCdlHAO1sKbaYfrcoTcFzsToh1x1TsAzp6O+wOxI7FMGWwgvDKJGPN8LYHnLQkZypMkAJjcPGQIUR9ibf4t75LVX/TWmLfEdYQA2ADqSMSU29bmvR5ZeSGYOUkU7GdkXawT1VEo4YM1uHWFOr36Wb3oeDDzAOhuo8DPRU8hh65oaGux0h7DofyfgsuKf1NGL9r7CAEQLWIb/jyFhEMb3lNTymdERQCwVFtRoHJHZBq5EKIIXNqMDG5GFCJZtuZtClyIsSIj3NaBbeV6o/sr3b2GQUimhZ8MLd0xeahQOdgQAUUr2nBYNw6HADYRijI3O81mopwehJn34B0y3XACX3a0MocR2BQEwJ6NX+mNmq6s7yHvwzsQpMkwU/DsTuNYKJwdXfu6Oqn2BVSkWMXQD1ahmAvspsV5zFeSN5JUr/N9qfwHgtZ4y7AvAOMMt1hkX8dJSus+3W8/gIvyt5grumZ3dMWkQEk3syE4OGhFz0KICpVyCpV0j+aYOx9SnN8khDXsBEvUsbWvwUr+mcoMVCLM1EZ1QWcJ/DYe9QeDzwyuLitiUqaQQJw/CZawv2AOB7HmJuMfuR6q3RlaKZsdP17vTd0VjtZHALDv9E5hPCAVP8YsRtro8XB25ZPqZFjUaH1DK0HX/wMh6qFoElNGer+uPtcXCAC6XJ6TMjjDG+NHTKtzPqSSnTGlsRS8GOrzGSwZH8HSy/nk3tAxVIuEES2RVOpoLeZ5we8tjhuuSUNabTuHdpFsoSBzWN272p15GNYlXe6hDDYiPvV9/HzQ7Y7/In3SorVdkQDELNMpOwIhCtdjvlClw/DQFZR7FRUeCl9VWHcd7xtWErlXUsBK0e77zrqwKsa7rosfb58o7faJ1lGRpCB7Js7Fc6sex3h1mBczdN/puJ3/bixRZk/WScfvIvcHKl54z8MeMAXvD2JcufbIgOWRpK22ksMdn9h3V1DuRACsuz3nn/vMC7BIf5G0V0Rlt/hl7kNcI3RfnQjyh0QQ2lzEIN+J7eZ1r9vl8dtBlluEjINQDiixoXCegdqS9hGIBrr80h22Y+Mc0aNnu9aFWmCmJwf3GJKAxIEYdN5zSFiReDq4/n3tlUBCit9DA3tlfGmazk3ZvpgPjCuXdpl5nYkxfW2xE5CMZDLW5374XgKFf5Iib8ICTM8n7sOdsScG9BQjiUSSib+ToKp1pyHeOkHvyxxz+OzkPsy+ch2HlQT+fkLtS+oaJBommY4Gzwx1GzznHrJ9rsvx5d/hvTgq5cSLXntUmGg9ZHUj9rO7e/CJNf/TBABlzY4EAK9HzzOOn27wJEGYL4Mu0PTA6o4xiuP8c0lfIgCM6Y4T9CH3zEXQ2cbC9GHQK5DGkddTj9KeUdEkouuNvWB9BEDBZUWzl949LDHO1XwAsL8QesP+1Bs4T/Qg4T7+Gbw1uF9y3khS8W+cU4bZ0WDBfZwW/UTsl5w/hteQNOAYubYiIfO51+7YPBdy0GuapGA4EM0OwG8FJImHrTbryc++XFl0yvMdqovcn09PhamQKXbgfRm+R8PGSwOORX9Z5i/yqly9gXFnAgD70wcwcT2Jn0gQjaSkSBILLFzcd99POUg///Mg+1AG7th41jDkJwWY8vwhNgE869y7GXpBLzrqdevKm+LzOvyKm1IHgpBy5dUgfUjG6fPJMD6HAPZXEGMf98Z4t9Q1hABYD/JkNsuz8ydikv8MwX8PupkwpuwWsLt0SeTiYCwyLSrnwjJBwWcaQgO+T0A4JPm2bjYKZjxkxtIC4OjM4HMQ1/kPlJt5C0J/V6X0Ir5TZwLgltzrdShDVyEAdJvrjmt82ELd8aCKtINhC0Ikm1zna7aX4vuVi1yk9w3nAYh23rhZH4L5YhLA0UgOhPnaqAcAheg8KP+O5cCC4SDJl5HF+9NyzOSHr6UdpQ/0zglWtDsvrPZUCg/DPRlPTWUxrIi9gFgleg1s3C0zCAtHkbbCcDOj1RyKM4lraGLO84Ggef/A6tULOmf97W0C4Dp4uuzQ9LN2gePmTes/hZhIwhs2NK/cnCnwnlH1tDoCYyRmsKIja6vxApJo/Sc/vXhepF4AK6YWxniy7PHABS6/NpQ0I50HBRNuMX8GK4FQ4WaCv45rh3NFpWx/eFscgAN4KMgaKj4B06UP1u+glLOEDt1Vuxov2WgegCfUvAzXz/f0AY5rMgj0ewxmZpvR9sbgCytZqshZNT3vKKTe+iPuvystdyFp2tTrgN4Jr0JIegUMPg/KzgphJM9HVwQA+8w1+ljm2SBADo5aOKAnwTG1r6oryqdphRTgMQvcNNjLbs++pEIzApu6bWkCIOx2bbS5jw6qkOWfyj8FPbov0+2YgiLzX3ReIxQUmZCIAt6uqH7CkBcqUhQQaQl8M+UI/Uwx9lnbfjo0kmTZSMh4QMMn6kRYNHnOcL2h1UApZOmWB1oCsXM655vgBlFxT/72QZf6U7slThMV9IhjvW2SFZ33LJ4F9Pgg6Uj3b7pYUrjl+8zzUenKgnI0Eh4/O2lXXrpPr09JoqfdKdXPqfMrH9WuuujDclhe7zY8gadzLtg8pQAXQgFN8MWeiAV7LVBF0qmQiZkKJ5/rlZ5B6t3UQ/XcFeF5i/Y84bW6IgCozJFcoTsqa28T52iuzT2Qc81Ew1Re0fdlWH8zHJfzHmJ4dgWW5+HW9DyJoTDMfellCP4fJU3Qe0jn9cfnl6EKtM7tiRADJvjke/RqYmgAk7HRGs8wla7mk8lPJzR+rE6D4YRkJ2PO0ZpBArwGqeM/xVbJd51rrFMeK0N8smMFL8PgT8Xn07neafljRnJaKLsivXge0HLO2F16VVEJgLeLJp1oxKGFj3s4ydKNhWzxvGSi4UKEQ6GvjXD7v80fY93jaQtgTai/oF+F+LnOW4MePIvjRqgPkg7UeBDL7sg2J1W/qK4qv1uXWNYJyFBRgSUN8VOXn6QHYAuexXJPlg7FIhn3gy6BFz2RTnLkTyX/7jseAEi2xjKH8MJlKbpCkiosE824bHpnhD0jN/V50fH6XREAiJW5wUj0zQ+usQ6EcngRona08s/niSFxnyfvjfC8Q7RFnWRaOCyF65M5CLg3bgd3d5K6TNzK/Zx7N+eVoSgklbhP8lqRyEjc08cgLJJeK/SIZI4sZLtCyWFjthO07/LE+F7PmPRL0sLS+/PhxeLAk9DIJKavpR6tdQPmneqNROfRzs9vPQDUlyCcf4R0sztLLaOfnkroXJRtaIRgWFJn4o/nDGX0ndfOwX6DMEYQaMTFhgzHc5YGNpKVTPLHZ5P77PqeT8pg15T9B7kintMEALaQWUiE/Je8Kavfi3Zsfenz3ddU+9IoNkFfyu4elhF0tV0JR5HJELrT/Si5/HT66br0Hw93Li4K+WRmj0X5vgpsTNOyLwUreeRv3B+j6R6tuteV3KFOrn5BJ/rAQqvGxnc/WO/7o80s3/m+xdPzJuNaTAKYx43pqYwztPWus2LOCfEZAAAgAElEQVRA4awUDwfdsiPZbDreJ+RuvlInoYu2UbChosJEatGw5ZwLKsO0aKdAUIy2UfnmJhsta87NhYQNPQAYg74xAiAsxNiWfTEmli5M2XShJXn0BoT2ZzNO04JIV5hTAN6/4VN1RvUzOmFcx8z3xI1eA49mnKtjnzY2Z2EFlWUneUDQowAHPyliWsrvam1xvzr4ml+XN+lNAoCxvoznpevySwOO04oOBWhuvmEih3MYJqGinU8ennuv+UJdVD5Tu8G1u5qi1KC602d53thYwkPeT89VTuGIoBO8HAKjFji5Jml9oID7YvoJOh6WHhidG4XMo5BQ6DQkFiIZ0dl1ngIAYxYfRf4NegN0dejwO0wOSCH5IAjaFJrhBdAEqe8TiIDTYTH4mLHPZdMLCx3lvwDrCK57uu46MsHRvzokiPJgfAxuyq+mHgOBl2G90bXOBAAPWVq0WCWEBEhny2CkVz8YyTPpUkdXZyillGofQWmnf2WVrFrVk9rFkd5/SxIAVKaXzxiS5Lb9h2NtTQGRg0zLRiyf41lw9f8vyCFaX7sqhUoFnsIR1xbJR+6zHclWriW6ldJLje6xtDx1btwvKdCQhDm15jkdo93uyroaQudMww4++iDqm3csFcfKF3h2Lob75bVcZ1wHc+PGwf34HPUBLDBd9ZXP4Y6I/T4ellPmfGDytLB1n32igsIzhkIYlc2vkvbQ+39X+xe9444HITap8iHdX8ayQwm7z+24nsi8bGV5pPPek88995yy9qkbNM4O2rBGOodjHrNAQqCcdyjhBp83Ehr35lyuCZhIy5B17FNnAoDXoFGBpc0+RpgR98lolH9em+cUXYJ5TjFuGQJ0Bfr8Il7LMA5WD9kTr9hwiAHXX8irJ+M396KCSIX6zGoQrLVvquxAxS+J/XAR7ofE4Hlcg6ED9Hjqqr/06Di87i2QEk/qPrWvi2r07UnbtKfnXVSypGPlk1X3DUz1WOoYkLh0U94RSdGsJQg1eRaVit7EPqRzxXQKq+KaZhLck2qeh6fe+3r9hTzeQo3rjGNkgl16DzCsglb09c3brwgAhXrgtnOH3+e+zeUNDNRhAEod9f/ZOw/4qKr8i7/3ZiaFEEoC6aGJvf7tZde1r+uurrqWtYsFUMDeXVdWFAuCSgfFhr23tSD23lkVGyotlVCkps3M+5/vnRkcQsq8ZAxEvfthQTK8ee++W373/M7vHA0BUXUExLIGq0XWy82NuxEMN6/K6VwjAgDcZhhtZq5rmBmfdPnG6x0ibW5sQSOJhJ7SIDjMjBe0QryOFd4vDADGCkN6Q5cAqNTofh1bu2mcHqX7KQKwecDErfsrO76uVTS16YCSXp+ZjG+6hFPZc9k4W2rbKHExUPHLH1a+HSl/sa3n9f6vCUo9U0VY59quo7XB7cJ8ItP/ggQKKRMC5IwHZRiL6J38VbHC3svfMvErcV78GOVeEOWen9bLsAeeFLjD/psIw4hYnHLPE5QMIRnBnFMJDGD7A0E7eGuvrIpvY8mQiilFl4VE/mC5oA8ROX9cIAvZ8lijX+v038TJiXx/w34kZu0UYfy02ABDBkoTjT42wny2PVdvRuJobj+9om7MI0A1yl8oE2tsz2Dd20dAI2cphHDp21gzbgu6BuxIWDrM/U8FsjQFAmaLPXSeRAwRAY2uVf+TBsAVxYNLZFHYcdvvAEAj7w5q5qCCoj8Gg9YVmtz7qpMC1L+NLjjf+q8ER9ggmFxs1sMqxlvbCVn+SXQeAi4CL2jMrW0s8FC+sAQkO6ZBr5o9+015g91QmF36RqLZy8a+v2RyoSwzhFRa1jZsFmx2KI42bIskRMKmSj1nY4Fdc89GdokFpzV2fCzu1BuB6ntBr1mEEbojmDV2fB7bW8o+PyoFWdBVLwh9LLAaVDk1IQYA/rXa0E4Sn/tsvQNEYRwWHPr6AaGYHAYbW8jYELAfoo6ToJ+FTP++XmMjxNiEnUIQM1VBBgJEiQQZXJNA+jgBChwEciNUbIFN7iOivE9syAJIJgAA6+APOqAz/qht5n4jytGyxtPhmcUWNfPlCnYXq3+o9/MaTEPZYrFmLkWtNVHUFoXeN7H30PnzmrLViw0dLKZSOoUkyOaeo3+3WeTwn2s28lj2obExyuZAtpMAAQGuaHaVXW+13lNA7wv5XD+B5xS9r4eVvWqqbIgNkwzbiXoOrhm1n5I/sztdtP/JRVUlOgnt41Tm/rBF0A6jTbCH5neBrg8fv6d+mfpYgqWx+ecYyr7XFg8AMGZ+EN0ZxP0pATcc3lrbAGhY4xAtigZeDwUde2RR95Kv2rLGJXo/GxQAEAtoQbhqV2U7EQ47WIFVZxgblJRQ02tEvRpQrmPPxbim5OxIjesCHWgocdGRYLWuQxqVwnvzzlHPH59/tjWr0w6Ngqm8S+rtAQABq8hCSTiO09HboljeGgjVvBIvrldye+Huivr+rQj3IDni+DhoEHw9qLHAWG7YABnI1MPEOXzp0+bwpb2NAwU2hHwP2UuiS5vAfaEyx3h4s36xfzac74x96i+ZV0ZIykaEzZ2qvvNsuZroGGnsc4h7hVanyorP/bNOYDvrWQr0TD2oTdY9pUk/3SZzNil/sGEKeW3xAAB9AG0YO14Oj6a8okFdeyLXZw0iA36uygsR40P8UfcMxRA9gO24f9YyWD2PiEkGoNPUd7H3MPZOq7zbAMfqB0Q7sfRgP8rQupoqQUQbNtqd0iLh94aCoLF7pvznKF2L0g4OP7oWxflzlOy43p8RfDRmT/na8H38mxbM28YJhmS/6B6u8dmlXAkXsn/MF8plGjuQAHJRTsl8YQ8w14/ME8YfY49fDnsuehOvdNvPJHA4YNEfDQ+SR0QZAAiiqu+QAh8TdJ0bwulOdUpN3U6Crw/TmFAZhc3CCNrKL8PqoXTjzpwBRlDNa+MAAwOgt2EA8AjuQ1rnZ6mvRdc2cQTfw5rfVf3gUAYwrmCYYUV43TdZF2AAbDQAgGVPVzCQEbHAtHuTrGGdnKv31fDZqKtHPNhL7Mi7YEyjR0PGPOJO03xj3O626sO1JRmaQ0/ajjtO9Pq99Xokyit8VXOXdYwxingeCaaGYxRQH7tsxiixfvTgj/0na6QReNLvUrc349SAaawFD/Q43jC9EmkRoepXDUuZsgCTjLAtxs4of7D2mdgar7PBBQJ3AQCyuXdif0rJ4hulMpQufig9EO7Fa0N/Cn2zRBrx6G6r3jd7SNQ5hBgK0Zo0gRJ+9B+m5Z5mtJcaY73yb3bVOzJAjXSMOrlrtKzI/YprRERA2H/8sTKLWQKzmftvCAgETGyYgKQkA2Y2DLSo+4PEMe3LmhLHTOQZN4bP/A4ANPIWOOysDtUNVrAzVD8m22E/rQzaWC2qHLQYPwzQoQpgqWNlkjFgoM4hwkV9UmOZwUReONfmYAbVDIRcBwpW/IWObY+z3bp720KRlYrx9ooNL9fAPUzXxFOt0YZ6M5vVE1lHGJqcl8ZGflnJjbJretbLPzOfBYmbnDfY1L16sRlh4dxZVFj6jIOS1waqemv+uSaQ8EKTjgAAL1mDKgQAKIvRHANgztj+qRmB2n30ITykRQ+z0nhG0OG7FEgT6DW1WUObJUg/VYsPCsVipWDv8r1SDMu1S2CHk60gy8Yua2reIHNQTQQFj2XKEfyBSqwDAMVNH4Ys95YV4dqXto5T104mAEC/kdEDXKIPuI++Cm4QmiNAzZN9FDVrMEGgZzKfCMpaYjbEv3cOz1g0Dta7IcscZTg8HwyFburVs/uH9jGzfzZHbzBgXNn9lS9ZIV/z8IXqj73Vl6nMA4LwR7KPMSyLpoIMFPwJaI9W1onn0HyGXy1xIPdDx7VzFcHtrTC0F4E8m+wYgYogz0016lYR8QLMgE2gsU7A/YEVDo+t8Ve/uMmgZcsRAyxZ8l6e0P1ix3a66v1trrGBa8nOsYwwjh8g5l5bPAAAxZaA+xEFIQQgiYyxpr5vHx1Izikba5Tfoyq/06Uqf13BorI5v2YGANT/kslFBRKIGqTDAmJyBWSKoIbCMCMTASDUWN8Cku2nMX2WsnPMExOI6CCsD7+l4G2+Ipw/6L93pzYfqix6NdgYkTVurBEMMjdgFR2oumzGmtpSZVvulYzbxJ5ZJT8CxsweLvvL3BVDNJYv0c9NcMthCcYbLIDG1kzWZAKwc7RHAoTpHcPyWKJ7/E7Xr9KfsxSEYiWYo3tGZNPU9pI5h9JNbX18wExgzlq7ttzK6EZY00QNnibNEqPK1l5t7l190uTRkycWTgHzTWvwLqKDHyUb1y1Q6gd8IVmAI4LXFgMAyIoDiHNwBCBui45HbC0cWj7RAOQag9WKJ5brXaQoKO4iCrmfwz/9Tj0th6zGgAaC6u11iBhWPsGUNslwlECaWvg3omKrOymxtr3+LoPSlQd1vQc1pgHWm2qACOyfgETsC9oba3S9x1Uid3NhWennrAXYY2qsSvHbPl/X2UGAkf2O/Min5ZxuAOSm1mKyn+dqjWGtiTBcAD7cWQw17cPZ+q6+sPDYixW/OdzzTL27JxX3wEppCFz8Xfd4gQ4BxGeACfp1q2DdkQUXlS1mjmRkLy50fClFAcvp4jrudtJxxqZsW+6PeurbFBtyePXajl78aLQEwIAkFJ6M94XtKRr7wv98PWXly74i61D7IGjnlGEw90mmNDX3m7oH+ukKAQCDNhIGgGLVqXpmguBT9ejbae1xoKTHazbEngXWw+1KwAG4eGloihyj5NFfl2IDaNbAZht9RPkv62ckQedO02j4n9azE/XnPTWWfAukRQG4Hym/a1yDh+8lVoDlF03AmDGqhfJbnT2WGC6Ca/fUNTfTnzOZk8QeoyVCzj6RKEsW0Jgkwj8EYEWBMOxA7g7V27cWL104lzmm8uBjZaxwtcCWLdl7Yrat8R3BfHhb8+4unQ1gP3ptMP7QcEmkERNwrorGBoAhoHewauzI2nKc9ZBiMf7c2P7Dv6PkibUl5qiif7tA871UE1cvzs5Svxbqz9l6iSk8G+e3J7OPMAkTAI74/kU/h7k/sOJ2s+/qOj+KlXJp/uDSxxJ5no31M78DAI28mQXjind2fO5lmtDQ49LYwG5TBo3NmMWcwQWqhCgEB89YY+N8VAEyBzEO0a1tHIig2J0hCjN2GBqgq7WxviAUdPS7PUo/OqaVVlnQOFXvr1pmH6KGm/Ns+iU/WcqkDXWY//a1BQDoo4PcZaU3KVsTAQC0oKHotEYbb0TZad0GdS1Ng1B+rpbTFgAAqveFmqA4KUQXizo9EwrX6+kmRDOxUOeM8k9rAQAOsTEAYEvVRDYFAEAnX5hbvJUyYPgF/0ObRY7QVPs9iatMyRuoLMkeTR7+2fCxIGHhgSpmaEzSGtCvBzUmFMRJECWsYMO2/FCyxyrISJQiBtuEzQGBqMNFr+UAANVKS+3UYNC+t9ewhUZti5ZMACB+CCBqSFCJrgHvrlj3E/MCZ5NnIYadAeqNRkCijX4j2GUDgG4eEdW0P9Xfj0nNXPNs9olLsUBrtEUVcS9SnyI20w1KHBsfGU+EuJqywSFAhvlC9gQww9jw2NZs7VyTFdDO8AXt/LAjuyg5LYlq7eeQNqrgIjEKjmgS3OCaqGcDAPxNGVDqeXU9cfnsB0WNnPDj4gXf7ttAGwSbNr8bvkGAwMls5mTzrin+lwlsvbYYAEBfAsTckXOGCULiRXPMhGNLTLARQAFqUD5FNldZraD+9WR5yV3fY9jCFq3AEvyaZj+2oRgACJnVB9MO1dQTZdjdUYdcP8JlZHZglpRqr2mqLwGUTlp8n3Vc1YNGPBFwSf32hNIaU33h0Lyw3/8PvXPUyHuzT8FIw0YPCnJTzQiZau7hyoAoG4Cz1sePVdN6S1oo9b/Z53y/ouyO/N5uve/fuq+T9J0B9sNxorkzbqGnNtYou+GQiFo2tddqZJvf18t+QASCL+36cGetX9sKrNpPf49+BQcyZ+0emqM9VP0Saxxi9/vpVWuIbNiwzNTny/X5e+r9vql9zpw/NxljorXXKJlYuLvqQS/VxMQeNJ163ZsLLzJMDq8tBgBg38gBrrkMd6LXZl0/THoRMMiM5kYkAw6QaDLglF1ApX9cYBGHlaZAcOISGGNnVk4z+waHH0Xk70tAcrxcyr8KWuEDtbadoXezFQe1GEgEuNAUZZi1YG/p2nBQ58CuE60IJmZ/I7t+P6KgOpwUWz5nmMbeydo7c6nXvV/7AftCcywLMo5cF+vRaBbxexkq3qVHf9NWGjFo27sqc/tHgWc6rFv5snv2s8e8oBpzYj0yuPGgM/vv+RrPALFGKMy1JsgG8NqeQ6oq9czmvEaDQXp6YZEYC9Z1+s+/8exYeI5q5Zg4RgDAOUYDIAoAWNb4FK2VPaP7c4StFjxTcYASVnYvDkWwUB7OPlYHpIiDQaKN2PbyEgEAYjWqbfASAM2r0U44NEf7JWDKIbonUs+NetxOVSx1q+J0r6xVRCxPrbrbaCKhp+KhVeuevtAejzjdNgqkj9XvXWE0kti5UxlqnIGasqHku2AoEutTNhsVn6vQSHpUVUUv6YD5k67dV6Ump+hgzmKSChtyXN5QU76bKNABUAEIdoYo9TtpjhlKvWu9pgTHyAJf/hu4CpWNK9jCDTgX6YUfoTndVc+xXh8TBxlmmYBf3Gm8titLRhobTU9NVQfqD5I1rFUpUv2339a6OkmJQsC/pjQgOKSfXT7JOkMlYxHdGYAV60X151OAAPqLLDHI9lQ/HKD1ZjN9RyeSaADxDwtYQPx0iURCY0Ao6wcaAEMEokYZAAgXXywGwIOenmcj+3DiUdtGduO/1O2UDZflV65zgibAheqc/thMIM52S8F5JhtJY0CRNWXiRr2sTcyGTgA0JIIjDnVeMpbxz8NCAF0HgOFPEmtS5gfqyhwQ53rX90hblLKlat5DNUq7aqJr05P1nCPOousiHra5Jsj2eoyubQEAENoAAOCwwgai61Woc/A1FJKxbtPC1hUam/6Wmon0tgAAUIlB6DhEqq+UIXcpFJ0lMZYljXxvvu5LVD23WJPYDwAAwEO9lhcGAAAAlm0cMhFFagoAWKYNek166Hhtp8qiWaC5fiwjqQt8ViJtzVH2Waz3WPWeyboAcpClV3++oXqtUX6lnLSInae+hVGQjkAUQpQIRiUqjgOgALuAzQF2gZ6hSi/tAQ3B8fHOE78EAJAhr++dV39kBKr2kiMA+hcmUIss+gRUKXpWM6fGFFxghMa8NJDf43VYojQECrIuWCKka6LjBqc1xaQhu5daHTxZfYCq86YcdMnEgXq3VPPOeCCIYNPpbYI1yc+61iP63lGID1bOz00LZvjPFchCJqsHqDPsD8qGmqPUkf3kYED9M4cpbUC6pCtxUPuW1cE1z2x6zrpghjnchhfdqDlAXapDQPSf4qtM5t7LQZ2+BgCARpeiwJCggzpksgM/q7r/ZIJ7Dm5kmxJZ8zjcUMN+yqJ7DfVcHYU0+djMdHdsl1NK15uvXt55op/dEAAAB4OBOfn/J7eNi7XQ/E3gXQZUf5glZK9a0u/A3umsyslmT4hqgBgrvJXLax7Z4tLFK8unFu8SDlojtSocEGOk3axs0esCbpp67xGA8Xvr5EXTDcU+6jW+UmPrfuEyY/N7ln9XtrRgP+0ZV2nQ7cV4Yh7eXHihHCaa9jqHwQNN9pyycYYBoPGD0uhX+jrVeFtPFaX6F67yVXdZvsq/i7LR0tiwD9KUhzpto6o/QVo7qHzH7AQB0zgoUjbCQVFNIpj2faGQOykZDjmJjpvGPlc+uddW2ssuUdZXJXZWBtljDnuUNHhtzHOYhYwLAMePtfYh8gaASXaS945GD+tFIgedSCnGfDPX0GLA/tW0CA3WRniRgzqMP4LfplhofDxflHrEW4+Qgr/2JYZUqa50u5ajOwvzSssXVhXv6HMsaUQYXYFMrjdZjLRXpe/Q0BYyvl8AgTlwkrEjtlKrEQ/6eR32b1jkz5lVEKrazrXDjL9DpAYfAGCZkD/EonSvObo3pZmUPcAEM8JdsFssCV2G3dvVpbOCdXXdnEDqljrwHIK9q/bnvkEn4Kfck/pnXJ3ixVPRUQC0BCgzVmC2NbXWDl/Xb2DZwviSMn2PXTahoEhnlZv0x38SUwDKX194qTlAeW0tAQAkdsK+1GNDYfdCbZdbshbD5mC95v69NA43AACs+WobHADw+ewbQvWhl9WH22i+845kU+l2FZCo32wk37P1p1TGclsAAKjdRy59IgKwR8pENFbkwmWbEpf1GoktfaVKCd3nNHaW6x8NUXf9kXUXwHWSgFfWdQ7NTTViOxhwgGqIskYSMKrRl02nrn9Lvp3z3tKM5enVq2uH2mGzl+cw3u/peZJihjOaZdY0/E7ickBe5q7RAkAINGxdX9DJf789YF6NK4ZqaUr1HyzXOVpB5fb6ADQKQIB0je1sDYSMJAMAKqG3VM5oqZ7VlOas25hEtvrYtZS5sdP0GVP7z5rH2L4zd4BhRTW1rzHfiTHOEuAQFY2Fifm+z3buCqcEX1vp1v2UXu8vDoR9Ys3Yh+lmdtRzdlltZ9jvdtlDSdyTdYbbbe37Y/07XxoA7D9RAGCxGFQXFg0uTYzS4GUStuNnfwcAGnT2fG3m/nD4Ao2+o6FTUaM9UWjTdE066MocUAhAoJvDAtDAUBLDZJqpKUkDQQd9RQQHSmNrGxvhAKGS2GWR7WGiaJ484bfsW3POKgF1XH/SJPhlHwvk6J0f6FoTDGU4dsAXCgUz/X7rMB0mT9Zz9G4rAHB56Y0mW63BxeI5K+w646RT8/56txcO9VJm9AQ9ilgJVnZbAACCTWp0qJlW36zUwjFTh/+7RJHDY7jB4hLcUZOXTMUeusl0hOgAAAg8E6VVcUEOfFjqkZ1vDgAonVSgTcu5UC+M0otM9CJQ7b9Li9i81N7NvjXGAeUUp1XeZQJ1PdtiXedhJUrGCZ1MFaNgmJ7hSI2GLIIMkFFotM1tPPFfSGC9p7LWBDYIpdB3utZT2l9vyjtr4VpBhWQDAHwvCuTQG6lRAw137HCdNqXFep452ugFDtlb6l5TmYMcZAhovLwfgmbAjYEKLjetVt9Z7hrN6bsdKzAq76x58+OzNrE+mT85T/M/8G9tOFAqDfWfTBxz2pSINFODS20otXaAAGgZqMlQ1h4ravtdhUNLCSjchZOKQNiv1s+257D8Uvc/W2OF6HNoaKox1ftpA6dW8HBt4JHsr8o/bPuuYH3d2N5LKtcTziudVHS9rgeI4SdTcG3RlUZkUoBmgqtE5GMAABwMyYahvgybIEtjEno3oBuHi1pRwqG2IlyHRkBz4BPr5w5rZglwmmYsinhHCna+0pgevaZ+9WMNwQxPN+vhwxsCAFg4pihd7OXTtPagIt+PfsKmcZoAIA7Vzc1Z+u2Qn14wGQjo4YbSbFtPyBN9ZH6PBbOg6i+7q0+36prQDTrZna6x6+eQOEoH9SeyjjRWZ001MrvMQUDAKMDER99XtvRGLeEzNIZPUpB7pYaOfJd99t0SlYRZ0NL+xtigvACx0YL6MnQ9YCzMFrjwRNgNPy8K+fdL07LsrjWrdlYANlALwMEEeQBK9Mfk3EGm3pRDKcHy7qoJBRTfdeVH3B8nWdVCh8cXnl2Gwf0Ga4smFPWXLDvlEVIqtzpzABgltyBqf702QI6/ycaUDNuLWhtWOF1Mtp0sNor5sECwr3sz848R28WUnk1mGPnuSL99YBIW0VKMtbcUc/OYnnOiASuaExiELQbb8WIBAHuueJdriAfrfqi655GVvpKZqPaX3VbQy0qxZW1rD9DPi7ASJG4im96YTkR83wDcX6AAG+aUxjpiETpc2dc59fXPBn3+P+oMfRlMEYAEDlZTNDbIrjYHaHLQgTnF4S7KmNFXupXCsORpH3pAIpz/Wx7qWt8psGYrmX+domzg0VqMCijfREX/XglcQrWOZVpxPcCmGWHLiBWYe5ecD64rLo/QqOOfp/zOvJ5uTeBmzfWT21qG1RIAUDEqNyPY2X+k1lHW++3oa0p/EGqlHMBL43BzhQAARHrpLK3LP+jXZRKgVp+t32A3luX0kvJ9eIR+ujv7MyKEY/LPM/ull8YBmP7l4Ba1wZ4DAJDiBh4HFkqpq+vlBJw+sgWUlpItkpvRWyB2BOVwWg8ALDBjhH0bcFptoWLhmQImZ2nNU8zQyHOHbdHo7YU+q3ZO0Eo5RD11pdbj/oD6xAsAX5QLt9QA0pnzJwn8ogwzaotZJSDglpDfniKL02VlU7D6ta7StXqxZ/BuuT5AVaKN/kQL40yt8SRDjBig9tyg5dwaSyiib1K7JrW32GR9LZ+vh1wD0rTu99WzKW61t0wyAMBe8KjA4LcVkawzd3gm9X1YstRrFN+mCwyktOVA/XX2nLSIwC1uWc0BoJEk6iwxDiYbJpr6laViuQb0p4ptn6sP2TNSu9TOC1f7skMh5yB9j9hF1s56h+nEm5QC3Kd4M/5MAADA+IwCACt0vQsKB5dMS/QdbIyf+x0AiHsr0ezfkYqsUDqWOI4boHZrjLL/HwgNYgSBwLNYnF55Z1RczBaV2P1Si6RqdcSwc9IcLM0mSIAJpNrLgSV+gLDBsClSQ7mrhDP8ViioicD3jFI9ylrxjmQMKmrs0sJ11AxDH920LQAACsEwAAAA1ASO2O+5IefqomHzX214rwvGFm+iuHSoFqPj9bOctgIAMAAIcgyqKGa/MjJjigeVSOxo3aYD+V66LwVs9v56pRks2LcViAGQuomn9xUBAF6IAgCKQRuxASTotzu5QlXJjFhbhy2fn/pF6mdRv28uMOeuyZAy3tCaiNLTvte4nFwfDtzvd4I+0c4G6hlkU2cVQP2j9g+ENBEhQK4fqev83LpE7wyl7giy7b4kiuR/CoYtXFvfkkwAgMPLplK/PVqZ/0NEBSrlr4QAACAASURBVOcZHXn9av5IWMV6yQqF3xLl84/qT7yps6HQceBgTiX6XLFnQ/0WGjLWPXpWcOVHFV1e15gd4MdTLGXOi0/Q5nu5vnszAuR3FWTTp7ArWmJV4M5AhhbqKewGXUORsn1juMZ9ufiCEiN/KwBgV202I/Szg1gbODgDbhDMN9cATChloDYTyyBlVAmSZyoIuqk+I/BOX6H48f9ejh/XRgPCVPpsZNEVRrCNbKKXxjNR84qAIAwZgA0o41CKocIyBziwQQsnWIY+Sya7sYwfhwjG8N8lOok4XD/V//LeFQA8Kxrx6OVZ3T7ZuhltBi/33dJnNwgAMLloU81X1VmaMqA0SkCw0GO+8ufmGv1MAMe+w3wRKMR4GuezUkfnnvVDFeCSsa7NLb5SfXkBB2kOdByiAa9acmugzIh15jDVOQPwoBSv/WZcen34nrqAfboiNA4XnQHBb1Amk8NFS2wPglkyXMcqoCfIRfRKIJ+sbaTo7FqvCwh4oba+5sO6zPCazPr0/TSWz9WD7aVnSSG4M8JpBiTtY4IuxiJrfFTnRVoF1mMCVm/LH7xAFiwbrlVO7NUv5LgX69BwIn1EkIpdMECs1wa4A1iJICxuQ9TI/021yTADAFQ6h1eZ2nRABgRJKcvhINCY0B5re6+6BdY/Fj9hNEnQJ4lv2MY9rj5m/M2XhWFzsQprNgwCdAQAotWoI35GAP6oooGlqqvX2nZHUZav3j1ai+x5Wve2QMMFzRSAbhIjLY3vwQrWcQWIsgAQKrzLcZ3pWo93VV00GdDNobRDbX+g53EmA9hcAzjdQev+qQJlYQF0FyCgRuKkTOP7Fa07T9TYzocZ/tWr6mpTZC/moPm0vz7QmfnyvFwMADCwf2aNY12Hicc4pCYY6nddKDTyQ7FkGpZl/iTXglW2O0b3cCpxI2vnyKLLDXjhtbUEAIjV2cl1fX/Xo13CI6PVAoPhHgEY81tIMDS8F54LBgAHRfpqYwAAVtakChj+fgUMqquz+geWWktTV2R2cVJrgn/V/V2s+4Sa62sLAEB5DCKPPbS/6ZpKfIgpGAg/X+tLbdRWKrWuri5/Zlmt9agVLplUdKnGEgBgd/RbKMNkr22O9RLf74BTlAKgBUASgThF6+2DfoFLeRULvinLLT5G90PSYAtiELS5EBklXk20sfceKmCRDDYW0iYWct27VW8zcprEhOMdX2ZLAymlojatc+dVqcE6/05SIZTNsPWnZAIAJtFku/9eXm9NT8sIrMey6FrnuAtXrA7mdE3ZSkVB52uv0Lt2uxAnEQdid9mS2GOEoTvDxBpo3SiGYjxX67u/017znBh4zyr+/jbDWZ0VDgYo3zhJfbKZbAL9aBzAwMLJJAaMxhgAzBFNaQEY7vkFg0snJ/oONsbP/Q4AxL2VyinFm2haDNVGfoJecI+VTqYNRXea1GzJBLKhEPReJBScIBhhMXXg1xpQj2pk9RclTBQlqxt2H9T/4KXJJtiaxnch2EF2GYGS6OZVpc3kPg3eicmkPSYTAKDG8FIDABh3jHYDAHZf+YFqdAAAPmgdABAtAfAC2ECfR6iRzRIXgkYBgEjQT2BxvAZQ9k++bjbjCWs2xkZzGQzGAP1JHSPZP6Mob9uf6q9HrUyp/q9vdTe7k79G9WEAVm4f6Jxs+reLHtaYhVNj45AgkZraS0tHCQB4i49Qjz1DNcDD84csNKk2WjIBADY8DpD/XPKw8Qj3h+tRVP5WQdmDts9+ynWDc0NB5zhlfa7QvfTR1zvUfFKGA8jhpVE2AWpLbb6pfbOsF4Ju6PraYMaHDb3OTa2p44C0n6T3khaj4XKAaknxnndFkA6TAoE2QxGVmFWKFb6uZ2XZF8oQGS0KDgtBO6TsvH0MmSGsmq4vvNxk+1pqUE/JnENFZezp+j/qeW7plOa/r/uAdW0bSycW/Ufr0SX6eRoAAIc2ROZaApwa3gOHTcZd7IDKukdAHd1Q136cZ+FAQekTIjqfCzAgQxzbpAE0UeXm8AaLATo7QkpqCxTgT66z/Xf3Hji/oi3Mppb6L/7n7Q0AIP5XNrlYQYYyRQpYyWoDKk8QsEWftWSrVCQtGPqdw8Badoky9L4VdXfnXVy5Vrq6ZFLxWRqLl+lZe/HeCUQ5RMfX0zfWT531LtABYS3rV/uj5YRVTKB9zXHc25XlPVx/lnWplQarYITRkzi8xe5mThCEofwM9RRAm3uX/SflADBiABif8oet12rC9hq/TzwGOzxUP9uEdfHrTlsYUV38s+kfgMqLS28265QBeV2tFT53dGMgb4s3l8QPlE/K6yNg92KtX2JKWJkc9gAAUJX22ugvkgzLfd3UV4tNVpKDCQeDeAtFxg+18O9o7Lyi+TZb5YnYfPL39LsECnXgLzEsG/p+K7nIRDNX5pbY5yitwjmGhEVLort891nlk60zF90REYu0raVihtzp2D5Va8ybxzU5iIZD9l/VD5frP/+PwwrgOjXLLanfc8/4lRNkA3CqQcMWxdKeSmyln5+p/+49N62PCcwZf2TqWmr0JQd2/Lupg46CC5Qm4qv6qZgoM1Is99VgwF1q1fkOFBPlTP1se/VPKiALAAClXxzsWLtg4MBEie7FD+twMrIxMPmHKd2VVMkYo/sDxDYgzbXFV7aKFZIgAEDsqUOouyP9gj7HPbIFpr+8NPZIXAA2RgCg4XOUTSk+PJIZlwaSmG6tBQCgiA8QPf5IrX+sT1pb/qeD4C0Z6YGnG+6rDe+BBI8v3YJtNwRdHxgXNxRdauZ+oo4dxGCMeUr82F9hBWj9e0egwohvKxe+snlOscrFBO9qXLYWAOC+AWGHmFLSjw2ApWcU8G5f+152ySeN6Yq5KiUsC5fvqvDrP/rn+ycTAND1Viq+uyh/YMkd2vPXYwDE+rl0asGeSiCyZ1I7kwarimTdV+lbtbhnAnoQa9KnrKPoGAFK6/2iDzZPAMBrfjv0X/l5fpFm+XMEeJ+s7zhCa1uedJ6cl6TjQCwdK80jjuQX19D9BLWIXHB7RcmEePDEy1zbGD77OwAQfQugXt2WrviLJoWUvy0NeisVOzqUW6mhJNtBXSM1xQhZQMtTW6VMzhMK6u5UsczmGlAIO221woiA/MW6Pe8MU/vlte42NjDYZECu2XQIftRUeGe9p4E3qqgu7RX7nO/ZJNvckgoAVP8gBsCN5sCq1n4AgKiDZId2awUAQK0fLgAEbl4BgEOiAADAUEMAIDamFLxcoCBmN8YUGd+xebLokQJ8Sxk0k53XYfIilZsQ9GpBAyl9XavltUVblLz9+hv7WJvm/nik2FJkrLfVhuPjIAm7AL2Klg4VvCDGGIdjDq4ESjqMqQTAfkqGYKOKh/3MnkgmAICl4ZCKCSajTX07CtI6aDwk2tfduVbuN4jSzJ9QeJTfsQEAsDryE0iimM878tI4qCLKx3dFbfTe0ny9Sd/3qtTD16H3lUzq9TcJ0g3Xz3diHEADpTQEq5mW+pLgOoawkyFD2E4PdodOO9fnx9WIQtNeUxNUbah1JutClYDFa4v+ZQK2ltYJMqgwQVDSLZZwEVlgrT/3BHzWzTkNaKgqARiufr0EShsHwRsLLzEAQEsshoZ9G1HhlVyQngh6OIEhVFgO73o3COss0mbaHXCLzyBShGbCJ6K2U9awRIcS0WStLsEVximDIHpLefxy0NF1V+rdzrBCziS3LvxujCXh5f229rPtDQCgveKGDbh0mt6zyTACLHHASETckr6Dov+XZS/G+k6HF+uG+vTAs/Hsj/JJhceEXPsqvfdtCNigSsICaMmalmAJ8HSwGCx7So8jSkX9THNBWgDOdloXVKdvpXKQu05sEkSuEmmMHWq8EZ+C7cNaE/Nj1/ghi6zsvT0zHA7PDAT8tXLpwBmBLHImGTRYANS7oqpNH1yqvYVDrRqqns/BgCkaEslAb6hWNl4iiX4BAAoguW+ozwAA6Lt4bfQXvyI2w68agVb2AGPfpbIHXX+F3i02EXIfcGyyU6z1aAWgK7NMwAH/HhYHgCE+2mi7mPfJD6KLDP+OQzSHaay9WtK+4SB9WclNhqocE8HSej3SH+g0vefp3/IurNeGW/7N8nrtq/K04fquPdBvgQUBcMthWjT7ZrsDIbSLSkebsi3EKMVgmi928HStMTrp20dpXOTM0TPCyOJQnqgIGnsMdOAjdMDjEERixa/4XTdUrS6Re4b9qu7seZUqLhcgcKgYWjASi7n+i0bMLaJ6DpuFmuI/iCkX9TN/Uq57131buuB/DYVY54zN6tIppdMYfcfpPDS2ddcJAEh03sR3VCIAQDjs/5ue5dIIAJBlKMx3GwAgcZo438k4u6L0egM0q21UDICGg2c9AEBgFvu1V+cDmDURBoB3AGDuhD55ATt4k+ak7J0d69u0za0biy7xrP9BuQoMLH5FQYgFShyNWLao673dc1ZI+6IBAKBST6+xECU8lALBZImO31fFkr22sHvpm41Z724MAICYjBKJtWE/7KX1xEd5yS0qL/khXXpdRCAtNEoBsCZnz6CUEUZQpOxQC4Cr9dS2PtMon6HLUKJcrPKA06SLBvs0g/4FAOB8wFpA3wEARGIXwhr70qXlC8dtPdyIFHbI1nIPdsjH8n7TZP9cnz1QVJMB+tcFyqbaKDMzAKDEs28iKkYGAssabI20Gc/VxjTacUKP2mGnn/77Ev06RBtzOpRZNirUJBOlAjW8a4IyFqehQu04XCjohr62UDczzQ24dxadWbqesJ73J1eRVxJLAPqLvggDoD0BAOyxoP7DACDb5LUEgAl+mwAAmBteAQCYDhyKjDd1gxKARXf1yaurrj9DGRGyF8WrnU42QmyxMdUSQsxmzIEJCjuordoa0aae1QJ1Q+HA0v9B+62YUrSbjMAvUtDy51j2CR0AnikRHQAyIojfDKi8J+LrbEtd27Wm+/y+yXlx6trJBAAAGi4uu9k8W1Sd+T09yyh/uPblmC/twslFhzhh+3JtfLvpZwECPgAAADUvjeD3NKH7BJXR7A8ox+iUQPVzPU9fbAJXGnWUoc6BizTPz1cg1RWrIQ7Md8hqKhFHDzYVaHzoDZBRUBOF1R7vS62/Nf+0irXSwiZIzi+6To606Iz4oTqTMYjQ843db5MNVgFiQQShBKMRGy57ps9yblhZH3gnntEAAKALQY/sBADAgQQWhVcAIHYzUPfRIMC2KE8BtAAOSkVelw3aDGXBttBfCKG3CzV2UuqcgMlgkola4c80NcoZOkD00DXIHqYZJobLQeZdLXHTHTt1Zm7lD4vbw/4v9jztDQAsmFy8t991r1HAsTd19IAjBKuvSBSspffOPaPPweH8T8sJ3tZwlHolJL/05RXd3tp6+M+WlqUTC6Q8Z/9HY2tP2Bdkh1FthpHRUiuuFctAujP4jkeD0GV6T09rjHGqRIE7xYiZFV1mWB6JNs6dHMKgt5ONgSmDKJXJQkUyvYhBsXDPkJd6J9cJn6I/78BaPFuZnrHqJ8pL2AuxKDtQ19DYEXJovVAvH3bVsH6S6L38Ep/7UQBAahwAQLYXwA3wpbUN5w/0RAhaAf601C9XP76kYPgzjSFU6/fVOzF+r9D/AZT4tVKgCbFKF0QDJWgGEBARDY34ipv/6QNktVjb0CBJREyQ8XDVwuusowRA6gKUH32vPeeK/MqSJ2PzVl9il06WI0LY/rdZD7QWIHqHMjuCgC2BqIAUHMRi5ZURtxPrFa3/uARRGtIdIGGixjNUei9xFdcGpEfrYl+Nv821X0eFNAHVpQtgfSQU5G3trdj7odWjsgMnjX5CAJbvY38ETOYwEWUviUbsjizcvPQje9913YYaBwAAzryXhSQCAEiC6q9ah8X8+RkAgAEAw8xLA3iCAdARAQDiKhI5rQEAEMhDq8QrA6BqXHFBnd8F0D+BeO779P5G7JHyHC+NfkeokxJC9loYUtpbr8nPypxUvnhdAOBxabqgAeAVAIglQw5cPtOsx2rvOT5rRF5ZycsxhmL8PW9oAADWXPnk4oNU/nON1vtdlOywKW25RXFgS9pZ8c8BCIDANMlBNLvYS2EGKJ5iXaQjftQ8flVx1OeaQ/+nNUflNFaRYiUH+/cp6muSGqdW3WOsiykTYT3VWfGqqtV1t20fx8Dz8s43hs/+DgCwtT5i+VA6VqbjQs28vTUA0r9S3ddE1ZpAOYnV13FQOk8DAFq2Rg4iFi+oXOAmrPn2qerTM+RIPdyyBulXP+qwyOohmOS1Dit+YGSKDoSlHqUA1E2rrdEWpfo1d/TSRV3fiw/+WjugkgkAUL8IAEBtvFq7MADIUhoAwIgIeQcAQBUJxpnkXgGAiIL+tEYBgJIJhTs4sn0TUnm4xkpXsnCTcgdb/806xIKu31IjyNj3p9fWWl9pXC3TwHvU8YVvUfZatgOKXG7Pya0PBU5TLawoum6vGjvNeUqihpENonnROvoNWhQBF5tCNEM+R4vthDVu/YP9z6pcFLvHZAIAINGXqOQAwUZALi30GizuNYWLSj+ObUQLJhQf5HdcAQDWngSSZE5GF15g6jG9tD46NJwkhfN/aO6yseo9SEfDvqXGCTy+yaAf19b3lUwt3EyAA1lz0bRtZ35aL2t0/gXWc1mHii/W/MGc+wFcIDsP2MBBSs+zSPV1kxX03tUl07+OuXDdqpoLFUHLCcA2Wc4x+edb98n2LJExsZWy52eIhnvwspdilpCzxWa4ye4UfDzv5J+p4MkGAHhX1A9C4zYZQNVxK3IenZ5qPVldYxWqtvsAncqIeiR4aXWlTziIMJ/4nfccBXt4B/T7O/r1QMDxvfpa9/mLWmtt6mUsxH+2vQGAssmFgxXAXKF7KOZgTh0ngQWgYyKN/j+7YqKZM1EK4vOaOaMzA/asYFraWqvTNStrdhQ4ANNgP8AeaiZZ28gQt9QIQgGxyHRw2FbgxKGR7IijebgvQBzCVq2tZQbQhMpOBorsNhnqbmIHaGyQ7RXzyP1aMd5sfc+mApd20femqWTKiFcCXrFewQCgBEZNBZ32ywrcrpVA2YctPdsv+fNkAwAAI/vL8hBlfJTsmW9a+98X0+tW7ajvyma8r87gh2leHYDwGArdPB8Zscj+JcldsceYc9G/XqELAHZ2069Mxh+if+wRiTLFYG1cVXKd9Due5pocmr/UexqRmpn2cnzf1q6o3V7v7gK90IP0804Ig46TM81HzVh2xf4997zvitcUY0U0W9RkHyzRSNuWb7fLwp/NHsp9P6/9YKVHv3f6MVciinuILXiwmHuA6qacIQKOkF2Zp9+/A2jQ7zvoVxaHSZgclNah60KGFlZmNIv4kta8kWVSa99ZrLX4fujIAAAg2+kdkAEAAMBa15LeScO1gBgBAODvhgGwlLmWcAlA1bTNM+tr19ykdUhxv21TKkfc8ESPIySOm5rwsmNEvwX4nfozA0AuVvaIQifn/nK3kvKO4bqvbVnTHzMAwGDPIosAYLg7kLQy45fst9ikZXbusw3HLze+wQEA3DQm9zpAIsrXaE7uRv8+JdYSmmwwW1piTMZ3PmshTDRKddl//qRyoBgzStdWMsOqFIPrS5GqEBDfRmvYJvr7lG+13uDWxTmQxO8Q7cGshWbNcK1r030pY7Li4siEX/hG8sHfAQC9iO8n5eakuoEBsggbrECkVzXID0qeok4S8EDt4fBA1pLsSBRRL9MAuG1NMHj3pudUVCEgmF5bv5c2Ybw096WG7H35vCNe9l7m7q3OvJH1I3MyFMr0T69ADWTgIQQ3qS5Q/2C/MxeBXrepJRcAmBMFAF6MBAoeRABnZewgFftB1mtd9lFNYuP+0o09aEQwMQIAoE7ulQHQWgAA2hZih9i+RS305gsVvF2CUHcrKC0tndzrQJU3Xa7xgMJb6sxuBxjF90SyITwni3TMZpAxoLZI4/N+aSSv1YAQMcxfklN0oIAGwCtsutIYs7BXeK6mfMXpM6jq1IfCLinSoVWLJMJib4raclulL/zGznEU+V8SANB3PofoYH7uws9iVDSTybSdyxXLypqm9QAAdbAnSASGGlCon2rfKMNza3pa4OH4+r4FU4oP8oXDoprZe4LkU6Jxiw7mn3TeMaG5ReCAVseplXcbsS0zBl37Td3/BzqQrVNqIEL9PtrL9icxCgAwXgHyvTknJZSJI/tOFp5nij6PgAZrTJ0vZXI8oJFMAICDIcrMgyunWIW1pYwTlQ7aD9cH7et6DVnw1ffj+qekBWp6qKN217MerE1le/25WH2Qpd9j8vMoMK7QzxaIxfKp/vx8Smrg7dcz5lW19+GfF9qeAIAR6QqpjtI2WiBp1BNTWsbBdpWT2Dr3h5XvmPpNnBdM/bFrfS4K4kwFLWXqy7U1lKLq5+s4reJzFy92qejvbMbx+9qDWmqkhsmOIvSG4nwU6Hk7qsuwO6K4aHCMUMkKDKPWNNYdrLbQHYEJgPAoczQKDtVqfdOJTClr10J0J4OsMfWeb3b9o/ja6SaDA2ipxlo1IxRmDP6sVdKae2rrv0k2AECAeZzmG/Zg/FlzCqusu6WKPf6910vm7rFHUUowEO6d4hPN3nFk0WjKpIqjwJuP96UxIC0Xd5n6ca5+9oOorZkaG7voz3loczyk/eEBqVy3JKQX6xtKjv4lH++ovS/jbaHeFZv8Og4M+r4Cvbd99Q6xNUkj9qEkDZ2LlkS7GH8kORChgymihg4F4xsP1156vnwC/2nKyBOfMY+8tthBgJJKmCSUuyCUyJxCAFf3LcF5V8CDo4u7mYr9bFgv2J8CrhBnbG1qic0cfFGQy8gyX/n7uCDE30tHBQAAF2EAkBRQ61AlAG0DAKYJAIAB4A0AQHi1PL/wMjdsHBi6s58/mnWUdUfe6Ua8NNG2xZpvBPjdbhJnUXDpLQX6N6UE7G/qa60TtQgg9FxoXAB0/cn53lwAuA8EugeKrQqIB41dA3625AavXeTkP74xAgDc88KJRX9SbHuVBuLeANAwaG6VBgCJIC/JOq7F+gIIXaA1Fecr5v/2sluHJYXziD5CnIbhhHQPrWyYR6xZgOiIwW9dPdvsWVEmKZ+/Jq0+7ZZsCVQm+p43ts/9DgBoXJRMLNxNAfmF2mj/rBefSU3clLyBZpOJqY5z0LtQNeagaPqMXH/s11W3eH1hz0j9DHSVisl9ertWSLW97ilMVoKlh6KKtahkt7ZBSzpGKr54NUe0B4zzwHOOz741r9vCTxur3/HyXY0BAIgfQjVC/NBLgwqPoNzBCtTUPAMAoPsAAF7ofQSV0MnPMwDAR60AAA41NNPvpN7sZVEBACAgOkPoMWJ2+uK1AEBRfdriUn/1P6UsfKkWns2VRXYIuBD9Yiwkgl4i9IYCNBlfAAZN1nIFd/fa9b4pecPmz429F1OD6vhOU5B4sg5mxbVWio96UOidH8ppAC9grAcJpgl0WMBAvf+48i1DKWdM4dOtL9DgdqeF/dajd5SWlsWLm7Q3AEDtl8Y5GgB/1HO2mgEQCaYfMnZkUeR2jiyEbqsL2Q/E7G/ox7JJRczbf+k7ezEGqM2mlKIl9erYO8A+CJABGh+lQmbsRywVoZitK3IjoTBYuvp7B/GtSQIaI6KQLQe0BGgI2qBDQpZW/VOrbNuklFTfjT1PnVcZE9FLJgBA8E9pA64NUXumJbZqB/PLA5Pt4RH3Ada/pff3z6xeVd3XDrlbaDxupgxyvgBRHTygAbhrIsry9ndat76oD7lze521YHlzAkBe1h2vn21PAABxWZXpjFQvHU3d9veqX7yp4BLNz4MSFopCwAwGxo4ST4zWYCtYUdZcpRh0f+z5CZL0HzAw0ikt+LTz/1mjCy4wAUwijXrzwXrX+wtsNjRn25rFu9XeuLWu64elQo0rLgBNeca39D0cwtJD1UZsEDo1QRU2qjCQtFYi0AY3k4JxBWK2Ac/ZhyklYU2M6hMQqD0eDAVv7T20YnZL3/lL/jzZAADgyKAKvQOxJKLzTeVezujV9SlPo4Zu5ptYi/NW98l0qsObpDihrV3X2UzrV45+lGHWANdepf+r0K+vfI61WiDhP/R3UFuzqGdHVwGF60To/3wf9flXlFxvsocRgEGVKxEmzzruIxowUiF0qUNIZ337UJl/1lGYAImUpJGRh0HIWhpQYk7sXYEf2MJaefreYuMCINcCyrMSBS8avnu6hzHEvofuBRl95lU3ja3oWq3xp9XKcrFMsWvM+Oti9myo0/xb6UGJBWE/HFI5XlH3kq8axmAdFQDoJJYDAAClGJFlfcPbAMZcABq+x4YaANjDUQLQOgZA6wAA7gntII2V4equnYixKFOBMcJhNZF7IR5DH+UkAfusg1Gxzzd1xpip/u8udoEANWsrEiGshY9kH21YMF4ABu6TsisAAER4AQDEXv5aTMQRi/z5j220AIBKXKWFcJmeHXZhJ+MCgIOWBHRbAhSbWvMBm1lnthEDDTYAIDR7UVRnhUQF4u4+Q1zUpOcsgq4boB/rMUlZtWX64ZVLK7tNSwYL+5fcn5q79m8eAODwm27VHavN8RxNiC00gX3QPagzo/6LCY0C//kSYjtp8f1GXVcN3ti4+hrflD7nzzd8EBo+muHqlAO1aiob6+6uf+t/o8vexrbiU1kCJlLr2djLilggfWrEABH1QX9An/tCe9RtwbD9VPxBpjUDaX0AoMjUvbUGAAAgAQD4808vcSvtCgDAAED13SsDgFpNqGPfpW3mGQCgRhP1Vkof4gGAUE1N2J+SfoYOSoPUD4Wo8oNQI/yVaNAFZclcnxIDZUYAABR1TA/461WfX7kWAOAwUxhctEPYJ+DJtQ7V5wrlze5bFMgxdWJkTRbrcFmv2MzUYqseis0AezcWQrOg2RJEcd3HFZtPnlNV+mVDUaN2BwAmFO5rO87lCmD/BBWrtSUAuar1OkbBJH7QHMx1rR/1f2NDfmu6PHYNBZmDhAAAIABJREFU/5P6/3DnFPQGziMrT6A6qvAic8hpzF6rsTlGTRlZcr4H5fxEGwcqwEZKhRJRtSZ4PfCnmdY5FeOsbVd/EROzesjxyTKo24Jv1jIokqgBQHkNDCRAtoiTgv2RrDuvzj+7BJRv7eGTZ8ZKsbe/R1qozpcervOlhX1paY4d8jlh7deOXb3S71T3s7qvsQZ+Emwvxf/G3kV7AgAV43vtH/aFr1FH7cl+8qb2hFsLzjU2sYk2RCwR6uSdx6vBN/fv2W9gG90sAOCtLuBoLbfiuoXWacr+HaNyFgBOtQWGueFaRUIBuoZcx2asTjJApjdHjobfznMwbxCXPEAlSHsvf8sINjHGm2tRq1KV8rhTVP7yuMqhjHn3hmrJBADok/1E/x8qqilAgBGrs+xnHL87Mi+U+xkCqfHPyThW9X8nJxhOT02tTdUGxsEb6KS6ZlVaTbd0u6YuVLul9o0rVF4hqxE75V1l43FX+CBTNrTaExJplD3iDx8F9hP5J+YzlJ5MFADA+EsEAOBwjdXpaVEqNCCDOuArxWd5Ahb6sl5SXz0x/ywxQ7yVgzW8afY9xjhZQBwI9tQ6BxPOAGxxgomNPax+rHlhT5AN5925g2XD2WDQdlgAQPEBDIyOCgAQxyUCpMe/00gJQOsBAPTDdGw4X6gYKvLZjHMExJ/M/rtx2KAsoKnYn4M4B1AsAClJiYKg3J60vmwhom5P/ZlkgZmoxI6AC/f0PLlF69iG47YjAgDzJ/faKuC6Ys4Ze9EelOlOE9DzjEozE42jG5u/gNDEMrDP9lrxjs4rLxtnI2JuUzrV7PwnYHZkY2tdk3/2wre1RjW/YSW8Wrb/B3/zAIAoJttJzAaPWXyNssjaY9OGN27M/5Hsy4Wy/ttx1WccIKh/+0QL/n/yskpeikd+jWjF1ILNRZAdpiBF3p1WDwSBmLBPqi4bXYDWNMYiFlon6nDxTx1mCJLUligIf1RY/Nj8IeWiNbd+EDYEAMgYGwaABDc4uHppEQDgplidpicAgGAVZPPVLt6EEwma9lrxrnVeOQDAx94BANX4YS3SGgDgMOkzQJcz3shxDICAZXcXLeRcrSZH6u+zEP2iHITgZY1EmxJpbA6oflO3BTJMXTnewz7bmZg7aOEP8deYM7Z/aqq9elvH8R/v+NzDoUyqCtRXL0E2atE4eMRqsQl8WPyiCu+wV8gcvyGkdbo/tebteHG82He0NwCwcFzRPsoUcyjfpy0AQE/RjfHAJjPPYq+VfZ4W7nFi79xTNLTUqLmQoZWk59X6nuP0n/55sk66vvAyozSdCFODa0DHRyDr6MWPx6j5ibxiY781TZahZLQS3dAoczlbddqoUUfrwV+QfeHIfKvnB7EDQjIZAGQMsKLcRCh5hKptP5jqhK7pEdWhaO5BoUianw9HXKv1a1RCnenhQ+0JAJROKDpdvfBv3V4vAXPWg2ICIRC7QOKyiTYAAHzSqWGMaSm09G+Z81902laHvSGGgp1IIwA9WUrvrDmUvampJtL9n/KhBKH4bTvvdtnTGlVwkdhFlOm3rSHQlObWGF2dg5a9bEqe+td+HwPaYxcnwAJ5kv6NnCNczWFbqu229WRRVsmPbWXAte0JhCgmUQQQTYQjlj5pdGXIuuuZV2u9ukNyDKMLzi4raQk0azjfIuUnvgMUQ1whgbtdVUZhv6AExwSNiW+NMn9iISDvBzFiMmZe2ufa0+9ReRO+3YmAqRy+YzoUfKfaMr38zxSj9dQ+taUYNP7PxGpB2BIgrbVZwNgzEFshBgibak/FEBwEAF6iejhx48/oENRoHsv5ydJGYr8q+v9jP2V3n731MT+LcMb+QUcFANA5gAEwoAMyANhHYQC0NwBAGWZZbq/dVGJzrkDJg7U+ZSIiTCnm+8pUA7h9L3Yp7gyMV5KIXRXbkZCAccX5gpIrDp9xOFJM1wUWigHPSOZg3QlzB4AhkfkUP1c7IgBQMWmTHNeqO0lx4BDNu76o8T+afZSJmRBnbklIu6W1ir0UhjUlQbDe/iAwgDhxXZCdoMfGPxD/P16StALCD7t19suxGLKl79lYf57Y6r+x3n0b78tk7FcF/q4Xep4utYM2mgCbynhtjkw00HEoXyhzsiEbOp4typtrTbVDoTEFQ8vnN7wFDkq1bu3fRXWVN7u1nSap/YKscKDBYRGCJVZrWsyuDREKRNQ0cHW4tj4QFW90ILP+pXgBMK/XbwwAwB7osVYAABxUEXiLCjW1AgAYKABgP88lAKB450stn77xygDAsxUAIPJ+EFFKrEHdAgA4rfKu9QAA+Wj3DjvOJTpUq5bdysBKblz+UFNTnmjWhSCEbC/jD8EsNTJdD7khd5wWHtkOrNtmD986JTt/+ebyYj5OC+ZR+mlf/TIbSGNN/VQrmtkX2nT+qwBzZnpdypfdzpsHLXs9RLO9AYBy1X6JPq6sVdsAAOqNjXWeBHaKtbALmJun/xsXDv4MAOCkoHn0b20wypBZPg5LHHDIkCXaWBt4R4j04ameaENg8GNZQ36RsW3CokF8Dwc05li0XvB11w6P/Cmr+xuxYDRZAAABOQdC2Edka9UYG6PqavzX9z1/nkkRd8TWngBA2cTCK3TQuoJ1gKANNwtA4UREH2N921+HoV3kcEKNKrzERBp7TaU/14zjRJwsuCbZDzQmELuNAs3Qgx5TcJum+XEo8wNmkczfRUU9JmErtpbuF1AyXyD3bhJow1oVxeZuobXDSxiEJRV860OcJ9SPXyjz/3l+eVlZY+rVLX1Xsn+eTACAQ0FEs+Rh47ahtlB7yDjpvtzZmmBz/sRe3VOd8JHKaZ2vPty6SkmIx2WtSMmRFwAKphjsuojAaeKtMiXH+rzTdoau35ILAFcl8CYQx24ran28DLcQ4UQBIYg7awyYJA0JGpxTWlsG0PAJGH88IyWElDnAemLviAopMuEYjJ+qHvktyQLMqq9zZwc7+Uv6DJgn3Yr1J2THBQBWRwGAu81a35FKAO40AMA5CTHp4t9/WxkAZpI+UpTuVDkH6GDIWQLLulTGe8wW90cd3kkArhYwQPKFsQbbqr9ss0keRDQo1l/XOfhjK0op54eZuwjQ3cYqD+RbdU5KwuBd7Fk7IgDgyp69fNkKZWLkcOFaOymp5QdU4Tz1rsoB2goAxvY86P19auZJhPR1IxCK5hZuRdHGWWuB1tBXfT7tQcHwl3V1KV/1WT5vRXs6FyW+6ib+yd80AFAl5e/6sHOWRLmOU34qd6lsdO4XRfte0WuoNQMd50B5gajlUR926t+k8OVOCri+F2us8Dp0PLo9VcV4Qb+9lehAAxQ4sRCkf6ns7+15Zxrl3US9axu+QhYHatYAIhBuiwpRlEl07h7brp+af1bFvMRf+7qfbBwAOMV4MHtlAAAAUAIApU7NIwAg60QxAF5pBQAAcndeGwCAsQXDrG/StmgFAPBMFABQtiKOAUDdv57/ch04/6Df056jzCBvmMm6JAoykJmgRh/6NUixhuNPis8fDzrBMb0HV8g/e/0GGl2e30fK0MG9FDTtqmBlKztsFYStcKZ8m1O0xazSvSmypB7bnS8A4C3LF357WXn3iq2unl3fVIbpVw0ASG8g6Nr/1rPDk3aeV+0e3tVfqQQo0cb8JHg1rArCpgQbawwsDSiCiWbjYJucIdYJ7iBRmva7OhhdX12f/nLMCjBZAACByukCuE6RBU5kzXFFS3T+U2Dn3NaQjpzgI28UH2svAMA62nJLpxReq3X6Ej24j1r2a4quEgvgnwm/bzqMAwpgDBlzL421BsAx0TWHa0NHZc+jlCUalI7Vzf6EnanGWT6BLbZ86KZ8JuHWZDWeDUbLVtVfSajqGVNGhmBTtMmzXYB32L0rkJLyUk7p3KqNJfhKJgCAlgz0a0q/mG9ak77AtSStc+rj2Sd6F5sqH5vX003xH68laYj6cVOAoAfkqPBIj6OtikBuwq+OgzCZS9W+J/xvIgGAz6xtiY4/xjmlRudLb2mtno9rvaJFVckWW6K61jYw2jgEoGOAyKDXTGhTD8BYB1AlhgF4R58iVhus/qvW/vmxhKLv8Uv8L7uypLI58Ol3AOA8zyr17DUAP5TSRbUv5vh89g2JagDcmTvAMAASKaWLHwPJAACo01k+sVe3atv9u5IWJ+s8sZPWyi7s6ayXsTlAxppxxjj36RcW1lGQaZ1hGTn49zUHf8Y6TC6AVw7+rc16d0QAQJ1ii6W9rWFp22Jpi027OJAtbbV/mnLa0tTCVvdHw3WAd0KSAzYxmm87rv7UlH9H388irQFPOaHQ7cuWZH2+1XDFyhsRo9HTohz34d8sAIBqf0pt6M+ajBfoxe6mPkkl609t45uqV2NTCeh8P0C+yPhu50TokLTFouTN1qgwZp2NNltJQNfqr5+hzJtK0Pdoj6OsqbKTWJiSOO2z4bXJCB+0/GXjRUsWUF9fp+u/JvvCm+sWOW/3jQpyeR0M6wMAhcoQwAD4hxYdbyUAIGcwAKIqvp4AADIFk1UP/ao8pvEzTrRx6IIOjX3Qzqs/8cwA+C8MANVEovabaKDCvUUYAI0DAFqstnVc91/aAHbVOwrQl7AMEG5JdAHHDopM2Pl6LmjfatUKwp8LO+GRRQNLjU9SY+0RCUTtYRWlhJb78lKC4c3CbjhPm1KmlGpTxT9ZpVrsRa7PV+n3uxV25+pFPb+qWtNSMP1rBgAkOPg3+ZxdRYZJ/enwrjjcYKO4MTboqthRQZWN2lh9omPh9cE0/3/7DoiI8iULAOglAcAzJRxEeQMlKRrL82VH9p9vKsqmN9SJ2Bj7qql7ai8AoHxZQaqCwetECyUzZIK4EUVXyiL2yI22u46S2CPlVL1rZAWo1ZQDqFLwL0dL5SSUa5vnQCPjgZ7HWZUeDpKJPDSBGPR33EmOFB2ezIxsJrWEWSs1zt+Rd/W02oD/FY31jYKBkkwAANs/3DYQAIzQ0N13tL/fZPtCM6V1sI6bSCJ9uWhCn7ygr36AsJVBQhN6owdzt/zhn1J9cmtLEhP53tZ+BkoudOiLS2+W3hFOoa78yqznrbDzEmJoGgMwNrsgTvxs90PNIcCrfW9z9xYDcgGe9hEAABBFbXC6W020t0rJnw8E5t0l0HxG/sCyJU0B5h0VAGDMUQJwqhhzdH6HYgBItwoNgCU6ICYKpvOQyQAATGep3G1Rt5ye4fTAzioDPlg3sa9iCuzk0hKdD2S05ypGfF8sxPd08CcmrkzJNSBConFjU9/VQQEA64cp3bt2CnUWi8k9R3NfFn22n3JhxJNf6bZ/0gBA+o3DPuATAoGHLX1WArWvqPy60jgf6bvlSOI+5tiBKQWD5hkb7o7efrMAAMrpVsA5XYHZAE3UIlQeH6O2RPX/C1J7Ges/kGAOlVgPRZUfzTzXL9IwzaX56Fd+Gb4/ixEoXsQScI9WD1gGJzX2+DSTHems8gREzbQJTfXbvnt7DvpZkNDLwGwcAIgwAAj0vLStAABKRslX3tj4eAQAto0wALrut9Z9IZHvBgCAocG72kmondcSAACAsVEAIOi5BKBxAMAN2Tv7fMZWDks0537V/YJOQ19MdHPifWN5dVnJTca3NDLu7FescGj47VVl78er9DfWT2hSWI9qDPbU79/tZH9VXmNX56e5K8s/caukKXv00RrmLSluRS/8qwYAxhceY/nsf0WVzh0s+bDm80Iv9Stw5YCMSrk/vNaWvYXhmzhTIH6hpmbtMAWmsSyhvuRz7U83FHRKedJOMgBAzTkOANBizYFEqvBG/Ca75JkNXXudyNrQ1GfaCwCoqMjLCvl91wq4G8h0hHZ9XdEV0peQU5+HBkUUSjw1uomxABIfW9xG/PjaRzRIxCwBmoyfvGOP9/nc2+pVnh0tl8sDKIXNdEfO6aYmtbXMtqa6gLUP3ZtDpIFy7JKH5YLyndmDdZ84a7wpJsDkFLvu9ZwhVZySN2hLJgBA1hu3B2yqeOd6iy+kSN+jZ/fMD+1Gas1bevCS2wuLnJA1SOCvXGKsgu/ka32HYpznpW+SiEJ57PpsE5SfdAm25Hjlbdw1vH/eO4APlmj0gb52tQ5RL8pNZ4rPdYt1CDhP38AhwJ4jpxvE0J6VIBj11cls5nnrlxgWACVkgBIw8tRw33hXMuHj/Xbo5aZAmY4KAHD4uaz0xt8BANe9JSM98HS8VXAi44uYC1tcCXIWycJkV9sN/1HQ5RYaTxKxtHP1O6yA9coyYWlx7kAvAI2VWZ12kMhf5OAfixdjYxImGHPXK/OlowIAsCtKJxduJ+7EMCVWj9Qe0H21GBIvScsE5wf0tRIpL0rk/cX2Qj822SrPOHLpE8bpC2tn7bvcSqXA1PsDtj0x9+wFPyZ6zY31c79JAACl6vxQwZ8U2Vys2bW3Xk4aNP2pEmaa0e3AtYfP46seNMrLEfXwtm1sTNj7Rb1DXA9V0NY2Mn4gU9AEoyI5UCOfrwu5oxcHSj9u6EebyPc0DgCcbAAR7wDAV1EAYCZf3QoAYKAAABgAmYncuvkMAMDeUQAA2o53AOCQOACgyZL59e6nKQaAFQxMt1OCuytYEQDgbkWwTNYFDQCvJRXQvS+WAOWfl71knlPP9p42mRE1wbRXY3TvhDuqDR/8VQMAUwpPscO2LACtTTgLTRFTBxcQLxaYvBuCd+qXc4UYJ6+tv+7wXdQPckCL1ql9LEG064Op/ueTzQAgIwngiAidCYBd613bDl3zdnb5zGNkf5q852zfK7UXADB3Ud+iNF/dCAVxJxHIfasD2A0SmHy52wGeHrivDkUHLZ8hF4AvzcEweW398YVzBntLhPGh3L8rBkCKe12w2p8TCIQut8Lu0QIO19oMUjL3mkoClkugKZmNPZc6bIRQT1483YDfgB86EP6kYPAZOyScrmqTz+zhryeKuCXz9tZeK5kAQEzLhnp7A3jY1hOW7bsuv3z+563RO5g7qU8fWQOco9d4ovqtJ85GCFAiRutlj+Vejl3yiJwamhYBbF0w2XD8YdFXoxrcb2K2rRJesp6xHd8YlVYJEQmrZNM6Rr9yyJZ+KjE07HUZf1jdJrtBAd5XNpXYyO6welZMdFUWi9azmhhjC315nzRWCtWRAQAYAIjmqnUoBgCx9W1KskARTzTJwkMmiwHQcOwhzBywVxakOIHNw451sH4uhya3t0KMtUJTxIZlqunn4P9m172NuB820Q1dAyiN2lEgFImgOambWjOV+fYC4HFvHRUA4N6/mdYjs2tdp7+IzTpUmxLqs2nEZ89LX+3+HidYWJt6Ye8msk6w/xBjYSN95OInjSYOAKXmfqkmxrhau/6u/mdVGmGkjtpat2Z31KeN3vdc0eLS/MGTwiHrLA2mvqiygyJD0Z8T9YIn+IGCyOKfqO1SS92CFeAz2YdaC1J6tXqwshGzERGUox4aEQ+xvgrb7jjJBT+2eSsskRoCAGQ+EalCbdMrALB19WwBADcbWyc1TwAAdU5Yos1sFQDwphGuai0AgC0Si4gXJLEpAECF9A8G7BD6D1eqDzavsdOMzRvCJV4OlXQgdbiIDJKFwGte7XMFHmPqawNPt6cI268aAJhUOEhaDbyrIv2yAWom5Q42Aj6JNg4m1I1dqNrVTWXZ2G4tYlfzjKghI4u2KPnU3tcyh6FklQBwEDlbJVBYFRGEaPN7Xc5kIwqXlL7eUtlIu/VBK76ovQCAssV9+1t23TUaVjq02NbnEnu8qfAS63WJgnppMIEGVtxuSsCi9bFe/nnrP4vmjWWPrKvw3dnn6nm1JROL/iwhtKv1KLsRZZO5Qgdgulgzr3fZR0Fpt9Z/VyP/kuFNXeahAr1hJWBdqrIEpWLsBbqPO92a0D0F55YtSOqXerxYMgEAAvyLS0cbzZdI7an7iM9yRuRmL/y6NYybyom9+oVs9yItEv/Uxbp/nrGdYSLitIMDSaKNrOPwhf+xTl40vc3JkES/k89JfBI09XYJ304N1zqL7U7ungJ/ztYeeKB+mkkWdJbGH6Uor3XdRyBAN0+Hv0TuhX3+QMUzx1U9ZBwCDADnWlW6h3s1DicXVcmJYrh5WWtbRwUAiHthAHRcAOAcE2NtDACAq1LMhZXFuSpf2l+ORv/UANlLsboJKrg/ShU+ztjZjFsYwvNTe6938Gf9g/n116X/VRneE+ZAStkLNt1olnlpHRkA4DkrJuXmhC3/Ceq7gerH/opF/LxrLKLpk69lC5psEIDv7ac955Sqe005EIA070Tf/6VKMkYU1qc8bZ/z/Vq1QC/vY2P47G8OAKBOp6KoaGedoy8WigMq1xm7DgREnul+2NoAJkNK3jl1ixRsSfOqjdn/2IuGtkIGeKU/s031PKiGHis7QBgKZAKNMJdlPSaq0S1FPUpmew0UGgMA7hUA8EgrAYBLVQKwvzKGaq0AAM4UAHCAp+wEAM2flJmArdEaAAAUkRIAFpBkAADKVtzvWhLhsyyyylsQJAMATPCYVaYDIyr2j0uJ/V4jAilMfr7G7e3YcRefVaLgvH3arxkAWDip6EzR/wEAehFz4gICAIANqJf2F2X/LywbY6zaomsG1nfwxn6Jxi4kONr9UeDFJLs++GDesIrFsZKOZAEAe0iQa6gcAPZY9Z5RL9Z3zgiGnBG9qha8+zsAEHmtrHXnSrwKtkQULH7QsZ1r87IWfFu1oqhvfb07Qh33T17Yl1JxvrHwYpOx9NIQhztDXtWA0pSZRFtLpWhevmLtZyPiRsq3uu4yiYg+IQX6Se9pX4Hx8cMN/bqmdq0/Xp/Bm3kL/SMHUbafD2H7msDUSwDe0k1yEMafHXFC9Amoz9b8klk7ooDWralW7YwNWQqQLACANYPa/4tU/76tAB/TbOt+lfeMuH1R2ZyWSr4a60e5APTzO9I5CrvHa23oDsg+UUA0LDsvAADj+rKSG432CNo0v+T4M9c20hP2GgEAb+n3sfkpvjcpb2IfWhOqPUjPcqY6Zw/9nrFG1obUBOMM8JpAKGzgKOFMZqMc4PClT8uK+X4jDEgiRpPkCzk03BCqsZ4svqCkOv77OjIAcLkAgJM7IAMAliUaAFUpPT2tP78EA8CVxlhZjbulQuC/azDLPcXWn4WhC9Yj/ifWfEtaY2/oF/bT2AY2XDMpvyKWILEA67dv7VxD+yeR9FsEAJhfsjXdQmzNM1SQf7T+s1C/fIg+vtj9z9Z9PU40ws1eyngTWSNYl9nbh1WMl0PJq0aMV/tfUJvvg7LkviF/8IKvzYrVAdtvDgBYOKYoSwnZo7Q/iBZnbSVVTXtG1wON/zzBWUPqzcb4TtmAd5c4HL7Q/G4GpBRqNQLHSC34v17VgtcHAAqsCABwdKsYAG0BAKZG3RK80BPbDABI9R0XgGQBAOFQ+B43YO/ms62rTb2ia9tkyBAarAh4K/8AkT9Y9P9BqsNGk0KH/5+EJj8sF8hbCs8u+7a9xuevGQAom1R4kt7Rv7Sqb0rIfbvUpcmSeWW/UC8KCAVDJ3oQVJYIz3J3pQ7p3uTbW3ixio9rdE2oaB84dv1redkVC+OBv2QBAIhrDpX1KCKUBgCwrOcUWo/Iqyz5+HcAIPKSmgMAyqo2KXDtmhFan08hwKNu+XqVAFBq5qUViglEVo5DMBoQQpYQgJ2nX3KlERk+qU35VttebofD//Pb/heW1we+ii83qrqld359eugYfeXp2kO3JBMDHRvBqsclbviqNFwqpR2TzGwM84n171T1wcEqCSArRnZYAMCDwgcmFQ4pnZOonklSu0oXSxYAQMBPqQ0gorF9NfUX9r16Gdf0bmW9qdE68jnDdDGVoFg5BMiUOFEC4EW3gf4fVDHV2I+a8WcpVLJteQKGS23XSWZNiq4tfxrXXqH3OUdr3Ovpab4P4muxF95RlOWrsw7WGB2guHs39VNnsexswI2nsw4zIEBZakHCdruJjgfK8YxDg0A444jiunIGAKAJjcmvKv82fj3sqAAA4CIMAJgeHGr0nn/Qr8uUbHi8sX4ioVaW02s/bW8COa3dmfPP6B2MyW9/F4C7FbNSAkCSzQsAmWQAwJa9eCer1r9bqN46UXNEC72br4O/jzWSOv+3MveyXlfWn/MGYFXDdZIDJzE9cQSJPg6dUfanAQA4q9xpGADedC86OgOA8TdbtoDdly3bRqKgp+g/Ba5Yhew/9AWCgA9lH6t9aFur2pfuaQy0tAbA+sHZDIFWwFlTimZZCxzLGekPV9+/IQHolu69uZ//pgAABDoqpxZto5TcufozMszdS1KKZPt3krHFYeFg8hnhI0UVycr8N3wBoIBM+raoepINhhKJEjiMADUp0rr3OD7/+Nwz5uvQkTgi1RAAoAYpBgAQyHlplAC0HgDYxpRhzFR9rNfgpC0MAChEAABfpYMetl0DIOS4d6v7/09UxX9rkdhR/ecjO4ELAC4QXjYnU1u+8iPrgvJbjCOArivHOmuGHQpf911V2YftpcT+awYA5AJwjN4VbI2t9b4c1gMjAiiLGS8NAUpAOcYiDCKtMbN0SrkvFArPsh2HjGXSWsB2ayXOtsT5qXrRhOrFqxtmB5MFAPxpxZtiAEwwdqgEJWpP2k74Wnmwz/odAIi8zuYAgO8r+mel+2skAmgZEcD5CgBHGhHAQzyNBQQYj9fh/0wdwCgL0jiV/7j9oEq/HpbA22pPF2vhwz5/KOTW22v8TrDszezKJfFaD+yhn0zdyZ8dXlIoc7d/iI5/iv5uSz2av9ZJNcKA2Gi+LIBjniit/J2X9a65W8uQ6O1+KskDDIUi77Pceq2FUmV3xzgZ9TPyTq5Maj8k2qfJAgDIKhNkni8Hhq3WKKlkw6Cz7rJDoWsLhpbPT/R+4j+HCKAVdAbrEDJAwV4BGhTTJNzI+PPCcELk9Ag5MrAWcBBWgxo5U7HUYzqsJ7UEQ9dz/Y692q0PVlVb6VXx4FNM2HbR8r496utDB+vdbRVgAAAgAElEQVTgebKei5rgzmLa2cwvDgLPSWQTVx8OXckafwCglF3iigLTMAKI2l9rDo6sqUt7NP4+OyoA0C0YAQBOqup4AABlqzAAAO69vPNkAgA6/GeEamTCFLTP0N5/EGcM4nzKCWeJpfKihOvwr+fcgaVfY42kz+4r3zdsJyzpADtjDQCAGPnO3NPk4pHtaUn4NQAAAE6fZ+Sm53YJbBMKWSepaw+VKHEBIMByaYB8LCe3Z2S5/Y5AFsZBMkFo9NdgQFEOACNI+289rgC+oHV93rCSLzy9jI3kw78pAECiHF1SfbV/lZfr+QrIdtTg8L2jyQilBr9NNgt8tVkQQHgb8+dMxnvDcYB6H6grrR2g1OMSDIFImWDIFVHTtd5wHetmnx1+3YtlUOMAgEARMQC8Wjy1BQAAEWVxQyCrPQGAFw0AMNSane5NTbQ5G0CfY2+tN/IvZQiolU15MutwfYes5VL7eXrn4DgoYKMMjfNDJ713sXNnafEZnWanPJs16Me1fOBkjM2mrvFrBgBKJxYfpj69Ss8OWOM83OMYa2zeMGteWh9PXdpfwmlsECj0s1ng4S0UYJSTEXyivQ8nyQIACHgJ+nda9YkBALTGPBEMhq+9e2nZ/1pDSfbUob/gh9tLA8Cq2jq9zF4+UtHCMIJSvNevLfqXsWHz0gClD132rHyyx+sANseSKRTlVXdYoeD1+UPKF3gBfL18b+yzBF5VPXt2Wl3n65GaHughoYlOTjicKybdPrJFo5Sulw7jvnorYBPcYqX7UveDjH81ddnJoGQbhXjtzafIouyIJU+ZTLTaAi2R09IC7p3ZZ5YqI93+LVkAAGDvQcsAAG6TCN7X0Ezr9X936ZB7nfbzVh2yq6b0zq8NhU9XckCUeavXD2mbmHI0MuVe/NLJeO2pMqALS8fELGnXUA4kw5MbioeWfPBL9zrjr7JfbnpopS/LclT4a7mdXCukImhnd/WTLNdUjmJbnTiRY138Zube1pPZhxtRtVWyFG5tnNXwuRACg4mDMFi0HhirhvG1dXU39ztv0Vr1144LAPwUBQDu49E7FAMA4B4GQGXKhgEAKkblZliZ/t1DrnWGhuGf1X/dGXdV/p7W2132MraVn3Te0QBvTQEUCO2it0NyD9Ad4DeiecJyYNkAAHeIoThNDACvgtIdGQBgv97UV5lZVxfuGbLs7uLfZzi23U+9AhNoLzGRhIbYfkAVYmxcdijtxfYUVrcXQKi5tQwm5EViaO0pYEaxubSXrW/0h6vyK0qe6ogJkd8MABChKhVs6trOWZpQ1GPmMoEe1SF3ugQkFsqeiSALNfkjlzxplP99v5DIdaky7E9l/d3UAK2RLkBrGwfD0xfdaSy6DCUNOiiCOfXutMJhpaWJBoWNAQB4PMOK8EpZbysAAP0aemxHBwD0HjYVVfoy/Y7LRPqLssriUIkKsxeWAS+VoAMBouOkRAwVWK1CK9o9vkC92JyV0IB/8fqjXzMAUDah+CAdXq4SCLCn+tZ5RoKgWDaSzfTSeggV/ufih41eA+uHNoalejPjlDEfrwCe00qr3xPr1/dZ/QN1vuWBLrWpoaKikrrmtD5+BwCaf3PtBQB8smwnJ9+qvFYFIBJisxyoitcWXam19SgNBm91yviiny09ht0UhEScAOyZ2suuUznG261RiI/vodeGW/7N8yVYnR6yl6T1qN/q6NmieP88XheMKy5w/Pb+srVCvbBIYzuATIA+kS4wUtZWRtyqm9aiTiGJoCzzdTcK7S8oCEPhGi/rZARiBMQwLs6qmGIsUnWLq/SdT/tsd1TOoNLPE93zvMzrlj67MQMACGcFrZSTNE5Qz9+EDPl92tsfl8WvF3YfQ6FfzVzr0tKb5MrwAskRyk5mK1k/YnlF6TNbD7faxHBCMK18WUGqP1jvLA91re8/7Pu62Ls0/uqFfXuGgvV/0Pftp/HWWyNP3uqaVao/0PvP1H9n6feeekbsgxwcKT7pvJMyrgdb73XZ3SoJNJ1xben9xv88wtJ4WeNvkqECR0u9nlNZ3jV5Zy78OHbPGwMAQE08ByAvjQRYhAHQUQGAc8xa4+XAlwwGgKsDanlo0e4an2epvwFEzeEfhX/KbRAZJ/ZrLt4HYN9ZQDsA095i3kXEXl1KvZTkcdM13jsDAGBVPk0MAK8lih0VAJg9fOuUzNwVm0lvQ9ofYbF9HB32XR+Lv8DnNGU+MwVwCgy0e6rDtC5YYtoWGZ2T57MOEbN3S3OeSAYIyDtBC2BA5d3GFYmSXN3LKDfFnlx8RslSL3NtY/jsbwYAWDShZ+egk3qgFobztUnsroxEAFX+qTpwviFFZgRxOFydqgzeMaq7wfPWA4ve07ukvh1LQCaxF1/4hl9CvRaH/9Mr7zRZYjEb6gTUv6SobHRRMO39RNUpGwMACBIebncAYGsrAgB4r09sSwkAtCxcALCC9HI4b44BoEKCQkUnFwqZ/Atqxe8pCIZW/l7m7oYW66Wx0EDFJuj4P9WFKfiqU5HkjHDIGVWc0+X91vhDe/l+PvtrBgBKJhbuLjr9VVrMQe19b4s+dnPhRdZHopN5aQSDWJahmk8GT8GihoD9qOuEbyjsVvqFV3HO2He7qnsrX7Yszw47/bTZ5CjyXuPzheZKC6Ske/mylY0hz78DABsHAGAdbYUrp/S6LOyGrtDe05l9Zkz++UY1H1FYLw2GyRmiH8Mw6Wos+ux5inRvdFbXTc+7uHX090d08DpgWb/Oa9zaPtoT+2ptCTg6iwX87o8/rU5d0v+c7+vKpxSk2yH/0RrHZ2mObKt7jr9xtC1kT+LO0fPVK6Dop1/52mMDBLvfCER7TZoAiF0htttWAVxA+q2rv7LOLbvNMOAUNPP97yhFdn0w3f9azAbTS7+29bMbMwAgEcDueqf/ECPtPO0ZW5Mdx96XbClJDy+NMTdEbCCE8Ig99J4rtL5N8Kf67sgZMK/Cy7XiP0tsFgqk9w4H3U1UWdtZwXxFXSj8Q99wRgUxzBIxN+tSqg+SyLEyqxYg7VqP4MiYc8l+/KD7qdO466dfuTqIB9AFoOb6zS57KyP4F6Pxw/xrS+kl941FIaVerPWUeukU8LVr+4YXVi54LLYWb1gAINuwH1oDABDTAADwjtU6FANgumEAnCOb7fYHAMpuK+hlpTDH7JM1MbLN4T8lXwr1f7GeyD7CJBMQg26qsa5tXvOt+v0BWQk/H2OXCFSzv9D4nqsxvYP+bX8AAAQA7xAIANDhpXVEAADwr7SgsL+E/07Qcf9oAX6bwKiNe+41kVp8a642gh5aAxCm7YyCKC4LlF0gKg4IzXrX3DtItC9JEJ9fdqsRA9W7rhEI8bC0Hm6SGOBXiV5jY/ncbwIAoG6sYnJe75DlO1NBE+IRhSgVI1ZyjzyMCUygF/5R2X8o9buIekN9lwYW6Bs+e20W8FKdigAsi5Mfg9dmQI7PG2rQ6dYOShYNbGmoSSMYAp1CtEXr9oQaK3j/JmdVViWSHV4fAMg3WQKo0O3LANgwAMBLAgDGyvqNEoRkAQC2z82wgzaepcfpfffAXnKSxFueU33Saidx+yUWCsYmHtgD9Z4RwKJGjNpD/WCCL1z3aG6C77nhosO8mPcf2UR3VUKxk+P2655ebTXI/MX+za8ZAEApWySxq7W5HE8tGevByKLLrZcERHltO62K6gAIsDHBoWwbtYHf7A/XPdkaoRgO/4sWL9+i3nIP0ybzB81tCZXYtQo0vlWQO8O2Q+/kW/nlDb2ofwcAmn9z7cUAAPQpnVR8mtiC/9Z76w34x55zu8ROyQ55aazvMEwAfAvrSqCGahxY9+jXqKKzS37wmv1WCYdzan7v3EA4/CfXDv9Fgcxmup+A9oxKIVfva698Nd3xfwk4oCXoct3/4fpZKpl81kmyofzSmIQtMFubzwz9nAzMvppH/fV7mj5rV6TkWR/J7orSLmo0yVx5WWcb9lFx7UIjRnfE0qdizLf/AXp3clKfaa+SqPh72pgBAIkepzupzgF6v1fqHe0GKEP9PyKn30kPwEsjQ4kVFiyUzSJWp6v0nl/0u+7o3B6lH7UG4Jytw3+WL3VvCR0S3G+ptTJV41nMKecDBV0vZKb7vqgPBXsEg/aFxspQrmiUkxixZlAmga5SU2IQfqPne01/FRYYtIeuI9V1uzMb5WJ/D2Ozxnr+UeYupqyxtTEXD015F44cZGrJmKvJG8y+uiBr4ZRYH/wOALS/COCGAgCkTN8pHLSPUgbuIq1/2whgMmseoBNMG+YZTinNtZ71Vabm/3ixPLH6U2wf0rWoA7pDA7pWe790PKztKVO+q+epKgM4XUCHN0Hp5AAA+8rNaoixs/XariwZaZIj0bZS0/ii/IEld2jeNnm+oqzCzUg9JGSFL1Bf7KTpHGDuA7DE9h8R0eSCZr+m9eNTzf9t9GdZhbo9WB7or7mpfSVMu4/RpQGIWeV0blNJGuWQl4kJtefKd1mC6nW2e0X7+4jCIWXveu2TDf353wQAMFeWHIHa+r2csH2RqL77aoKmku1FSXOG6hQRj8BrmLquE4R8Rm2GpPDifiXU6WtxzGrajAAocNJg2VTXwg6k82Jftk0dz305Jxo1Ty+UpfhBw8JxhBCpkxbfZ/Wpmc9hEW7oE7YbGlPmK/h850Gf1Lc0yJoEALIFAHhcZNpSAjBb7wQGABt1e5YA8H3YACYTAPA54VphPgO0tMkuy+q1TIATizaovBfxpdi7o96V4IugYxNlAqG+aqF7ToHd2Oq69E/jBYhaet/8HMrvJtnFOY4/vIUW0N7aYORr5MwL1bg/FmXkLmp4oPw1AwBVN/bIrMlMu0pzU2rZVhrrwXXFVxhFWa+0Maj/rCHHLn7UiHNqI9J7cqeHbFl0VuiQ1sAvurl3xTvaLKdgE8t25OHtHqs1or8WbEW+AM+2UsDhz1WF9oyyZc/2WVL2fTwN/HcAoPlZ0J4AQNnkooN1KLkGsTKCF0RHxwlwRJHdSwMIRBQKJtDuqz6IuTJ85rrO9dXBlGe8rgE/TOneNcXNEK3fOkMZlD21P3WJDC0bsQdldO23LV/oYTvodFGx4zDdP5QYBzCTzCo10GRBACa0flTq30/XuvSKKJk6yNl/1eeJErMEJvhhvbG+U95FRnaBsjFks1qz7+VpXh2vTBn7NYKIaqrDtMcJDHtEpTZiI7Rv25gBADJoJT2KdnEca7gC7QNkkeV/Q/1PiRPWjV7Wt0jC4Qs5ndxm4XiiAFxkJPe7UNgZL42Ah4uGlhpRhkSbNJlSMwP1ewXd0P+zdx5wVpTX+5+ZW7bStxdYBFRs2FtMRE0ssesvGksUK4pKorFGjRh7V5SmImqw966xYSyxgtjpsH1Zett278z/+b73Dl7XBXYWFjX/jJ8V2L075Z33Pe85z3nOc85SPe9vFeAz/zhwt9Tr0X7Pdr3nZUQXidn4Z83M/QiuyOwB0oYV/MOKIQiXnV2qOav2m9YTcdfu6zkeYNXOmsMopYXI/M9K38R6q+ve1us9FAio9RrzryMHoANaL2epOwprQAc+1xU1TuVtOw6VboOOXyoAALgBA+A4rS8dvzAGwPHy44aLVVsQyK6sbwlA9ejeO7i2e4nm2wGyZ5n4d/iUD6m0mDhjXWATdh2hZ5KPdN1B30tHrUD+CSG75W7Hi2wbs7WSkwCAAZDlJ8MeDnJsGABgcBIA2CbIpc1nOwIA1IwsyI2HQseLoXk27B7W8dy0MlO+hO2nLCkhTgwLxxoZDlmyR9Jf8Lx9FbuBcKokLWRAv4+zdzIdaj7Rn8yRjnZ8Yxz/VnWdmBqvwIKiHeAnYdu5vOCMctP7/Jd0/P8BAIzKLYg6aSfIKpyhN9YXZwTaN7U0OGESkTALkKwCLABT26FMuuN54y3HeV2p+8b1KnDTjJBgUtgJW4N1MWWDrM3VZyDypiYjPcfZiDuaEQEFQx2ee99dPbu5d73Ur2SIbstwIk+1JyPSGgDAsKAB8NhGBwC2kGFLtCiihq+9x/q2AcRYUwLw5QZkANQ5lfOL4iXKaliXaC5toffrPJrzR7E+hhl1+aA0RJ5xu5VTzHum3IH3rHNP1yZxtxV2Hyuuqqpub3BJveX8xaVlEik8UGO8n85Tqp1e7Eu7XH9MUoblX6UtaTNSS0j+mwEAnOSa/FI5mN7FGoc8NgYAIQCbIEAU8xXm0N7q5c172lbinMnNaYrr2rc0xle9MGD4Iugb6zxgZ8y/t29ePNZ8mP56qubQNnE7HGUzwxHnS8GWlOCtGWQJHC/tkfwzZtX7WeD/AQBrH+KNCQBUjC7ZRu/qWgXJB/L+Ps3awbql+K9SKobNHOwoUeZ/iETw/rDgSSOCJ/BupQKlB+ItTbf2Hj5f7K/2HTBLKucv3U570mnajySCaeU0WWliWjqmzzuibzrvEp3/Tf21SuKyewkkMF0y0M15Vuy53srEH7vgYb9nvQyS9ZaKMm9v8eKzwm54+5AjgaaEBkoZS4NsDM7bu133kCO2lwFccZaD2kKCrj8sfNLUKZMt0xoQ+8EeG4qHJuad1XEqevtG7sef+jkDANwtvbMtN3SxbLs6H9ldPlPp4yj5HQg1BgmCKYkkQKRF3PFKOBQ01zH2S2WrXpJM2V1LF3T/bMsRX7fLVdK8sOeNKtw86oTP0Zw52pxarBJZNglcKquP7pnNub1PNO8+1GzcR6DS7oh8fSo2CezEqNtsHbXwCWvQqqmyu838wltSBbhJXXi+Dqt1twCFQ6T5JM0Krw+BAHO7RqwbnvvFngdaUzMHmeRPUIFKxgGKPC1fC5prfZG2q5rTw9f7JSj/AwB+CgZA5wIA3ojBYavP3LDVPDduJ4Ee9pFCt26o5vOFWgul+A4fi2VyT95pRvivPesrK77KOnLRU9ZptfcYkVMlxClreUXg102F9dUf1uSVHqQ1MkJz2DAAKN8BAKBbV5BjQwAAbyuTTinrF1nrDwBofV5QfEbVPT4DYHWHmejC0Kp5We4T1texYbm58sfSToQBoc+XVaaVWM/1OMR0UiBWYx/AJtGSU5vhWOm2jWxxIqGw6wpQdA7X97fX+dWJwQ4jBjpdwB9MNGKv2QIEGc+gB4mdyyqvMVpxeufSfFS85XmXlgyreinouX7qz//XAwCfjrMi+S0l24dC1gXaIX4vpyZjZkY/0TBPVAnAwUYJl3o2XiY9Xssa50Ipa9FnX1Af9xu+q6ucvKFarVWOKt5WAPZ5GnQkoLtWRYuN6j1ie0EDjdSJAxJGNoSeofxdNXQrFRhObHHit5f1qJ6xLmpeWwDARKGXjykDClIW5FgfBgBgjM8AYGNu77G+AABZKQI+FKuDADFr0wBQ39yqyrHFZNcuka8jlVIrHacXoGGKAJ+OoI+wVKC9gs73bZoje+c2yrj9W37N2JaYM6n3meVL1kUDNoJKvXuXxZvco2S46OUNI8W3go363gxlU54V4vrEwh7dpm15VMKh+28GAHi+qlGlRys2kw6AtyUO4VM9jxA4d7YyTf3aOw1Xf66saa5havCuTIZIQZrW5Ava4O6oDRV81h5WDtQ3Nzu6h+zQMP3uXjp5F1Bs7geQwXQqiS9WFsylFc3LIr7eWBMu/MQ/9/8AgLW/to0JAJDFcMPh6+QtnKQgxSF7fnPRXyUMdVBgO8C7/93S101P9hQRsm80T27L7Jr+eK/jZ64TYPLeHhyu/nY6zJJjKFFSkL+JHKEwWdEFEljfpHG2VSImS4Leb83X11cCB1VX7Q0EAECFekz+UGWqGqVYf5vpi56sxacMYRRgVCi6tCEWz9hc4MF+mvdq1yZWgGd1a7HDIRhvn0qg7WVR0SmFQ4w3CAiQAACekNjmRIEQ5QYAEBNmbMT6HwDQ1qyX7e7d4DYjTnaCvoroBDAhb8hq/yeIgUu0pf3YZL9JOOjfiAHOlg36Z8QLPZQ3v3xue4BogRI5bjx8vIKdM/UCB+gcNrYNB5+guo/ea4bXgMhkvb4ma+710doZCAAwqetg67aiPyu4yjSZ+IMXvZAIAlQLrDKWcZG4db/nNC7z7LRN4gKu9P3faw7SKrAHqAJsPAQCX9O+/4H0XhBlDrLvAwAAPg03AAAgCGiZ9QMAoH58TpeWlvRbtF5OJR0N8HW12n8iihn0IMgBbOgj31R7M8D/qGjEvjb3lIqEIjB7RdfIobqLC/XPQfi01J3j484J2Mnml8wAwGdFAyCorhYgImLahy18zu8sMlV+wG1ZGZHnepw0dwnj29IlUqShLw55dnc75C5tjofmRUKxWtexe9ot1j+URDweejr2c4LG/eHcY9ut0g9rkHmM/56cx9Vi7Nweb/HuKz67alHN6NJDUwEAynPxkysVPwQ5NgQAMEkAwJ0dAABYM3+rvO4HJQAa4wuLcwQAqEwONlDEbilKc2JlWutd4q7VoMleriKzFnW8OVLPiZ3oyzoan3+SAOjDTKvEc6RJsoU0Ycxe5Xnv2SHnqsKairdqexf0iLeEdhaiDQi9p/ae/vr9DNgYdGADyECY+2u1/oZVEISJhn26rOoa04lGhwEAhJhfWjL0fwBAkPnY6Z/FVM4ak5+b5kaO0YJiAm3aYGfYk7rtaY3LP12Z9+3kgIVNffWpdeOtA5e8bHVTH1T9XrUcmZFSnBxfKPXu9tTRt+dhFt9W1r0hPXaCdgvolJsoCHRoVTFKWeFvMwcGcoJSr0eWkaww/ZH9/rR6ho+FnN8o6sEr62oJ2BYA8JAMGBTooDSj9QYA8lQCkCzLaM+Y8pkNBQCQkQoSmK8LAKgdV7K1DJmEYawjNJ+6U4s0VjoAdIAAjQx68JxklQGq9kpqPugc0C5fU3bkQTXF/njC/PKla2rP5snI1oRaNrFCscMkqCRaubW5a4ei1KdBQyOj4tgIDFrTQ6Lzit30eEFdbTkO3X87AFA5ts9uthe7UiYDoVDrS9W4EaSxUQQJTninZFAHiyJr+kVLEyDNUNQsnLUHvZA3YUZ11ey1gYqULKU3xrYRJeNEBV6H6XYKVbtrkzll7nQV5RrAkswXavCs9bBtX5vfnPaqz9r4HwCw9tW1MQGA5LUuks3/qwLh7oC90DgfUDu2oAArTwXAdIL6dOOAUAIGE0ST4B3N3VHpsZWTeq2FZUJZycDiPqWqK1XA4MppVc2q7aTNSuunetUjVCO5qdqN/svQGxNaI7TCsamxRxtgS/3bgR1GFojs/R8FPJ8q55m6fB3Llal5VX/etbI57aP+BWleRe2yUjvs7SZqNsrYe+gc9GyOwMKbqizSc5rPAKPoArR3neGAIZbFtQtbanRaTyUAnkoArP+VALQx7SvvKu7lhJ0/yOH+MzZ/sd7bc3KgAQFmSyW+vePOqXHkcwXAMPbHLXjIKmmi8ZCFFsUU4ab3Ru3Qy2/3mDf/KDn1a1qB0iXoKXMmYMgbqvmwiz6XTlD+iBhyZOf3UG3tEQuf9ss7NKesaTCz9LneMGjIrN5cdL6h9B+06CVrSP398uEkguzFm+XzvKGs/+3uKvc9OqXMVe/KjEhkZwnm/h/ln3rYAgVrYbQQZmT0N3oIL6o9W4WAh/YGAfhbBGzDTAmAtl/bbtR6GlEysPIWey8rgZoZ0enojTon7RfDdF+4rvgS6yWpkgcZb851xKKnrb9Uj7QI4Nin9Q7GpIWta/22l4m9ueVkjdE5Wgd9/38FAKDc36EEC5nx9r5LxhcQ8WS9z8MXPeOXdHyhfff2mGU/qyBftjW0owgpB2vebCsAppve92L9e4rYwW86Vryb3sh5uuBugEgAm3cUDLfe1xxtb3nN5hKVhDGIqGTC5nqTdc5rG1vSX6Ssq3pMyeGymSP0g23IWAMuqP2TAICStW9yrX66oQAAbD+2O+hxSdX10g8Z47dXX66xvKjKqbo3o8eWdrdFSwaqBFU6R94esIF07mUC8z7XWExxbW9z2YnjtNDKSJpit2AA5YgBd7qA8IMWv5TsmGAt1u/erXK1O0nAAdw0ZaSVRULuPlo0hykpKg0BryvviXa8H+gdPae1P1mtGdmP2jtnAMgvFZix/5JXV5cAKBn39+Jh1W8EHZOf+vP/1QwAaI7VC5cL+XWlxq5MhOpzqD18OOcY60m1YULgjqBqH1F2z1BboUFJym5CTMa5rqhnl3c2pMK6oRrnlf5K9Wl/1Wz7ne4pExrKKAny4Ai1hy60pgnTV+gw7cfQA8iNLSAoWKyXe49akI0qrKmuXBsq3yYAoC4Fj+ZsZABAaBy061d77Geoee091hcAQBwEEUAYABsSAKi5r3+u1dI4RIZH6tkeAmCGPju24HSDQgZ1BBgPjB5tmI6pf8SoEcsZoU6vVu/67Vjcec4Jue+X9Kqsbc36wAlUfdSgmGcd6DjOfqrTHaA5HiX7RrDLvQxc9a1xqENeDGq5SgGs20O2+28ApP92AGDOqDKVCcUu1RCjNJ1OcDOm4AyJYR5n+pgHPWDiQE89SloA0LZFbo3LaZgu5+ExofnPeqvs6aXnVZpiP/9AlO24nv2zu4QbVDLiHKUN8hDmTYsTDQMQPiS79baCpW1WfvGDEgO9q3/rBV5XmNvtLd9e/Q8AWPsb25gAAHdSPbroMAUmOHGDsDE4iLcrW0U9YtADoI5+xACBeyx734hNogkhO/C20hH3h0Px92TzF7W2+bSqqozV9XFC1gHaIBAnRVk6g+ALIBpqKQ4m7JUjFXQAhutokIH5WMEdaZLt9W/ZsP8zjCmYDOyZZIMHL3sHZoqkLqxylbs86sTjDxbmV8944glFeHv17qrAhTKIQ0ydrG33059R9juopAR+tGwiMG2PE1bSVGlE2AgS6daj5/5CbQBvaWyIPN/33LlGlW1jHj/3EgCya5nOqt9YIeciSjIE+kboSjNWSZAP1ZUmqN/BfjtINuhkAT+++LACJmmSeP+Rk/64JPreKnBqq3yatP8uAJ+2zM3NaeXNOucAACAASURBVLEiewl0OkElIrvpfrpSevJm9310P0Otuel9THadOQjjzbTZsq2pmi9QETdF3ZtOOjcUX2SYdLSCPEnrgNZ8pjOGbdVob3vYcbx7C5PsR4Lx5lB0awUYB+k8AqI8lMIzyQYCeD2Uc5xpF7ZQzJT2HDBGT1HCiPXXIyECCP3giqJelWP8fbf2wfys2MrwVQLEhmqCZqJAfpNAC1inQXwMTo72z1+ku9C/YWYCAFCQoy6M1xadXTOPMR1QUCxgTgJ0nnWYPp4NmEYHJwLiimiwTg+/ZAYASSsYAEEBAMDLIfKdj5QIXwJQtb4Um+IOJx573ktzVB7pnKxhFw3fLpINkwaP0UhZoJfxseanSCb2rwSQFpjgXH4zrF4ApfYeZLBPF/1//yWv+a3/Jusl3xjKjL/Y0hxJC8WsP4nhRIliX66Bvbxba5dYJsixvgAAdgL2Dfo1HQEALqy6yewVSWYZPQ7/JrmD8ZJGL1aCFgaFWKme2Ru0n4mF7VHS+K1AAf3VZq/KZW4/kHeC8ctWSszv0EXPGV+of+NM2rbr1+0peoE3RyMNL+aesmC50UDJLykMedae8meP0Ll303nyZH/CiIO+0+031uPyyUkGr2qnJgh7HjoZtIyX/UIE8G0r7v6j+Jzq94O8j5/DZ/9rAQDqSSruKi2UszNEzouceq9slZ1pgx7fqywzasRNopOxyaCsTE2Xoc8n+gqPt63Y7X72c0O+qNn35OWnxyKq6dXGoG4EBIVP9zxcqrzDDBrf0QPhkH2VuUEpfstVXwNsaNFY74bC1g0rGtPfWptAlA8A6PN/1oLrXyNgBJSRmnVamQQ5MGYXVd5o/Va9mnXEtSA/lOP795Iz573V+jzl40r7Oa4HGwJnNG99SgBYjLSG2mGlbKfqErVNPht2vFsKhlZ+2fq6VWOKRMm3L5S3sI9WcFYCAEhoAATZnBMMgBesk6XKjRiRjnkyVPem296EHCGQUG0rp83cVxoSAFAU/KZPkaG5o+gcY0iDXMt/BoxnX2UAMXxkP8gGRkXDlCFaoq+pMkavCmCarM8vUFvIJkdaE2483t1zwhLk8n6n591JxjVPLJQIVFwoXc+pnpfMDuvgN2KSJAIKbYKWfXuWZz/TfVj54jlir6Slu1Kidf+s6xTQRWNkwTmmnVnQOip63bIZ7CYKKQ6NjhflKF1Z2LNiiu9A1YwpGSyWwiUKlgezISCcdkvxeaaVU5ADujDqutRNlzabLOU8PdedMtj3p4pWeW9b4cpvS4aEbF3T8mDnGCDqTj0j/XuDHrwn1gJigKxLspYaYwlEeXP15+u2tEXE2JieqWxCLNIUW9ngpKeFne6OZ2+l2j8Q68G6Zm8xlCIEWryjZ5S1ozwBqiDOSmHinBIZtBRwObcX5JV/549fEgCAEpoBun1D8YUG+AzagnJPBXZni2bHOyPzJRvxdMx2r76/rnrqmpgmQcfqp/g8wXBVfP6VWiPnk5EmIzii9xWmPWvQg770w2vuNEGR6QtuW484Meea1PdRPrK0XyjiXq1lpkykE4bqzPqhXVfQAIz7Q3iPFrAEYZuLwZbQhLBl97z3ZcNf1fz+rLk5Wp2W2byiJR6OhyLxLMcNlSlTuZdeokBAayu9yyzojx9n76xg4RhTWw2DjIw+SseUG+h+v5adfEfzjPr/X+vSDqULiMihqIwNJBA/SesLW2QcIsv7Eiq2HYs9Uzi8tp77RY3eTvM2U9bsQAFbh+pzW0LJhJH3ftfdVTN7qvWRlNrXZROxUwRC9GImY5bsxfyJGAbXie322rrYbkHfbXs+P2dMQVnUDhOAnaDn6jI7bRPrxuILTIlHkIO5QyD7F7WY2kJtRDX4yibbEwTiX63nKg9yrtTPwoQUALWpYztny9oerZ/lzhUA/aBs91M9jzRlH0EO3gEsJFhOfxITBW2aDLdJ5tpaph99IdDyNdnRD1pa7ArNoRVLMsLxjHAo6rS4fZSh303lKnSc2FHvv5uCcJt9l6BpksDNTRunm7WE3VFdP/uaygvs1zVnZIRNoBUBtLheAABtWrvHl1gHah88UQEcLACECbVffKN7uUdshCdH1cyrw04BgnQNNxfHQ6oNdk3pmwQCrS6sPXxBsoq0f2U9rOtIdKG4W2UoT/kB21ytpREf5FRN9JkPU5V9zM0Oa/+yz9KYdCdzSXDKel9bL/i2rk1giPDiVvLr0ObQPJuoNp1X5VRXzawoLO1rx73jNP//BKu0WaxS/Kj7FSShpRQUvGY9k6n1RQB1P7RXvLjozMqn2ro3Aqzqgt7yo9x/6Oe7kvVmr7qtsGMaAOfo3R8jPwT7pgN9mxvSm9Of6DX8x6VN1eNKD9NwXK51Qjo6DECOCCAaS+0BEv3ngYIP6PQH7dUIjELpls92h9ru/sd1Yiobdk7RGKhFpVLHOpj/yUPqp1aLfL4uAANLw92sG4suMAF6kH0WBgIgFn5KT42/zi4BTOsFN25PUrvfHtLvOFQvHf8xu1FdZB7r9UdrnLrIkEQKcvwYALBm6lr3hiLOG47VtMh1Q3Wp9pM9stqt0TpxxIy09kkAAHsmAYBBQS5tPotdO1sAALGK9ihe8OVuyHvKabF/ryy/4iFbPqodYQ7hF2quUwJEmz+6zNB6NgpYDQMNAXeSV6x5WuOyF8KeUDkbdUNvCA24raGp6oMBw8VOIvFaWNTT88Lb6We/1/pRMtjrp304iibISz0ONIAZwqLtKQUiYXx+1c1GEFUHHRqe97z4dcVnVk8JPCg/8S/81wIA0GijTa4cFvd8GefBUJ1ni4INSvi8su0gSSxj0Byo87zU7PgKJuaXcpJuSUtrehoEaUO/HxDbzQpKfqt7ukDnpjY8jV7Jt8tgvqKalPZMwLbuCaM0oGGGqWWCEmPa01A/ZwvMiMfH3r2gpmJNDrsBAOLN9C8drnP3R/kfR7gjAAB0posU3BH06IAG+LGQd9Fjyn9Ej6kYVdJfG9dwXde0yks4Aqdbb0ikY5mClvYeOE57LH9fBuYOBSqf8mtkw56TNbil5Iyqqa3PUz2qaA/PcS7S9/fWV+Z6dQFQ/SGZABBIHRSkjhfN+76S06oq+Ubdfb03aWlyh2uhQbftxYY8IX+Iqc9bIDXjIBuV/xwEYpvqXQMCHCAaEg5JElXFWFK+MlvAi9AsCYR5KqX0rEIFOmW6txJtVtkKIm3qyd+Xw0OtIFm4/jrfGaJT4XgZFVrb+lyO3K1+a60l6ictacwz1XVAc8TOh2YIaAISGxQAAKS5QAaUNiomcLGtl+Tp/WNmit5GzbjivVzXIRjfc30AAITSCJahbCJaxjuS4vSd8Zg7obVqdfXY0h01Vldr4aA2LYppP/OMZEeDPiMXgp6P03a0HJrfLX3D7+0rUMxapGf+zrXtr7XPVRkKtzZ3bST5EuraWoGcMl1ed4n+halPfVXgB++JbM5uKz4U4DRBgdpnOj+/ZlMfe1u6HX2hx9DZyzRWxjupHlNMXeIF+lc6AMB1cpgfVpDXspZexG2tN4R2QO13XvGJHxA+qxpI1dlVf96eWt/2ruGN/TmTFQ03Xqn3cB4AACU5I0qvMM5b0IMsKPXAlOcYAMDxHg2FnGvyu1Z8+31bsP5pWZHGc7Um6RWdTyuiZ/ROqeWEytyRA8cRpxGtCf6etAEr9M6rFQB9KRswXTo2CzWXQAh7qRe8avi9Qfp5b6YngQiA5FM5RxjHrov2PzpYHCa7QiZMU2mpAq+HbTv0oee5DMy+GqsQIkq3Fp5nWkFxzYEKVgGesfnsoTroR/umHbLH1C9rfn/QBXWmH+bXI7aM5hQuK22Juwdrrh+vc2muW1GAyH/KjjyooAW7tDabiO0DjCIg2n0ZAGJcTF37Lde1rq0L5X/QHn2Njoz12n6n9s78vvFI+HyNNzX22dSy3yQA4EU5lkEObCF24rzqWwXifwMIy/45QeShq8n2BjlX689W3FvSMxS3/k/2BjX9gSvsLBt/g/n3Xcbmgf0OHPR8JU/2EwhzhEpRADu1b2B7YDVVaZ59q48QwC3UfgM1P1P1/gTx2+m5ivXBLPk69jcCdB/J/aP1cndR4wVukoghGEt2d1ih+fdizLNf0p9kYA/V76anAgDK+hlAiN87aPGLpjxB9lC9ua2PbMsZ3di47F9l5y5Zil0kKVQ7oSDHbXb2tj3nRN3DHvpWF9hejAVBBWOxrj0ZH4N2Zr9Rq1d0MGRDPtKtX1lQXfmabxNN+8V0a7h+BmBeyLxGOwPqcnuZBv473E21zmgA+Pulvv9uyPJu1EZSpa38ADFujtZ1JCwdigI0UCZGOQ8lh+2lofvXwm8ku8k7wADo3ufo/xdL4Excnh8fCArXLC4VAOD9Qx/eBf8VNisAYdCEFuyDs2tHid34qAnmdG0C1Bul+/B4v6GzDR0p9aga2/tgzalLte62Bxh6TIxVSgBgWwRhVyLqBlMP21cqtp6OGZosT2oeLJbftL9s1S6ApZTDlmsPhnWEz0Wpn38wZ/Cbry651Ix/kAOwA5uLH0mHp6SuD6Wd6K/QPxC1P9PbHlsJcIffFbRFNwDAafPvNaVjyfKuBVoXX+ncFTI0NVo3n7gR54PSiopa5jFJkdrvSrZX5vwqvYx98YHeVYkOY8y+EfSgJBJwLyHaZ63U3L1NV6HVIXvBnjC0eT4C8UwloaDaZyF2nXKwT0+EZSEWLWsKHyvB4B5rbauSyIR4rVhDlvWQHQ+Nei933nRAOda+dXdRxvy4098N2Sp/847SJzeTjxX5RuxK2G/4WQAMazs4/5D6B6Q9cKeSxwbbbtCz3OvYsVsLz6ydG3RMfurP/1cCABilBUuK+zW7NgIsqh2xiqi7xHGZICPvq73zMv3sDWiOnBlBTtYzjh2/vtqumeq3dNnQL6lqVFGpaNhn62InaVrmaGHZoFpQjpnUHT2y4iuNjgF9ognEE216RImxrFtCWc0vFJyQcMRaH4beHWseIm/qHD1/P+pSoY91RAMAEOIi9cgkMMWB0SL7TO0XLy86q8IgAqnH/LElAwSf/kX3SFai1+dZg0QDPMPUXQepkcfpZpM8Vwgj1Fgdy3XdF+Wk3NQWKld9V+lvhDxerPvbU5/NZPMHOcYZCQLAGAZACgCgsauUobmvOeSO75fM2OAIhDNMCzdYAHR/CJPpoo6KzNe6Ml5rmgtsPmT+Dlz0stgWb5j6wITivAkA2ZlwxMigKAaw0vVFG0oH2iPZHyOCIoNHtoAsGjXl9KBN1hmu0udf08Z6W2FO14+glVNCICR8mOO4Z+lZ8gHQKJuA8hYE7eYGyRidLyeXljcEELrWy6KrXFU8cMCn9l6TTA1lrQQU1Rv6b/ohNWEdZgCYDKXozKwJhKV0VOqcd6Hv0bpl2DyBHBHbu1SbP91CspiDz4idsz5BGhvU9npesguDl01KOKh6IL0LXtZyPTs7HDSIMMG6fog4RBrzkOD/banV4lB8K8cU4T+cFNYWzAadB32SiQrOxhTlqA1gSt1t5ZjSa7ShKyixooBp10qAiuA2yPxmsGBpnCVnlz95Fjl6L6ie+KqC6orPfskAQPWIokyvwBmhTORfcB4pObqy9O/GQQ96DF76jjW89k5ruxVTEiwJ28NZvqa4Z9VXqe+kelSJxPCsEQrOjaNMWzxoz2+I/hw0K8g9+myg/Re/puDnBQMKptgAerQrgLJJ47OvyZG0hap6pDhDXI/uM8/2OtR6W2wkBNXYC6FeQ6s2on6294GyYLeIAjvfcuL0uD4Ee0Kd9i3Sx6DelblM0E9bOErQmOvK+ibauGldi4H3kJ3e8qm/97A31y8q2URr+48Cu44RGDIAOiZigHcUDTeU9LU57ziuv1e2B8AB7R4o4gp+nlR2+za1YfrWB8CCvsP1+TxMtrBrXaB5hK+RjdL0jcXnBxZ8Yyz3XvKWdUH1LRJ4VHbJpBq9+9UG7B+FZ86duz73aBhOM0p+5cSsi7XPD9a4p7Pf3SdBrVe6H2CRvQx6AFgUtVSbd3/IwudNRsywx2zjcGv/EQBt5p84TZYXFggAqq9AxgoRTNBO8mllxMnAsZ/A4gNshH0S8WLsA9/pa6TlxSd7dmiYRuNo7PJH2buI0XSB1NZ3NsE6dokEAEw8gEqTYdTc1//edFUKkOmlvet3Q9K17cp7S3p4MXs/dWY6W8HdzgqSw4wFoq+vd/vtWvcznpkEC4Eq849/U9Yl0dyrCk4r/8YX4UVvpzrcdKzuQYkebyCBxZPqCX+/dD8QMgtyDGicYTQADtR1DcBoeQoMxYpQ2lYrW2UU9ib6SgOUR9AYoBfbsq72c23dA8HoJZXXG0YFF9J/AsydCwvPLH+8rc+bIPHbkt/Jpo3Q2O7MNdmvRorlCAAR5GCvBljBDzEJLAEAtuPd3BSNPKbuCj8q7REAIEaje7HGeHf2TpgH+HEzFEAGAT641sECj9ABSyZyKOmYAzAsIKm3zt9VIJGDv/SGSpWYn0dILwD2sM8GYB6SMLiu5GLTYSzIAZg2cNV30tR42NpfgBrga5IZacB8HSZOY40QgENZ/0x160GZY4gdUjp1pBhbprzLM3oV+IotugKtLGfoey/osZ+vCfWcvUPNZ/Hagt6bu8pu6xYOwVf9SGwxOtjQUi/oAViNj55kimmjtN5XAhA/iI2k1yqxwTg/ABKgDExHxK5TD3xNmIzopvn6ZDAhj1NXEhis/D15zBBg+GDU8h7L3az/HN+vhNUwP143UA9+qq75B322gL2fuQNAty4wnpKfv8o+A5BFrJhcRW+BbMg1y5Y23rf5RRs+YRx0jIN+/r8OAIDuUVVcLFlX52ihdydqIxooZysMsovxRflxcbKmF4ojFG4ormbh2xbq+XfL6t1ScmZldWc5E3QmUIs4NrMLtcLhF4eoBb1JTkNHWkP5Lx1jBIJImx7qxkybKMtbpWcSmqlnml/5VVtOu6F3Z8RPlkU4W+PVlxoqAAm6EwRFGfs1zBYAcIMBInSw8SuTbF9WOqzyldaTs2p00WaiQp+na7IQe6DMO1p6CDiYQRxi0wpRgf951bcZZVAdK7QoX1FK4YaiYeWftb5uhejlygJfosX7G4JjHBBQzWkmEyL5u3YerQEA/Zqyufb9Skrd42dscDhqRvcWQh0/X44CnNBsDM4T0qAg4xCUxpV6a8xfygH2WP6eUWTebNU0UdhqTaY2haZmfoWAg/eKzsF/BEBQA4ojwud2VRtJahrJLsuZYtPHeN7txqxHSs+uEDJsebNvz8tPi0aH6RdUBmDlASKQHSeLGdTRML2k5dAQEJugEhFDx7m60Mr9yB76memjXD2mFJrW3zR+u+kdRTpaAsBGh7jPaXo+Nh4d6q/rjQrF4uN8erI/pol2gEZw5+/6ntruhQzNmSCNTb099NC2pg4Ay9Yrv7L2XfovM9abaI1CoW3rwJEAeMCJoV/6W933MvMyU+Aeatc4R5SbyPEU1dqa5DnuHeGM2KTW4F7V6JLrdarzsS2An1eVXmY0PYJkRri/nZLZLpgAONYam5fDAmvy51d9/EsGABJ1welXKjSBgRQm8/APjREaHUEPMoGoERvavIA5vZenFNxeM72u+stUsUcpn/dOtGPzlPGwuxB0vdjjIDkeJ5tgqCMHtq+wuUYtkd6z9l72lplnOE+JQOHHB04cIDNgK0wr2ilRzgN7AWFBnoU1oyUvXRHvnrQ0757mVeGuqiK4XGDJ/zGfcP7IcBO0c+Cs5jXPV2D0smG7QOMmgNNcgYX0JmUjYSv2cX6vuoUAIkaLwK3bTsjkcP2MdFk2wcKtxeeaFk9rct6xVWTeyJT59f8aa1HErXFRJ/TP3KHzAB02+pEAsk0bMIEaVjZlSuzlMMuCHmgp/LXqFvM+EvXe9oMhy74yb1j5nPX1R+be06dvNO6eJoaj2mpZRctlZ+jEAP0d/6gjYDQBMPMNgHAfMWG20X0XSUfGlI+0cZDlJ1CdrAwiug+UZCJmRnnWmcriAah3dSHwSdDLUimNFRvd7EYbFYnJlnnH6gfdoOzfXHSe2cN8QJNgjMCcoIHAPFmKo7I4713VTz/aEml+c5PT5tdxS2QDq+4tLnbilsBe1NutbMqs8D0IXmFMrekAeGWd8JUEYcW6826TROatpadWmlYEHKY9nFcvBdn437Xv74E/g9glgUvQFmqUOdD1A3AO/QEd1PugVq0l4XWhpAhbAqPvYbEp8CVXOusuZWjrGdmr/qYSgJPEMksi1VW6/wuLz6h4pK3Pw+rplr98X2Xir9DPdyRAAzS/U20mgwId+FM8J+KSUOE1R1V+YN8aW+U9Kr2c1WPr30fd2OLdxA65QOtCwr1WNsExSQmeP8hcZl8DxDqn5i6BWF/446vclEmehClT+UhgE8lDygFJllBSmAoAsK9+l7mZdUPRRQbQDXrgB2238nMBES+orffHxqYnSjE9o4dFydgH2bua+OVbo1yfaV5/kANWzSmynQh4JgGWH/46IIBnz1FC4SmtiwdKz6qcib5JNBxS6ZpJ0kVInt5e9BeTQArq98EuPV+2DZCYZagvyq2FsViZCKJPlx4HPgoxEH4S5W3J0trV96kEmvWo5jgME78NIjZoi4avTdxDuQxzR0MDsDBDJQHPqZzjBcdr/irvrHpDT2PvjzsZv1e5nMqAve1dz7F5Z7cVnWuSw2sbV9ir0P8BK3UAdE8VG+fv+XVVL/8S/aFgMyjIbPsJPosDX1tQIMQqTKCFJ7c1yCg1bqBK1AiB0vkOBouOQBk0F7qJZs0yTf77Qnb8js6o/08dksq7i7dVz9qLtbAO0feNENNNyqqQeQ+apUs9L4rjCQXye6RArmxMwiGdLZqYMgmxB9uiEkIPVGaA4P8MfbaQDfk+OQVPCbEOWh+I4aKGDJRR50KHYKYMOTVkz7SeEhV3lmytPtSXaMVRhJ6FQ0lQSYY8iHHBABBUQivHyOhAGn1SLO5e3acNYQ6VHuwvxP4yEGtqt6BXI8g1R7WbQXoCk42iDhUREhgXel44QQ+L9nAXxtN/3sUTyrqvbGw5Rtm4Ybrm5pqTYRz+uwtOVZ3owUrTBe8I4J8bRwdj3q9pttF+gIFBVqZrbLlxguhyQQC4UGuALDJZOzZmnBwWP8J/BJX7KYuYI/FIUS21BrxX5FiMXFLf41O/r/PcO/v0DYdd6TV40Fx7faNNCC2D1xQYB9lsuW/EC88U0g9lGNqx7uMd/e96tcN9xxfGSyrf/k0fR/wlTP37bdp4WL9BjkydlE2VLDbgmK61VNmKsc3x8O192+gZDjtHYlkXyLT/SR/uzjgR/I8T5Syo/kDqfWJrcIzJru6izQ32Ro6QfoCANK/R9L/mWtAIccapx0bkCpRbwZO167IPTdszAC4cA81vaRl440C5x9dV1qSW95jyp8bYDbr+ORg1bMs/Si43gF7Qg04Dw+SYk5k09dYCHXTxq4rrqib9Ejc8//lrx+TnqcXQCDmYRqWb7MpVJZeZUougx6+WfWAyl7us+MgAWpS0eE7o2hovZ3VbRs5J2UFWtPFAOVea194O2HmcHuqfAbiCsJ5S7xEmG7aITOGOKg3ZbsXnYrvMM/XRzH8CyUY73VoU6WEAx88ztzV2YEbGAONcIqpH9oRSApxEdQJpVEH3a+GQd1tBSfqH82c2lcQj3hV69wgkhBCAulGaEpQN+AdABAwVAvNDFj9vym1kl6Gw1+v3pkiE6W31Z58s+zpXInALJGS4maBW6NHsfwrASq1bFdShh7MmAICxZf6zlhnr5Pk/UpB8kxWK/+unqP/n+en2IqT7Qu11R+ifmYiqIvhGr+mgx6+UyT5PWTJo5omSDvtxN+ZdXZJf+c262vmu61oCoDJ1j6Jr25RxqZ5eLZFlT+lGQQYMEKwjB/svgSk+FM79tgpkAFt7tiySzaCblysLFjYsA+jZXwiExslH2JS9iblLq7s/yYFnDokpQGvTT6SaepPd6LwmRl1uRlroXO1Lf9L99cIuEgAQ8PnsM+6ht0CEQ+TPHaZ5vIkYcbKbgNlQElATfzEes/8jYbU5kYaWxU2xtMJQmqXyUE/lh3YXRNsSAMBha2zJzHMQnJ1RN876lcQ3TamcpQ4FrndtQzzjsVSdJVMbn1c0QGUI12q/OZxyB4ILWAYET3Teae/Bs+21jDKju0xXmVRwH3+FJA3B/4sSMmTfYJyDBof+vcAgAgCgJz2HrlUvgOGiotqKB9qy98wp+ZYHKeGCH7ftKgWmT6uFLmNJ54MgB34MJaxkVxMlSNY8+Wl32hnRfxacMAs6/A8OEkhihqi80qM8qSd+DcAD7zBIyR5lJEbMVAr1q0sgk1dqEqMBOwkwTMcIBH15/3TdSr5/80nGG+o6DICOAH+cg/P10xoChICt2E3jwbuul+/GuUne4JsHZVz6gwawSykkACrJQQ7KX/A7GHvYH4jvKSieLsf9BglpPuW48ey4FTlXHz1FX7kAZferg83TKjGhBj/IwZ70VzE/AflSAWr2QXRTsEG0ycS/wRbQjSYJeBmhKDMd9QVIcKuCdcpd/APAEbsDMEdJnilxAASgFFa6OEoG/0tM5M+lAVLdtCoay0h394hZ7t90wl05J7b6ZjEbGOM1rR2YbvjKxFZFinMSDArvKTo2KMFpkKNf2vGLBwBMxj+nuIecqqJwxCrVTNlfdno/vfw+ehlpIK+Iu5D9hzKWSpthgwUxGq5sJEGJDLzUz71PtZm/KsPzjfjTi8KuvbLFsRpCbnyp2+QsaK3c3Z4XbjL+VlE3iTF11aYUccJh0X3jeV7cGSK6KFmVTBDE0YVnGsMZRAG/resThOPM+RQaaoq0oKdpETzjxkPvxMPNyupGmoSOOWH1qlEQXtTixU+VI3UggfgciRGOERUfESM26CAHQQKBOIYmij6KZy0WAnePOIGPek12eUlW/vJpS+alZ2el7dxczwAAIABJREFUFcrTHKzrnapJuL2cvhAZATZ2NsoggThGEocT5gFZgIRj6M0Q/DA+5oVfcVucqlVLs1YVdVuZuTw9XiIH43A9O+UXZaC7E6ULMbpwmNlIg2ycGJ1fqY4d7YEd5HjrWKWA7E0hgmNVK/9xYc2mS+wRk2K+M6CN9EwxD/6oQclT0GyjQMr7/ixrh/UCfXh+CQFaGXL2cfrZPLvL2AP+SBTI1DWRdfGNPQG7oQ/LSYKWhUFGCEf1tM1yyifL+b/bXhV/oej86gVQGetDsR5xO7ad1JVO1ruC39aFLAysCZywoAAAjiKbEM4a9XQ6J22eJkQcZQrt6HzPaerSEJeokWfDNkBOV73HTzEiSkGdVL+ulncEQKI1HhO48ZSozaPDWaHpCqWXlJ00l64Hhm739ojB4c3yp+3jWeHLEd4R4mx6ON8vQIzsUNDrp64dHA1qRskc9GmcqzGvNu8rI95g3r/vIKNVQkCK7eL+oQMfK9QeirbJOnmi1jr2S3bcvrMwHv2E1n/cd17XmV1z0p3uLZF4mRO3YdYcyHwGRKA2kQ026EE27QxppEC7NvXdni11Mu9RsXrfDDuh2vSQt3hyZf9le2meBz33xv48WbkBobouS+PNPUSr3k7zi97og5lf2LxrSy5RLXLwPt2UtNBFZi8xWijDkj8hKrp7T8xyXu+R1lJXXt5rKUAabKCqkcXFikzOlcN8oj7YC+cLIU5Eu6irDBIYtB4/nHfeEc4jzhZzBaeOwIV9jzkFAEAQBguOnupk3QAxcWy2UN25KSGwrelaDXdKfO7RwtOrF0pArkTifSN0Pe45hHI6Lc0oqUs9sIdk/7EnKdokOG/QfKp1zpn6xyw9e42onyXak/YSKCr6sheBsnxr4bmGwtyW7cfGsa/h4LGvsYZ0n7QAeNp1rJHjayq/3piilF+PsKI9exZ0i0XD3bUef6VAD6FheLFRKOo3S7AUdkXQYydR2An0qPdOlNzY7ykpMV7n+bzFiS/JjsYW5lQsWNkR8I3MN+9Se5TATRthM1TFbYAc6K9k5TsaXPB+cOoJMgCRmIO8oyx3hWyYAADtOWjezJEtLdccpA6eaxH07Ccf7LRaiRcn+nlTd16ruHacxGzHS0unqlJrRtvlOawZ7Z35OOkEenRESWUKJkpi5ogp9aJJ7PD3BEWf+WfX6B4lrOB9J1+xXu9M0YszWFnArTQOaawLfA98njVRq3up5d/RCx83ASqgmdZ4C3uJHv2G4vqqL1q/E5NYaVaCQyLUumb377WVgndXYk+HVekL/7K3S9TaqM3DhIBdQFIBlhrPzFpscSKBEinMVWwFWVpfrV1g5kqt07GOE3446sbrmh13sborNNU15qeHV0a6N1lumTSeaFVLhrgUHwOK+nixmoK2qcNWAUTiG6BpogMWyMuqQZ/oxN2vo+ldluRUTFs992eN69EtLZ55kmrJhyuN3Ecq7s4TArlpkcf7DOLLMb6/lx38g94vApx0WsEPB+xETBFWKmOLVoCvUZEKxHAt7Os12kNgQATxX1NtBGuINcH784NkkmEAGsxL3m221hT/DsKS5Rqcj1IHyiw2lXgeqvesoclZ25uyTMAP/EYE+hT7jLFbvDvTsrKXNjU1HCGB1b9qjLdmv3pLwTLv94vMbUyCqb0H18fno9QCvwKflfOR8GAvQYybckW6XJ0oO5/sesHeIaaAHdE+QaYs1BYAwD1gL/HD0QPZczWTTWXInrVc+80s7T3fyA7M1cRoVAmoKHcSAdecxUemvIMSNO5lTQesLLR+ABiS76ZW93Sz12BPaIuh0t5x+Sk/94sGAOpu75sfz4jtpheq/o5uby1CGSNrUw0o0FSIDYZsBzVRGEgCodZGgZpxFgTtlJIiNkw4CSdZOCkLJS5EHRte3SLxgaY7Ye/9VeHwdNUkGe7y2o7HVe+46/LS/GhLfAcFEttpM1eBv0eLC7US8bK1KYj+7w2Q7TCriEWF6jiI3/ocGAlKGjBU0IYJsnQdKMMqkFHPZM+p1N+bVB8ne++liX7dU7VUg3RfJaLAOyxsgq1J3fYMHNxhFFnglFWQUdZBYIBE/mcKvCUKZM8XBZH0M6ncrfQ+ttDvdCP79YJ6co4tGCq0M1iWl4vgyELhwpE1CrJGZMQjsJQqsTNLQMsSPV8P3UM/LVqyynBuMwmMqYOkL/e6BEBavxM2S4JKSg8wCmhI6LkqZSg/0TW/1nNNkTroZ0X11TVWobpSuKV7K8CW6rgpPTDiV2SXEb8iO78+zA//3rgnHKGEKjgJEPWzkJEmq+bTv/1syWESgwEoIlgQZVf7vKdd135QBvOfkVUtNfRQVaumHWUs6cPaX2tikAHWhDdgsJkjzJUg9XbcJ4780Qsfs46V2A/Ag3lXEqOR0/exG5dAnuN11X3THxqlmQw2wFtEDx4nKn5QsIHrkTXEqd5VJQ5JauoMXe9TbXJVGq9vwqHQv/NqKub4Dtwy6R2sCDmIZZ2OwymBfrNJ0hkDZxknZ30O3kREDgabSEIDwWAPGsewAWx4XsaU9wRYAkiDQ1vcAkjDa5JKsSMdg6bYMwXn1C6ovVPCVuHIbkLstxV4k6+AoVRO0fY6bTHn4R1Rk0xJQdADx4i6QbQHqH9DaV4vrEJ/mSUvB7Xiel1nsh1reb91SUXQa3Xm5+m+ktaStotUgraV81+g+bWZRn1bOTtmU6C1GL3FPxT7KOjB+jm57n6jNYHAkc4JA+lLvamvFLTUaQ/5Si9uEr2Jocz2LFzyKwQuZXPVDi0UJpNCdgn9AUpOOjLHU++ZeUUgHxbWBejEwdrHDhD0c37sAuwbdDiOVe0ptdOAFxobam2fanFDo/tEcr6kJMewJbywOibY6l5jhckCXS1NCUqnUg/mMesLpg3AOor27EPJMh9upFmXVV9tU3MaQVhLYxWmE8Dzsv2s7+mZA9p03HGKceqGCmiBhmlAXtueKqB1ZFY08lyPNmqEg77H9nweDYPq+qIibZM7YQ8V2xZoT5GOgTVIf3bX9xzG5VaxldbmTK7pWjCDKMf6/ZJXTFZO661WQeo3OreE9ehuY1Wou80nGdmhz7sfV06AFOjwlIyo8Up30x5Mxx9Rp+0uddE8I8L3uOYfgsTrM/+YA9g05iBfRrU+ZR/CJ/PnH59j3iHgRQmL0c8wXSRUEua6N0yrr/6QEpryO0uLxD47Q/dKFrKIen30kggYWtP1OSfrEQCKYBlWTHL+AUQ16fyNOj/1MWHdGDzqNEAQtCfQ5YHq3VaZFIkNmD5Qv/EZ+bd+d07ctW/JctP+2ZZKPfo/oXTrcHlZF+qzgwjgYD7g40BTD7LfM474U4jKsr54JgJS1iKAHGU97BvcFy2hGXvK9DqyV1FqgMgmIo9mW6KrgroC6T3K3tsVepYF8h1zLdfpreSOACVva0pHNZ/SYPL8U4JqtAoNmiHmmfCj8B1hniWvXa33PkWeDGKEc/W9D8PZsS8peUuU7JVqDrvqdmPvrs+lz8zoLztyunzJgwIxqoyehYCr3Vb8R2UsX5ognG5Yk8WUIiFFsE2yB98Wdg4AjJ65WjFCgyaW2gNaGSv0PvDfEekLmjhrzyJGPwgfhiAdtuy66tXbOif+BGMMyLFEAAfBPHPoGPnN7PGJWMFq0PPcI8/xtiq18yyOlW6r932Jvn+A1kY6rcsn5h1vPatyraDvGN+PcaRUKEsJq/myPfgnCMoikA2TF+o/tj4JpvPOZ8rp6a35Vaa/R9knoetXiA3R+vBLKf6gFsw8p2GSUCijbL2eiZiN/UcYqMyNJz0c2w5TSvCw9JEQPfd1BVqfFzDzGCVh/G5x+jnneNm1QtcU1877qCOAbHveeWd/5hcLABhV22brCNGrVLtuEaBEtBCj2ijDbMK0y5iSuZ31pGqtoVwxUdsy7NSvocD5x/rHrE1Eo04qKeu0NvwxnBY2Du3veFL2AgVHrwsNG9uWunzrl0Vv8TQ7hnqt0FHUvbUDKO1kFCl1jwYIsD2V1Fo2AfBdQrWpx1sfSrh/DyCYZBMQFmFzJUDWOoCST0sNoyST/Cz3QuF7lD8xXNC6oaV+m7luRdy2JijXgwWQzIrzEaIcFp74sQJUFEDqe1m6gTTem/5usqwYTiigQY0KF2DjI/OEg7ipNn2eT+dn0VOMiNAaWV6E8DIpC9FYALrY1OMlhLh+q7o5Oo0EO1CNHVL3QKKHbMzQ1pgzPCsFXIiqPBpPs5+6T8qqx/Us6JUZjZyoCSBnxuqr+egAQKAyPzHvOGta+maBg+lgd5tA+EuVvaCDAGUaUDWTc36x7ulFOV5jFSd8HpdaqiYoolbqm2wV61nU3VBGUw77UqebWBPHmblKViMI0s79QvHaR5RyWilh8LX58q5w/DDQOBzyKySIl5iTNhQ8ymOoVw16La6HwwQjhSDaBGhQTD2rWc8S04Uq9ecTYceemHd6xWz0DgDufr2kdHvdFm30VCtmZ7I+aTuFkN57XffolA0+9V3ikEA3PEjZrCME0vAMSdS5WvPn0ZjtTJjvVEzrH++dvcqOH6SN7CQNzlYaLs1xehUn1jMUxifljI2VwxxUlZn74Zpk/ykDSAqLyhaq8ZRpUWbAPQVz9jeijd8bb7FebN1ZIej87IzPi6aa48ZEU3WU+RToqPtPV1CVpr1CWQX2inTDEKMVHfM56IGjwtwyIlJN6kecyDoSzfAlIoA1V+/swYjT9Gju0AW12rt66CenCVA+U9fvA0hDhwd6hBv1brERKAnpzAOmAIEMGS0csuT+gOM3SWMzekW06Z3NT1lAzaSHRkw0PXalfkYJU7gurHIJ6SWg/9HWgXOMMw3wxjqntpXgJWlnfvArBEUwH9BDYZ9ui7rLHNxGLRbJCu2z5E3DmiH7L2DlGU3ykXlr0LbpjPFTNrpE2Wj6rVNPQ7oog2WSXG/OYoGDtBlmPnUk+EoIkr1g2iqa3taJMgpsI5oK7N+qmfKmhsPOuPxw6DW7HYmI1uNg1kPc/j/ZutNlT7dStjJSLY7ii8p+YysA4IMEpx0ZZ+YC5VDU7aKNArioQ1PP+ko+1sgutvM07Wf5Zt09SvTEYqfKczpdP+9N2QzCrLB12hrjkM4NRRf/B4Vw6onx81Iztv49A0ZQioCwGGU4bZU8Mv+21r0er4TKbzX/EiCfUdx9qiXm3jxnQfUXqVof/rkBiyoWlg4UA+Iy/cJh+B3QlinzJEteGw0m+GyYfvLrAEpUqodChAFTAPXwbQla0SGhPhkbgmBdR3wpQJkLJeSMsDKH2ZvZL007Nk+dZlQqa1ldNSe76U/QxKgur3b1YQOk4jvCSggqUofdBLA5q2a0AXCSYo44B4w1+wzy8W/JIf9nyHE/puSn8p7iEpWvnqGxgJ1YQKlFolf9WRLK2yGQv8D18SO7iT4eEngKwMK+z1qg0wl+HrR07I/YH7TofELCyEqmeUcomOwHAENJJzoPgDIb8oBxAgOEhB7vm+TLOyklWO29FuuO56O8ADAOlgP7wNka8x1Xfup3ZVJ3APuG5sX2+D6XlC+R/lOe9J+G6HkljuyVoS/xYdddTeeWD7J3D6SNBJCV4TUYphDrCmCFMWb+UsaKhgws3vzmOgVIHpps6h6mRJpl7aX3CzqfTvkBbSbnpJPv/XEICwiNr/K7JW8YIAFWWrI7zQ+GKcHayDUlG9g9WGht7T+UIcCSO1E2GeAksY95dZ7l3CQx2/v6JO1Ue9/Bz+lzv1gAoObukj21BNVn1RpMYOcPKs4U9B/UJKGU47QvivRsM/jndwiIQEypR4YCg5Iy9TFtOStmgxIzQAH9rd6qpfeXnrfsR8Ik/n0kxFGW7KFN9i/Cigbr+9BX2hxvNh2yc2ShJ2dvt8Z7DTpxmPRbNXxlKHG0FypqkibT6rj/h2djMVC/BR0dIRnup6OlCGyQULnoJQuVK6lounpfNKOQXLn8wSb1Wo991XXgj1KlHxiYtsaJTbZUBuTY+kdMDWq+RKlWP2siBZEY/eR1oWhVqwcoxgSQaG60T4eCbzYMHAycAxzp1YYmcU3AlrfUE/m25pXeuyXLKptqehVtaoVDp8qTO0Y/K9Tt2FDHyABCbcK5WZ8MzNrmCO+hX8Ms61CND2AJwb8JVlCjRzHZ88ZrU3g3ZjVGurj2kbq3M7URbJEMKM2p2RTf0dyYkHuS2WCbtBkFPRgakGjmByKcxtibpfXjg7WBswQ4RJDUkQPAARE7GDE7L/8kkb35/qAt3yw947W1oaqH/c4fFY+re8Mi70A5o3/Ret9JazhKtokMMUgxCPzaxKI6cp/+7/BOYEbQ25Z61gFqc5VsObRIWdgXtYfeq5rnz3CApFmwu+s45yuYpLXoD9Sr2MymSuyN8omE0juxSvADgS6EjwC5qNFNzpnUE4lSJ22AuHNN0Vnl7wW/Quf+hto7/sZzXYlwiu5v29mpXgM0yE+VjaMUh3calM3CnTOfN5eKM5n0/bWPIMRp2hElD4I3smiyOZcVn1H+gjJX4frcsq2anZbT9f0jdQZKggxAg1YNtoA9rLPsAICFCf6VJaGWGdEkrT9Qiy+oRFvZFHuuv5glvqK5qR2Ph66khaEeKcy+MEIdE8gYr+lgjvi6BAAA9GtGwK9EXzigPBtMty80P183+/RO0in5cVtUzkNW3FfITgpv0dlA3qpzV6MXeaWtFmGdMaPQcJC4xj4OnWs8e3eN1Q+UuGCQoSL/gBhd0NQ7Mpewg9Bj2T9/JwYFZUKtfBGyWWSxH5Y7clPxsOppQZ+VzGllQUm/kCs9F9s+RltjmRzwEEJjlAmhVt+RFnLtvQ8/+D9OezUdbChVSdh/b64CuXF22JtYfGpVlT//ZoqBkuEJOJcAre51EzKQAEYAZgDobR1+oAFwuuPyT5VR/sLUV5MRxKFH7HdBOMeaJuE2AkYo3mT/WieJuFf0BGBhAcxglxP2z/tWte+3NMZXPTFg+CIVHLd9JPR/4icJbDxbe8wm2GTK5xCUe1dAckeSDm1dye82g8AbPiylDAQ1dfItgh7dNT4EYkO+b52basvoKCK324i36bESB+uZ8g58KWrwqzWWHQHrsRn7Lf6XyUZvLd81yd7wLwNAhMz7P203PgY9K9OGcGHpbzW2gPWmrTbrkHI9xrgjWXLsuc9aIUiFis77JwAng53c/5Tcsa8LRdx50pa4VNfdm7kzQwwEdB4Akzq636a+L54fuj5BMR0C+jSXG9ALkAF/sSNMA//5uA6B8hk1YwW4vOb7RfKH7Df1fq8unF/xPplto10Tat5JgsPn6VckzmxnMsYAtvhCaHIEfdbUMWaNIfaHj0E3mxLKUU3jGmu62nWOVcK1XNccopQelP1MQBY0uyh5WZON5b1hVyifhDGG1hWJrx6KTfCllmoMZ6X1M/Ehz4HfzdpsPWdhE6P3QFeM7XUe3kciWWU/Y0Wc64tOmfe5b6eCrrOfw+d/sQBA5ejSM4RGsvBQgrBxmKCvUXf0lSg7k9Umo1JoKyjXugwRmwXZWxxt6sbKBAiAGBM4gEJ2jS0z/UFN/0oyO671pNyl60vPqVSvnrYP+qavsOLqz2pDJd5MuK3Nwl0igRZTv2NnaRJKnE0bGBnOD6XwOV1/BhEvWdcEYpFhrHgm0NytpBBdKOeUoJyNDIcLGrpxxrQZch+fSETm8+xtzffXNW5ruj7XLWmqMgHxjgq4CCAIzgs0pow1iCrnBw2HMkYWHucboZOgdU2p98DCJsA1FCNt+BiSPo2qhVX2iXHgOXlmAkkEasg8gVjPFZLY0dpbnhU0kxoqroshY3z5SorEzFRwNrIlbD2ESjDZ5d8szB/o2ZHT5ewcJaOWz8YBCAI98CUJ+VBDGrQcYV1zgXuBPkjmH8cSQboknVypF+9NPcb9LRmR98uGzF1aPUYgheOcpe9R15cHVaxGNCmCcdbYm1JMxeiDBHd0jvgbG90LKKOgjzSABL3tqQ/leqCzvCOUb6eptVZHHGrGhXdEhpP+4QABOIXQ6YuaapJZBniqAvVi7vV+BhtWDtT6eDh0pNYwteKUqzgE/QAf9PjGgUM3oqP31dY7Q8STDZ86OLINACVkfEzWxfbeksd1z4rm9PckOLXcFMuOK/6TUOjLZMipm3Ggs+HILne6GDCNTAyK722VP61rzvg/xzlnPvOuEBYtVFCSrrVWqu/RdkfZf8CuGo3PpcWb95vot9xp7/k783OegNjq/GVS+jZtP1X+YzmsNWwPtvc7bfzoWEzVfKb+sKMH6wsBTmwATgd0TQJeHEZEHDU+MTkKl8uZGQlwg1BjpKlFOgTW6ZqhB+u6vcggQccEfIUVhF3cUAGCvw7Yw9gLKP9BSC9R1oGvBb3WfkBZ9YkluZVzUgXnACyq8kr/oc9doA+H2aOuKB1helGv7fD3H/ZRqKUFGgtsMvspe4C/56BJ0JbzldC/+MqwFADoAVaUeaO2aZaAsHslKvhIaqDY0XfX3t+rGVmQ60VCx8tYqH2c1XelnWVDYUVPgWAS8T8otTDnOrqfcC++GBgZbOpO8/XcOLRktWFWJFunSiRPr6GN7jrteR7at82fVrylVNSlXWAdQfZUZYoOIAD2/YXuB1pfZW3VYTX5Nd2Db4epBf61utdQV58M/uvEb5gge3tvaUo5FueBsRCPOcep7Oks/XMAvh59uwHv2SPWdvj18Mwd/CDWJfMvrv6UrP9ZEh+bl95ndRYy9VzsUYAxByv4+p3mH7oGvAeo33r/D4ohNqE4r2rW2sQZEx2fCreRWN25suEHC+boitYLpWQEcOwl6+PzmA4coifTheFA7Rk7S6QQn/chlatx/qBdnHw7USz/DeFB2ACcn8AcnaVU9XiCPuwoIAN+HM+C78IcCiLinDrmvC+uB80e+wTgTL91MuDcg2GxShdAH7t65oLKz2BemFLg9Obj9P3TFLwO0D4U4rlp74wmAOWVHQFTSeYgLEfdPEFgoXymJBhXrr34wUg0NMFd0bxcNuEc3ZTiETuXd8l1KfNANLij/hFjwt5BVxD8NcOiSgJlvF8Aq1H5w8yYd0RvQCWfhtVwtJjPlBsBjCme0mNZX5PgbG5Y/kzfc5esbr1IG2g932Fy4Ifp1rZR9juMP8g8RiyceKsjexXrCe0Z2KhogWDj8Etlj9StyXpS/Oj77HgoS3b/L/o3bXSzKZulXh8h6rUxldh/jC4Jc7exXOeuMn4gvgsgNoA7+y2+UVvzlb0SQfWjtf9st2qKEdQ1wIVtfaw/rtde/tpPJTzbHhvfns/8YgGAqjElIH6X6ct4bSjZPtrrKOP8LtPLbZYASpDFx4slOMWggvoYBVtvlUF8QIBBVmmJRTZH//uXauiuKhlWleBItXHMHdenMBKPn6BE81Dqo8jyokNAwEmtC4ZiebiLnIce1mKpM6sOskMLuT0vmWeCOoYByRPQ8VtRY8iSoxzLZg9NmM0Q+isLg0UVZOzaugd/8RUoQCCwO0oqvxgyjCpZ5A+1UYDkoQjMO/NpQO15nrV9hmclw0tWGQN3uBxdegRzXZ4N4T2o5NQRskk0hDTu3wPZHbq8T83DuBRLgR/a4ZELnjIUbhkL5EJH21G1nTu51tQIkIGpyC/dAgqwvAnSaDmMN07wN2ozA3pMWxIcnY5upP6DmGy7HB/eOXQoQKAEDZ4Upa37cV/R39QvtfsnuWd9TS2+Vzm2eJDj2X/VOej73Y1gH2EbWuDgrBNAre99cX9s9gQH1BpCdWeNkfGixy0I/leaG9QxAhatb5Dtz0eula85yZxA/wAhxCSif68dj1xddPacef7YGfHG3KJiZRqP1bicpnWsADLxnqBYsvlRLkOgvT5OnO904VxB4aSdGq0dcYQS92bj+byjrMd9TU3RSX3PnUsvKM/cX37JMN3bpXpPBTgCT/U80mR/ABvLBXQxdnx/Q6xnqHWMH85CVJsoaws2CRllXZ/uCleUrLLuts+rNPLYP4ej/obNurRkrzhVnX7IXpTwnsiwozaM44qzig3eEGNk1PjdZQp0a01gTWcN5liyHSv5shudSOxm3w5QIxzOsHZxbe8MVYbtz1rDFvHuYLBByQYYxdFaXxsFiATwtbdsEzRmqIym5p+CNPX61tg8Jif2oZKcbt/ZR30N5fYHh/bbK/S5SzQP03Cm/957hIKwE8x+iWMOi44/uXeYVThVqc6Zv7+mZp+Yk4x7W89GFnJbgU1HKitEa8LVYyh9Hv3aowK9xpb2qvh2fZXxg8xR0yHEcU7R9U8B48Y+M4/IIpHxJBhib19fW8U9mX1MDieBay/5IoACBykQgbmFzdRbmylx38sKzqp+LMgzpH7W9KqPNO+oPeBMBEO1V0nDwDbvkH2ZdYJ/0JEgsvU9YS/KBMZTlwuwCeBr5h+WQ1ldzcOH3JB1d/FpVTNaZ9S0Tnra6fZR+r66F3gDSeygx/K48fcKjI/WW5lRWlE2aH1XphUbQCb1PQSdf/iAAMaUh8KSyYslbXFSeDJu2+NKe3b9oq210vrZ68fndIm3ZBwkecML9AzbKswyySAo3I+KRdNREIC9AWYN8wKGJ3sZY4FdY3woV/NbpQWdI4wXc44gNEcgDcEv9c8ADRysbTQuKNmEZYaOBD4uoMD62iquzV5D4oZ3ikA33UUIgk3tvcqUpEt0bXNa9F20uADr54/p3VcChWfIbxEq6RlmJeU4dJQCrH9f7Sbrw+1TrcdXJkGGECdzletC+0+yuhT82w+lueEHcnLmzFQhkDvvzj7bRqLxvydEd50I/iwdd6hVJyEZdO9l7pGswWf7rYR/0bRI1QrifOwJ6CzQrpsgNsiBf4yfcdSCJwXCvZsCwgnYcuxRKjCZ0GfoPLWBNciwOR7/gxXaZa/efcKWe6IuP0TfQnPN2ArYW5Tj/EdlAdiK9pQPYd/YJ+mIhFYM2gaAc3r3uqY9XwUuz5KUKs6yxbz3AAAgAElEQVSIfF7T3LyFBNPxR1XqaHUFZKXd4+fyS9mLeFemjbt+iBZGlZIgqexMs+fotFwzAXYniMDMUwr5W78f3jOdtCghOFz7D+KkPhMFu6tfuSM7Yj3cLaXtZ5Dx/zl99hcLAFSPK7lY9k+1VZZpeDpS4hssOP9YPXMDjnZbA0J7mdPVnxSVZ1OL51lvSqH2SukAJKxhGwfCNdGwd4I4S0M1wcqocYce9WbXvdZI2+noPbfnEVOfixox6Ko4L9D9zELgyTrp8Ntn0OqH4BMEHBTvMW3gOFGddZAt+aMUow8Qwsl1CVyfF8XxaVHUNoRT09Z9gzgyT06tu9dQDmV5yGyMbrDjY/ufWbe6lQ1Wrva+3gPjze6fhbrSCcL0YMJp4d5o04WKNJsrdEwEZoIcbN59BbzQNmj3FR+ojdxHqX1r4VtKfc96RjrGD5V0CX+RWkuaaFFpn69JQWayKzXvlKdQG+o7VRtqvvgGec+l71hD6h8wTsz7ut6D2thghHC9DX0txhEwD4eGOlRTW+9Z41vioWvKzpk3J3WcoRhW1pf0VRmHNj71oU6IIIYIXOifjnL2+132MEwF6IbLxOoJ4gCxKQHMoYVAzTTUbCicRshSh1Ylmf93dIPjG+2GSf2GLjaNoDm8x/8Qqlz4n7OkpE5buXzGCjXviTnr10q0vfMMmijUuET9uATKXO/K4rA3zlaGu73n6OzPzbp+k25p3VrUacSjlVExgMhDOcea4BpxRzOOG9D2+fOZ8+LYoFoPEyAZ6NwcstNuKjjz+5ZW0OtjMWsPx3aGKqut7hNeN34XoIKWl5ScfCww4CvVJ+JYBs1k4TDDIiGTh/OOPQDESWaRsQNzVfrzWCgcemhRdZcZftvP1u9FbTkv1r53KRkY7uEKAQDYBGw7pSp8MQ+gpJanl1pfZ2xphJ3mynbRb769Y5wm53vTxmnG8WafIgNryqrMANpL5Ri+pr7uY2IZ4Y/aI8S7IeeX3lVvIRYSQrTRHSomAEJgGCB9fQHAdd0n7wsRqj9pPmEbNBjSK7FVUtJ2f/Z1nc//+aeaf0Wu92uJUVKOMlgn7oHZwYbBjKPc62M5+GTbAMuCMhRxnMni7iS7BjuGjCqsodVlDcqmq4TpIdm4cb2HVtCL+Udu0KJxm3RriLccobVxnpzvrdgf8fUIcsk6Mq+ZLwRK3B8g9de6XxgZ7CHMyfbOP+6XfRsAFrBskLQnfFuse0OT4BUBZXcHmX+mPXV+We+4FT9VntaJekCjXgZYZIIn+WEfdN2t3cGTEdpsmqUgbrIR8aQ1IcGyb3vwcwDQXxKLY34HBaVbe4MAcOeoXTZJHA7G+ZOsnUwd+HdivPhHe8d5XfMz1Y7ix6DRRbCKLZAdekeB/rWFmaF//8BvGSW/xbHP0vgeqvtHSdsmGJ2hOfC2gkaAuumijWNHW3e7oFNFFzLF8vXRG8FeMldJ4iSFg7llgNKHJZD6YJ/cedN98PFxdQTZvbD3MSLCXQRAxTXLo71V1rqfQLQDDFDSHoo8zBSSVrspGN5dgpNbKjNOuYo/FsYXQLxSNHi/1Bmw/9Vu+xvfjBLetR0ARjCZAVR/v+hlI7SYaMNsQLhFWlsTJcB0V+kZlUZEq/VBWXP3/BVbisxG5y5K14yIBXOBRM1HSm6yX2H7CcLbYl/z/hhTAA58HcpzyprnJcaYG3EtSs+e1Z50nxipn2PjpbsyyI44Kj/zDtXlesDYQ7CT98nzUJoIO5Egf6HKvRGCRPydxAzaJkE6mxAnAPzhw/MOEgLZSKbp9mxL9sm7V0JYD+ZI0Hddc/iX8PPOi/o6+emrRpecowkDAJCLdWeDmisqV2cc0JJxRECaNGCq67afjTvutSWnV6m/bNsHtDUpwR+je6MX9wA2IUQrQKjag5B1xnP454R2B1Ud2habfGcfEYk14IRSBsAGCz2Sa5NFhQ3QWUem2qsRUJId4LoYYerUoPwFdWSC3COo+RaqOTK9SKVvqPrju0Az2xJIq7mr95bxkPQALO9IzS2U9k1HCJxsshs4MNO0geDQEBDwPeZSKkvDZDdkOSlFgGILXRvhE6jI1D5ReuHXbRsAS06/lsxjymI8XG/nzthRSt+pz1d9T5+BVsxVj27TorKXfx8r5ch31gFjo59QXDYkmCg8qykxkNXtjKNHy2IzH7+noFojQ1baNanBmX9dKNCVPUr6OhF7X+0yh+uOdgSJJvMAEwI0ntZ9bPTQtqkDxEkFDJAW9mrn09/IeReUHLEmqC8kG7tlw9eGaZTibJKZxat7XQ7nxMyuq97vdfwPa025vuzMyaqTEwBglUHhpZYNZ6Czxi31XZD19VXedbML5JRdUv15/gM73v3D+dQZ76+95zT1i5GGIRoqVIz7YAN4V9XKEm6ITO3a7oMMB1l38055+Z51ZXRZ1q25F01LoDvJo/am/KxYdngXx3GOEsF1f82vYuwAzvRqpW8JhAIC4NRQwsSc41n4jO90+/Ori7vcgA4EMpSTQLEki0ZZ2+r+yzq1rvOV5tDTzTH3+bJo9SxbTTbW9DyVo4vPkyjo33StXtimf5RebmjGKGYPr7nTOJV+UMeaqJPAGb2dmYvMSdYE2TCfbkmA6dstMsGAtf0V1FCTCu19a53XlNxhQYWLCqmo1YO+pN+aWL+yefKgC+rozLNRD8TomltahoTE2ADU51l4PgKuzp5LPCj2AnAw+Q6/UNByecGw6ufXdxC+uyGnS5eu0W2S7dwOElWdTjkIGxpgo0prBao8lGYYar4fQ5YtNXnA+2QOsO9RYkb5HfaBQAb7xnpY7UwbPSVvuvagR7xm+6HewyvoFNTmMWNkz65ZkcyDNVfR8dgW7Qh6zaM231OBKW1KAZBhRnCY8hJjkzcxZY3UCvOFz0EJIP6Hv2bYN1Ejh2nBfsD8IwAkQIGBZea0WbsefSdpvfpAvNn7JGg7aLovzI+XDJTzOESnO0rnLOImGu10k8GFBUBAg+I8AEZibZOYSVw+3Ws0zCv2CMoNCU7J/rOmW+tV8bskVmCkdESjp62XQICGDWGdrh5jZdTx4djnOvPAPpRpr+EdMX80P18LWfZVFU7ux6m+CwFqZu6SLdIc5wR8l6Qdlc6vbXwmWibOk//HnzBemdusW9hRBN/4SdhNSkWYq6YlasL+AJRWaP49Gos5D85eVD69tegj4qChsP1nKeSeqM/msi64xtTsQda/u/zaUOQJkv01g1ejtstmbyCuGKB1AjsTn433CphqSmNMStxW3Yk1VamQl8R8KhBb5iD9egn3DuviKwXcAEgAMswlmMWIyPLchskh0T2use2KqYbVQHkFfuL3c1uZf1r7uuHxhSnARlvvdM6IsvS0PHdLOZTHKLF1mARJ+qCkz2dh8WLjsQ/8yfMnfFV5VqZF7XKNa52ZQwj+8aefWccv1dPWYeNFtbi/JS0yxQd458lHlujjcLmCAh2sXrCHx6hlOskXxHdPq7vH1Pf7OlK8V/ZI9hzWP6DPbNlp/ErK/FLHhjHoIXZHbwX6xheTv7z9qskmPvIp/7ompRF0wnggI9t9rMcJ1RWp7IjOnPudfe7O8a47+651/ppxxQdKhOVSPQDteNrfjHL9722VJupd6bHGO3LPWZCwhm0cOJ4ZaQ2/dVz7An1+N91ncLW09b/X/53hpx0B9u8PZT1ujcabX807qx5V7R8d9eNLi1qavb1kZg6Vxd5Dm1ee/jS0DIw4yG6NaLVs6PRSpsRluYCTBIghef54o3F+QItxWsjwQdnrElu+Gj3WB+GSqxWi6pcs7zkrHn21cMGcirbal9SrfKUlFj9Rxd2n6d77rvaWftqx7Kyrm3ozUbCvKZhfMV7j0WZ7T/UYd07K690t7MR21Kv5P73Y/TUuRRrg1RQFvybS1JcLiWbzY1Pk+2w6OBQwMzIETPWMLzKbMjVvZFegHSYPhI4aNPbTtOG9oknwgmu5X66p1qzqrqLfqURBmQcjgJRIaW/8g7KoT+Nx94reZ1X/a+Nffu1XrBhdcoCy6xdr3u/8E40RPPsKx7EvKexR+VhbtHX2i+z0Ff3jbmg/ASkHa1Juq3mAZ22EtnzdFFofEVwvUfC53Mk2TiwZDiN6xtxCs0YBGHaAcpoC2YFsn2qdACFcOZB0s3lH7+wJnff9Pj3mzV8Xlb5mXOmZYnhQcleE4wmDCwomNfpQpJnDySMRWyUjLO4NJ7VKmRjq5cl6Yr9gX6g5qXEKcb5zlcFkPfCVotgMH7RZQb96OLtPeU7sicamLtOlf0Fnl41+JHUbDtKefr4c/e31mCZI/gkObMTz6thyVdHZ1ZM3xPWh+O60e1lpWqa7rwBrab/YKg0wfbfN/ON1ErzAAiCDujDUS2BONwFU2SagTgTSK02P8q56p7Ca0C5I1I8v9ztjmPmn0y3Wi/0kbLtPqlHgayVnVioAMbFum0ftg/lZ7qrIfvrExfrQTux7gGHomxAoUaebrB3+0e+jmE45ADYZ1f3E/OtqwGUCMO6N9QIQzHph3+TfScCcvQHGJ51inlc7v0di0fDUjjJPvMelR7Jw8ZaeFzpBa5AWGnTXMfsHewTjClO0VkkigmrYDYAABP+A+zlaY+ivUFJJK7jvD08io6ZVNUFUtu55tSj2hpgbP5dzwNaWRslS2fJH3JB7e1vlItCEKkdJ4NLRHm270lgynToYj9XzGIASn4p5RKBOEIjdhBqfAqYwHyWzYc3XeH6iK78uo/PGolDh7NYJE7M+KOvMLd0h5HinyV6pFMDL1++GAEtJ+hEUG/9Nc5GyUwmJGp8NAIs1QkBeKE0i7iEJ5JpOZPIAK4V+vqmi3Ge9kPeRwoiceDw2TIzEP3ANXdqwHCj7QByTazG/+eLazB3K0QzAJQARbQdYYYylboG1COvm4ZjnPCg1e/6+zuNrMR6ycgv7RUPOASpnwWcVePj9XsUJuDZrLAGyOAa44dkyNc6rx1j3IAcXgRwxa+zP9MCvCOB4uzQ9NLMVI3VT2dxhut9jdOo8wC1YqayTXcQiQCslydLwbYiJa7FZ+F8ksBKaPzmmDBhGGnYB8IG1TuklQBq6ZTBp+H7yHYDAyGf3PtcjPBRrtl8sPbui5pcs+tf65f5iAYD5E3ILYk0ZJ6nn9Ul6qFICJqCydc7eDn7AoICJXpIfa0HevCyv2xtbtlErmXr6eaN7b6JN7gTqvJWR66OJY1r+dfAWNtivYQkxlGy6bWuvb7BLrT6RWTQeLd5stWCTKVMfaIzXhr/Sj85oNvFkW0daRJr2f5153eSzMl8kjOY92tzsPTBvSfWstloF+fdRPaIo08rzBgpMVds5dz/d4mb6GQ5YROf7wdwGUWUTa5ZzzZFoDdSkyZXo+Z1y8HqBzFfqR9MUVL6i/tVvpmdGvup1/Mw1KhdTG1obbtxVTu5QjdveegbT33ojjBkOfzJ+6Nzr8SysaX0t1gR5KeKFRuXWzZu6rn6ujE1luHEzBXP7yiLsByVVL7q7aT+aAgZwfgIl8570xd/9/uwR1V200fWAl0cbtkrd2Ucah1fT3fj7PbfYtGZtonq1Y/qpR3vLsSLtnqx72YT5srFsjL+mdc1yzfXx0abQxNxz50nz4ud10CpKXtKxuqvjdJ/9NPgbZYySThb2h7ZKj8dtb8ya6JWMmKEKq1WoG3J21To9CKV5eUjQhYkEsFur1yDbCE4WGT7+BC3EDuDcte7SwDzXfKJ30VLNjW90Q5Oitvfagnjzl1uuAZRs/QYrxpQcrotfTg2zJJpsgkGCFjJYiXZdZulS1L1EtwIQhTZPuLXtonSGrGfinhOgRRsdd4zd0jlr5aDL6RUQFg+/XfjOnEo13vqRkduYs61+dNFmzbZzsp7zcD0nAdxG29OTQTJtUpUt9+5qSo88pmB0tVDXhhiHeaO79bBDWTuF4o7aF1t7KZjpLfuWrmuuYf6lrX6XOOF8tWHbmBzMP7WQs6Zp/39LAfCr6V0av+x5/KLl68qmfTpuBwnpzdd+5F2hz+7FOgB0wLn3NZsktIl/gfYIERQiRszBH+2drBtAKYI/HzRLra/29wVaxMo5go78iUROBWq6k1Y0Z89aX/AJoC8t0jRA+j8CkL0DCJ4UBHVP3Tv8tZ0QxtT+LuCYDGpqZxF9O7G3K/GqMflGA/wB/Vn198FaNwN1DpyDDernJPdLrokUOi2BaavcqX5Bypw29kUXQ3drfIMTfWNt3T/mqwV3zI7vqhHYV3TyfXTvxficredxqzWDrSbohyW5UH9X+zl7khCad9Oc6LSRNbOXKxGwRpd5xkgrLTPSZwud4hCdV+WTnnw4G16+GSPABuYeX9DVCc6x2anlDvoY9q1Z166R0Z4iY/6mPvBmrVcwB+CBksTqhUXbuJ5zimw+LcYL9Fl86dXvAV8D2wwwYPYErcnQ92bT+MM651Kxzb7z1G7TiceeLjy7pnxd6zB1rLiPufVluRG7ZQcxosWMtH6tOVGmz2QyxoAfbdqjJAjNGOuGVdJgT9X7ecMJh95tXml/I32jH9kz9NSinjdE6+V07Yd9EFRn7ZNU8YXawYZ0zjrmqK7bQ3+P6Pyh1PnJumJMsB0xJzE2BPs/sFfJ+9NH0ZaA8v+GbYde8WLxycVnVVEmsUagckPY3419jg1qIDb2zc+9s0/fSMj9vSbFLqIn9tLG0mlZdjk9K6RCO7PF9SbJz/+gPb0fTVYnuqKf4t1fa/LtrJlTqPnzU2UNVr8eLVitJzlnMjTJft6d++r04DJUzdro1ELRm+dYjhaop2DFwzh25hzEKdAKt8uFVNZp8dLku1S2IpE676RD1yGdC317Sjxuv9UYS5/WHsfBoMilOQWhFqU3bFd1+NYgDZ16u5tOF5mAF7ppDL3/1foJMII4iPSNbtHf6/X8X+k+/iOEd3JadtMX+X+qq2+PEVs4sX/XhuUNO2rc9pQTuJl2rO56X53WnFwZeAlSWw2y3o2aJ2m6/2xds/OcC6UHdP4lGguV8Tivx1d5X7eX1snmV7cwv5cbj24uLZBBimkGaZy30csQHc7KSq4tUQ+1QyVYeD+ca/4mk3CKjUOlNan6QrU2c5z3nLg3xcpqnlNwQvtozrNUm6ycwr66zq46V4Hs4EbJAEFNVLa63grZ7+tRXi08XdS4n+EGaTpvLO3Tu6Ulvo/GaLdQyMqXuyAvrJMMwPeWVs6cp2yn84nE/16pdotmtpU9an0X6ALYXrhMgvdbajFvK1O1ne57M7PHJZhkih8UDyScrLaeYrUd0Fxs1u8t0tpSkGB/qHX2UTTufTMvWlHvt7xszyhUjCrpL7/yAr3vo2VUCe5T16bJ6urr33r/7whuUHrVEVDgbaabw+Zi59n3/Ptuva5Nto21kNiTrHotmy91nbciIe89q6V55prYU+259w35GYQbFVoO0Dn3VBCL85svx3TjMBAV4KrGWRko74OoY73Z8zS1yltL5ryjz03AnR+r66Ms41Z651vHXD2n9iG9tFwc61bv8Uc2OumEm0BK8xYAWk69rXaF3geyuh/GHevLkl6VtetinaTef/VdhX28UEh9yK1jDfDywwADsJ36aLUgtd/GD9QaV6bd21LYuVhaHntnRKFBWL/f1t6ZGvg1aQ4v0h70rQCH92zHeyczEv2m+7y5y9YFDrd3vBP7Rz/5q007aH0D9u+uYK6P7lHZeyFj2md/EFh/H5TEydpqPbNnSCjN+lIZ8Q/lT33mReLfhWKRsHod7aw1voesQ5k+8+O+Zu29yVafw4WTE7dcwHe5xqZSa5sMdz/tfRL46MR9GgMnxT9da5Xe30z54G+viMY+6V9eu3Bd78OU7uXmltlOxva6x0F6r5oP7qaUMSXnsU6Hb2qSU9gw9Z03HR5m6jNT9C4+9OLx7z7Iq1py1FHtAx5h0uz+6+JCKxLaXbHoQTrXHjp3PkE6/lsb9jrBMknYPmnn2HM1Rz/13PjHthuZ2hAJzWoNdNDBo+K70s01UX6tm/6Nbn5nXSdf9w7AwZ7AYyX2he+fDftKImyZFst3em+TVPLzQTjU+EXeqfPnd3TfJsbpmtZU0ux62+ii22AndB2Aj1z5+sQZIX+MocEB0ul9Vut5Z+sfU/TZD+249+XagmvTfjXcuLdOdLb2sD30xth/Vu97SUBjnr71uMZN+gXOFnqerTWwm+qaPZMACWP/w7H5fo4n9kv8dk9zQPpY+p1P9c1J8UjoP3Oq5lWsLXnXwSX1s/i1TneBOvspUYj1MuyiNNvpEnfdztuIHatBxqBuVTxzfnuCOf+5CeqWdOvetTGUXhSPhrq5rhPuvJts32jbnht2lfJ04o7obXanZ1SIchylPR3XW+Km2/VOi5ttN4XzDEqt3ap9d92BT6lYUzTJZsdzFrRkxZdGGp3uWuE5XtyOduY7cB03FnJCy1Y0Ruf3X1Sy2B4xiSFo98GcKRfdPC3klrhxu58YAVtp491MDk2+jGc3GTWEwsQO8GTwEwWKMMH0/5Xa0WpluObJ0s3WrjJT73daPDM0oyOZImN4I4052n5z5Qhl2Zoy7X6IgB/UO3HjEa/JDnnNIc2WluZYRsQmXuicQ4CU9s7YKiHjVfl1dQvW5Uy0dRdk2qfdmJPdNTNaLBdogG53K/lCm8pBz9PPJKZld9PbyWaew3bT++I90TNPAJG9VN+olDM1S787SxSPWfLuZhTlOOX2UcFV9OdM6N7dWZ5eJDG3rnIINwrIKPEuzXNvWZoXruw5dHYqJ7VzXtp6nhUxseXequJQTHbY6Xw7zJz+f+3d3U9cxxnH8fO2sGAWzDsYY+PEbggoUiukqKrayheVetPbuJdVFClSb/sP1Pkjoiq5b6vWF/0T0t6lVVGbtuDEwS7B2MvyZuMYduHsOae/Zw1KVDkKeFjLk3x9FcWe3dnPzJwz88xz5hRRtlvpDFee5cRgS7WsTE4O6Xp5UeuWaZtcaeJ9USv/AfUmy8rp04DsOpzYmI6y9FsTGe2ChjX1s2XrXzah1V8sNcLmnZcHf7wVXrtx4mt+oUVhLV/7ka4pv9A15/v6zKOsIJs8Wdt/qIXJ77o6kw/rBwc6oD6Y1PXiYh4FL6mOVw7rPWT11gXrjO3S2hsI7P6j8nX9m20NSAWHw5saJh+XovDW487Ply69+cWrqByb/9SK2/V59fz5s0kejeultn1hU8vN5/BHZ8UcKH/uQWfXfnXorU3b+bXASdv+2O9cUkZKZ1yaiqJ8Wvee19T2U2q0AbV/n/U/tfMZy2x8UgnLKlaujRYy+o8tte+yFhq3izy6o4XukrI/Pj3O4yZP+0H2+EVQT79biqKfa7GsQF6oF9wr/GoCrQBDMR9G0R90OtpfdtQbo4Hcjl+f1K75Szpg8zu6tupRtnA4UiBbdWxl1rVqbBP/1iZBKw3ZMpk+VnDwppYKn5bi9M7ivfWtdk3+7Tclj5qTUZJPa5k0o+9+TVWy17naAXYWNDuapuwfjrEt/ZstW6AoteGfujv+q5SHt/t+uWKB7BZ+9f1zXXEpGSvSfFhzh9PbENM7D7XnX9csY6sz6n5QbzZ69bjSqN6uUi61cw7XaqRQSfrFfilKNxrl8tpJH8E42q0ul7JJGU0UzWJQ9//WvVl9NNF1Z1/XHXteUq9HCtezoKiG5eL+RNe9hycJUh31W7vJV98715VmyasaNz9Uuuv31DhXNHbGNSFVu1qixpMMRH33nuqhrLnwM/39ourxURrmn+htOqvBr1YbXzXGra23f3u5kjXSl5tp8XoW5K/rGmobEIPqCWf1WeXDIJI9LvVA/X5Dm5g11WNBG5h/KxXRf4Y3ltefZd7ztPFp94f/1u8OlLu65JtOaLwP6bf0mbMCiYl+6L7uD7sKYG4rtaamcVnT/XFlYvOe5sdfnVVx9F1rvxkdUfzup/K6pt9m4+Rw89CSmKNVefyp1Ax+P/KDkZV7/1gbjQ7iqSDJL2hs67G64IpsbI7Wr75kG1m2Aaj/1RoyFkzbVRfWGR/5UhRHC3rRrIII2Sf6P3fHr9+3rMy2XmfbdgE/xge3bYJ9jO/mnyCAwNcIWBS7Njo6kBalsTiO9Exw0Z3ZDpsm0U9uYKFlBdhF3k5e39OS42EzDzfTrLR+6Vz3g+O8pohGcBewqPzav8f6D8odI0na7AvCRDcoZbhENkEOK3p4sUPtlepGWNfEra4J5p6mVNsKT63vnamvv3J3c/c4N0L3mvIJPgq0sgLyjhFNVwdDBVC1NOjWYz3d2s2paEJ0eDpnuKeFdsP6lxZJO8p82gjrpfVNXQe+7nG145hYHbIsuqzJ26va4R/W4r3Vp3VA07r68q2OjsrS8FtfHHDYmnjfm6qUSulIKQkGsyLq1eS6RwusioJ83WGctybA+pxdpco81uJuo2ju3R9OLmyF/3cw6XHqx79pn4AFg6Nib1Sry6EgOehR+q1NwJXuq4MoCgsOq7dpkWbXNe37N5Ra/Kgoss0831/Penq2p95c3nedSFv2RdyZTQVRPK03QYwruNBpa0OFcreCKLuV5qXbF9ZXdr58HV14d7inkpRHo0wLYvU/7b505828V/fSHtvy1efo2Xnlf6n/JUm4mTXyqk7S2DjJJo+r+ge6x89dmuir74YTzSgazYu8N2ll0dgbriI7hEA779GOxt3nipc9jvPS9kjcXHuR3rbiavAcy4d/fy9IepJXyn1hVm7Um7EezUuT3mbj5p3a/mkGe+z69+jR+b49BQqzg2xMY0NZH2GvFunlSJc+DZh6Zs+Y64VC+v2behSlOjpYU4D2eNkGZmZBOj37X+mqZOeacT5sc0KltFesr2v/S4FJZS4X2njTeIzj4qEW52s3a7Xt0/ydT2u7D65fTWaHF8q5DgFo9Jbj/SBNB5LK/md/7Wk8yyHBh8GtwaCZTCuLX1nV+VmdAafbRl7XfHhV95ePxqv3V7889m3uvHbhcsGHz4IAAAVqSURBVH+YNsbSzDIBip5YzzflYa7TSy1AUqSKAjxWXpqCMPlOUGS1g7yjemFo5dFJ2uA59t1T/yoCAKdOygci0H4BO5TuZ+NB3NU/G84sLuTBr1s7f9/YSGX7RdvzDXbjmn9/Lpnrb4TzD8rFXHU+Y6HfHutv46dayukbs7Pxop48nbmxkAV/tEP+2nsdUJ+OFm/MJt2Lu1FzICkuby+lJ+nTrTr/ZO5JNhHjwetuawuQYHwuXqw2wpkZ9b9rrXNV2nofOvrO5epWPDVzRuv4k32vldd7CZKZca0B1P+C60/Ss16khjj6jYyRF6lV3Opic4E/vxPEV4NZjZlycaN/Pn+jDePFvkcJ/vH8rbnwmzjfsODC1YHVeHm7GU6ND2bB2/PN497zLDtD90gb//HMsObNV7/d82YCAG5jmtIIIIAAAggggAACCCCAAAIIeCFAAMCLZqKSCCCAAAIIIIAAAggggAACCLgJEABw86M0AggggAACCCCAAAIIIIAAAl4IEADwopmoJAIIIIAAAggggAACCCCAAAJuAgQA3PwojQACCCCAAAIIIIAAAggggIAXAgQAvGgmKokAAggggAACCCCAAAIIIICAmwABADc/SiOAAAIIIIAAAggggAACCCDghQABAC+aiUoigAACCCCAAAIIIIAAAggg4CZAAMDNj9IIIIAAAggggAACCCCAAAIIeCFAAMCLZqKSCCCAAAIIIIAAAggggAACCLgJEABw86M0AggggAACCCCAAAIIIIAAAl4IEADwopmoJAIIIIAAAggggAACCCCAAAJuAgQA3PwojQACCCCAAAIIIIAAAggggIAXAgQAvGgmKokAAggggAACCCCAAAIIIICAmwABADc/SiOAAAIIIIAAAggggAACCCDghQABAC+aiUoigAACCCCAAAIIIIAAAggg4CZAAMDNj9IIIIAAAggggAACCCCAAAIIeCFAAMCLZqKSCCCAAAIIIIAAAggggAACCLgJEABw86M0AggggAACCCCAAAIIIIAAAl4IEADwopmoJAIIIIAAAggggAACCCCAAAJuAgQA3PwojQACCCCAAAIIIIAAAggggIAXAgQAvGgmKokAAggggAACCCCAAAIIIICAmwABADc/SiOAAAIIIIAAAggggAACCCDghQABAC+aiUoigAACCCCAAAIIIIAAAggg4CZAAMDNj9IIIIAAAggggAACCCCAAAIIeCFAAMCLZqKSCCCAAAIIIIAAAggggAACCLgJEABw86M0AggggAACCCCAAAIIIIAAAl4IEADwopmoJAIIIIAAAggggAACCCCAAAJuAgQA3PwojQACCCCAAAIIIIAAAggggIAXAgQAvGgmKokAAggggAACCCCAAAIIIICAmwABADc/SiOAAAIIIIAAAggggAACCCDghQABAC+aiUoigAACCCCAAAIIIIAAAggg4CZAAMDNj9IIIIAAAggggAACCCCAAAIIeCFAAMCLZqKSCCCAAAIIIIAAAggggAACCLgJEABw86M0AggggAACCCCAAAIIIIAAAl4IEADwopmoJAIIIIAAAggggAACCCCAAAJuAgQA3PwojQACCCCAAAIIIIAAAggggIAXAgQAvGgmKokAAggggAACCCCAAAIIIICAmwABADc/SiOAAAIIIIAAAggggAACCCDghQABAC+aiUoigAACCCCAAAIIIIAAAggg4CZAAMDNj9IIIIAAAggggAACCCCAAAIIeCFAAMCLZqKSCCCAAAIIIIAAAggggAACCLgJEABw86M0AggggAACCCCAAAIIIIAAAl4IEADwopmoJAIIIIAAAggggAACCCCAAAJuAv8D2ZOxamLUd+UAAAAASUVORK5CYII=;" vertex="1" parent="1">
          <mxGeometry x="268" y="160" width="364" height="62.56" as="geometry" />
        </mxCell>
      </root>
    </mxGraphModel>
  </diagram>
</mxfile>
